<?xml version="1.0" standalone="no"?>
<!DOCTYPE svg PUBLIC "-//W3C//DTD SVG 1.1//EN" "http://www.w3.org/Graphics/SVG/1.1/DTD/svg11.dtd" >
<svg>
<metadata>
Created by FontForge 20110222 at Wed Jul 15 04:05:11 2015
 By www-data
(c) Copyright 2005, Arphic Technology Co., Ltd.Copyright \(c\) 1997 enStep Incorporated. All Rights Reserved.
</metadata>
<defs>
<font id="ARDARLING" horiz-adv-x="495" >
  <font-face 
    font-family="AR DARLING"
    font-weight="5"
    font-stretch="normal"
    units-per-em="1000"
    panose-1="2 0 0 0 0 0 0 0 0 0"
    ascent="800"
    descent="-200"
    x-height="598"
    cap-height="671"
    bbox="-6 -264 1008 927"
    underline-thickness="20"
    underline-position="-123"
    unicode-range="U+0020-2122"
  />
<missing-glyph horiz-adv-x="500" 
 />
    <glyph glyph-name=".notdef" horiz-adv-x="500" 
 />
    <glyph glyph-name="numbersign" unicode="#" horiz-adv-x="520" 
d="M355 441l-18 -84h93l-15 -59h-93l-23 -96h-60l25 96h-66l-24 -96h-59l24 96h-93l15 59h93l18 84h-94l15 59h93l23 92h59l-23 -92h65l24 92h59l-23 -92h91l-14 -59h-92zM212 357h66l18 84h-66zM82 517l86 23l12 83l86 3l-14 -17l-49 3l-23 -81l1 -24zM71 431q14 0 43 -2
t43 -2l-98 -8l22 85zM159 388l-24 -21l-68 3zM130 290l-15 -88l-5 68l-58 16zM177 193l-20 -8q-19 0 -34 2t-24 3q14 2 29 4zM248 288l-20 -91l7 72q-16 5 -29 20zM333 286q7 1 26.5 4t28.5 3l24 -5l-70 -19l-23 -88h-103q8 8 19.5 10.5t29.5 2.5h24.5h18.5zM241 429l7 -48
l16 -1l10 -15l-48 2zM281 622l-3 -98l16 7l40 81l57 -10q-16 2 -37 -4t-31 -15l-22 -76l-48 -5zM426 615q0 -18 -24 -64q-13 -24 -18 -36q4 13 10.5 39.5t10.5 36.5zM392 507l16 19l61 1l20 -10l-29 -75l9 67zM369 427l22 2l-39 -60zM381 372l79 10l-10 -20zM441 349l9 1
l-27 -59zM355 258l20 11l-45 -77zM277 422l3 -13l-11 -3zM198 261l-4 -49l-11 -3zM405 431h51l-59 -16z" />
    <glyph glyph-name="dollar" unicode="$" horiz-adv-x="571" 
d="M464 633l49 -53l-1 -53l-9 53zM372 409l83 -10q9 -21 25.5 -42.5t32.5 -41.5q-40 40 -64 57q-31 22 -77 37zM524 294l1 -98v21q0 26 -2.5 46.5t-11.5 35.5zM315 -98h10t10 1v-10q-8 0 -23 -2t-22 -2l-37 16q24 -3 47 -3h15zM340 253l33 -27q-6 -20 -9.5 -38.5t-3.5 -36.5
q-7 15 -11.5 47t-8.5 45v-110q23 3 32 22t9 45t-9 45t-32 23v-15zM237 746l-13 7q7 0 24 5q28 8 38 8h33l21 -9l-11 -7q-3 -2 -29.5 -3t-38.5 -1h-24zM244 453q0 10 -2 21l-4 22l-39 -8l21 17h17v16q-31 0 -41.5 -14.5t-10.5 -45.5q0 -33 10 -45t42 -12q3 16 5 28t2 21z
M340 680h6q28 0 54 -9.5t52 -27.5q-30 6 -56 12q-7 2 -56 15v-18l106 -28q41 -21 55 -94q-56 -32 -124 -63q0 21 -8.5 36t-28.5 18q-6 -32 -6 -62q0 -32 6 -62q94 0 136 -59q36 -51 36 -152q0 -117 -32 -143q-14 -12 -140 -42v-15l104 27l19 -26l-123 -11v-44l-104 1l1 52
q-39 0 -97 19q-29 9 -57 19l-34 53q55 -42 83.5 -54.5t103.5 -31.5l1 10q-93 19 -102 22q-76 25 -76 124q23 6 64 28.5t62 29.5q0 -36 8 -50q12 -21 44 -21q1 16 2.5 31t1.5 35q0 29 -2 45t-2 24l-126 7q-3 14 -16 29.5t-27 21.5l-12 48l55 -65l-1 -6q26 -13 62 -22
q26 -6 65 -11v5q-96 0 -140 55q-39 49 -39 150q0 82 51 123q38 31 128 50q3 23 3 45q0 7 -0.5 15.5t-3.5 23.5l104 7v-64zM46 494q0 -31 4.5 -56t14.5 -58q0 3 -26 80q-11 33 -11 60q0 82 63 121q52 32 137 32l-3 -12l-59 -10q-19 -20 -43 -33q-19 -10 -51 -19zM520 173
l10 5l3 -43l-48 -118l-19 -13q22 25 34 58q8 21 20 111zM44 148l43 47l103 21q-20 -2 -73 -27.5t-73 -40.5zM48 95l-1 6l-5 32l13 6q0 -19 5.5 -42.5t8.5 -34.5zM521 509q-13 0 -83 -35q-32 -16 -50 -16l-13 2q19 4 31.5 7t20 5.5t22 14t28.5 22.5h44z" />
    <glyph glyph-name="percent" unicode="%" horiz-adv-x="955" 
d="M311 -14q37 98 71 217q27 95 57 223q2 9 50 224q36 -12 55 -18q35 -11 57 -11q-10 -53 -23 -103q-8 -32 -50 -169q-53 -197 -105 -393q-27 10 -56 20t-56 10zM631 651l-155 18l6 18q33 0 75 -11q31 -8 74 -25zM504 658l20 -1q48 -10 96 -19l23 -18q-46 11 -70 17
q-44 11 -69 21zM321 15q11 107 32 208.5t53 215.5q19 67 63 206l-60 -318q-38 -180 -88 -312zM297 -2v21q0 58 28 171q20 83 60 212q25 79 50 159q-32 -142 -64.5 -282t-73.5 -281zM449 -68q-43 0 -89 11.5t-90 30.5q49 0 97 -6.5t87 -21.5zM614 622l-168 -656q29 74 67 189
q46 137 75 246q36 134 36 185zM367 438l-2 -51q-8 -11 -17 -20l-20 -20l16 24q12 20 12 26v33v12q0 15 -0.5 33.5t-2.5 37.5t-4 34t-2 22q0 12 2 21.5t3 15.5q7 -46 11 -85.5t4 -82.5zM220 340h-44q-127 0 -127 124v57q0 61 32 90.5t94 29.5h40q64 0 98 -28.5t34 -91.5v-57
q0 -66 -30 -95t-97 -29zM269 519q0 33 -13 46t-45 13h-27q-32 0 -44 -12t-12 -46v-53q0 -33 12 -48t44 -15h27q33 0 45.5 14.5t12.5 49.5v51zM247 639l98 -22l-3 -31l-10 26q-23 12 -35 17q-38 19 -42 19l-23 4zM128 645h1l6 -1h25h19q18 0 29.5 1.5t24.5 5.5q-20 5 -28 5
q-18 0 -40 -3t-42 -6q-15 -12 -34 -29q-14 -13 -31 -31q4 15 29.5 35.5t40.5 22.5zM256 340l-17 -1l26 -15l70 46q-31 -18 -37 -21q-20 -9 -42 -9zM195 334q11 -7 15 -7l4 1q19 -3 28 -4zM41 588q20 14 34.5 26t34.5 32q-5 -2 -13.5 -4t-12.5 -3q-24 -26 -25 -27
q-16 -20 -16 -55q0 -5 2 -18.5t2 -14.5l-1 -105q-3 25 -6 51t-3 37v34t4 47zM198 324q-33 7 -68 15t-60 18q-4 2 -14.5 30.5t-12.5 37.5q41 -69 58 -79q3 -2 97 -22zM255 477l-3 -36l7 -16l1 67l-5 9v-24zM251 552q7 -5 9.5 -15t2.5 -22l-2 -14zM141 544q0 -37 2.5 -62
t10.5 -53q9 -6 18 -19l-13 4q-14 16 -20.5 38.5t-6.5 47.5v18q0 14 3.5 26.5t12.5 20.5zM246 569q-11 -11 -30 -11h-38l-17 12zM210 410l36 8l-26 2l-26 -4zM579 223l2 51q8 12 17 21l20 20l-16 -24q-12 -20 -12 -26q0 -33 0.5 -63.5t2.5 -51t4 -35.5t2 -22q0 -8 -2 -18
t-4 -19q-14 86 -14 167zM725 322h45q126 0 126 -125v-56q0 -120 -125 -120h-40q-64 0 -96 27q-36 30 -36 93v56q0 67 29 96t97 29zM677 143q0 -33 12.5 -46.5t45.5 -13.5h26q33 0 45 13t12 46v53q0 34 -12 48.5t-45 14.5h-26q-33 0 -45.5 -14.5t-12.5 -49.5v-51zM699 23
l-98 22l3 31l10 -26q30 -17 51.5 -26.5t48.5 -13.5zM858 40q-19 -16 -34 -20.5t-37 -4.5h-36h-15.5t-23.5 -4q9 -2 16.5 -3.5t12.5 -1.5q18 0 39.5 3t42.5 6q15 11 33 28q14 13 31 31q-3 -11 -14.5 -21t-14.5 -13zM690 322l17 1l-26 15l-70 -46q36 20 37 21q20 9 42 9z
M751 327q-11 8 -16 8l-3 -1q-8 0 -15 1t-14 3zM905 74q-17 -12 -36 -28q-15 -13 -33 -31q4 3 13 5t13 3q24 26 25 27q15 20 15 55l-3 33l1 104q2 -21 5.5 -48t3.5 -39v-50q-3 -21 -4 -31zM748 338q32 -7 68.5 -15t59.5 -18q3 -1 13.5 -30.5t12.5 -37.5q-37 68 -58 79
q-4 2 -96 22zM691 185l2 36l-6 16l-1 -67l5 -9v24zM695 110q-7 5 -9.5 14.5t-2.5 22.5l2 14zM804 118q0 46 -2.5 68t-9.5 47q-9 5 -18 18q21 -5 32 -37q8 -24 8 -52v-18q0 -14 -3.5 -26.5t-12.5 -20.5zM699 93q11 10 30 10h39l16 -11zM736 251l-37 -8l27 -1l26 4z" />
    <glyph glyph-name="ampersand" unicode="&#x26;" horiz-adv-x="697" 
d="M502 0l-37 32q-20 -17 -49.5 -23.5t-61.5 -6.5h-109q-89 0 -132 67q-36 56 -36 150q0 92 13 121q20 44 96 68q-33 39 -33 97q0 88 48 119q38 25 132 25h15l113 -34l-80 -110q-13 5 -33 5h-20q-28 0 -39.5 -8t-11.5 -23q0 -12 30 -45q21 -23 22 -25l125 -186l26 13v15
q0 28 3 50.5t9 54.5q24 -7 55 -7q24 0 48.5 3t33.5 4q-6 -33 -6 -66q0 -36 6 -71q-15 -4 -33 -4q-17 0 -32 4q-4 -22 -11 -52.5t-13 -53.5l89 -113h-127zM259 318q-36 -7 -53.5 -31t-17.5 -62q0 -48 25.5 -70.5t74.5 -22.5h24q21 0 30 2.5t31 13.5q-51 95 -114 170zM459 233
l-13 56l-43 32q14 -19 29 -43q11 -17 27 -45zM309 491l-10 -25q22 -22 39 -46q14 -20 50 -85q-17 46 -35 84q-28 58 -44 72zM470 635l3 -22q-28 -38 -41 -57q-24 -34 -35 -61q10 6 43.5 48t37.5 53l7 23zM126 523q0 94 64 128q48 26 155 26q14 0 64 -26q29 -16 34 -19
l-59.5 17t-50.5 9q-4 0 -9 2q-12 5 -15 5q-14 0 -34.5 -8t-27.5 -10l-70 -20q-25 -14 -34 -95q-5 -84 -6 -94q-6 28 -8.5 45.5t-2.5 39.5zM564 145q-4 -6 -4 -18q0 -11 -1 -17q9 -15 27 -38q39 -50 48 -64l-86 101q0 28 15 65q12 25 17 37q-4 -31 -5 -34q-4 -21 -11 -32z
M406 -40l69 48q-9 0 -24 -7t-19 -8l-27 -8zM389 -9l4 -17l-57 7zM284 -16l-45 3q-4 0 -17 3.5t-20 3.5l-27 -1q26 -11 60 -19t63 -8l41 27q-14 -2 -31 -5.5t-24 -3.5zM466 373l-6 1l16 -98l6 95h44q18 0 37 -1t37 -4l-6 18q-3 4 -31.5 6t-51.5 2h-21q-11 0 -15 -5.5
t-9 -13.5zM260 155h18q13 0 26 1q27 4 43 5l11 -12q-14 -2 -32 -3.5t-25 -1.5q-12 0 -33 4.5t-31 6.5h23zM88 368q-11 -27 -21 -53q-15 -40 -15 -83q0 -18 12 -88.5t18 -80.5t27 -21.5t25 -24.5l31 -17l-73 20q-20 6 -39.5 85t-19.5 115q0 66 23 120q31 73 86 73l14 -2z
M202 252q-2 -9 -3 -17t-1 -19t4 -23t11 -29l-1 44q0 10 2 18.5t3 13.5q5 23 5 24q7 19 32 19l19 -2l-22 23q-28 -7 -36 -15t-13 -37zM657 217q-1 13 -1.5 24.5t-0.5 27.5v30q0 18 -1.5 39.5t-5.5 45.5l-39 2l9 -16l19 -3q0 -21 2 -72t2 -55l-2 -28zM529 -9l101 3l12 -6
q-9 0 -50 -5q-16 -2 -30 -2l-60 2l-17 17z" />
    <glyph glyph-name="quotesingle" unicode="'" horiz-adv-x="215" 
d="M141 435h-62l-20 211q19 -4 42 -4q26 0 40 2t21 2q-10 -45 -15.5 -101t-5.5 -110zM42 563q0 -12 3 -37t3 -37q0 -13 -3 -39t-3 -39l18 26l2 95q0 22 -6 57q-2 11 -11 58zM168 667l-9 -14l-61 -3h-49l-5 20q31 0 62 -1zM148 445l16 -17l-2 208q0 -48 -3 -82t-11 -109z
M127 424l29 1l-50 -11l-45 11z" />
    <glyph glyph-name="parenleft" unicode="(" horiz-adv-x="380" 
d="M76 132v380q0 106 67 162.5t175 56.5q-4 -10 -5 -19.5t-1 -22.5q0 -15 3 -45t3 -42q-75 0 -102 -58q-19 -40 -19 -126v-35.5t1 -34.5q0 -13 -1 -47t-1 -53q0 -119 35 -165q29 -38 87 -38q7 -13 7 -31q0 -24 -3 -53.5t-4 -45.5q-114 0 -175 50q-67 55 -67 167zM311 739
q-93 0 -120 -13q-17 -8 -44 -36q-22 -23 -44 -45q23 42 29 52q27 43 44 43q9 0 28 3t28 3q13 0 41 -3.5t38 -3.5zM335 712l-7 31l13 -29q1 -10 1 -20.5v-20.5v-54l-12 -21q0 24 2.5 65t2.5 49zM55 455q0 66 4 94q8 52 35 87q-2 -16 -16 -52.5t-14 -42.5q0 -24 7 -97
q4 -42 4 -59q0 -45 -3 -105q-7 -140 -7 -175q0 -2 6.5 -33t14.5 -65q-18 39 -25 126.5t-7 190.5v69t1 62zM48 363q0 -47 2 -156.5t2 -116.5q0 -13 2 -25.5t5 -25.5q-17 43 -21 93.5t-4 123.5q0 131 5 220t13 106q0 -37 -2 -125t-2 -94zM333 32l4 22q3 -28 6 -54t3 -38
t-3 -28t-6 -31q0 9 -2 27t-2 28v74zM221 540q0 -46 -0.5 -92t-0.5 -93q0 -86 2.5 -145.5t10.5 -125.5q0 19 3 46q7 64 7 80q0 61 -2 202t-2 150zM209 -83l119 -19h-60.5t-60.5 -1q-4 0 -8 2.5t-8 4.5l-33 13q-16 10 -34.5 32.5t-25.5 40.5q36 -31 52 -42q38 -28 59 -31z
M336 594q0 -3 -8 -10q-2 -2 -9 -7l-22 -3l-47 -9l7 13q23 8 40 12t39 4z" />
    <glyph glyph-name="parenright" unicode=")" horiz-adv-x="377" 
d="M302 511l-2 -172q0 -21 1 -65t1 -66q0 -183 -67 -244q-57 -52 -175 -52v129q112 0 112 109v346q0 52 -29 77t-83 25q0 14 1 43t1 44v26q-2 12 -2 17q114 0 175 -50q67 -55 67 -167zM67 -96q33 2 56 3.5t38 5t23 7t17.5 6.5t36.5 32q18 20 37 40q-13 -41 -49.5 -71
t-79.5 -30q-13 0 -29 2q-40 5 -50 5zM52 -34l-2 -66l-13 29q6 37 8.5 62t2.5 54q0 -13 2 -44.5t2 -34.5zM323 188q0 -42 -11 -91.5t-28 -89.5q2 17 12.5 49t10.5 45q0 29 2 96.5t2 71.5v73t1 75q0 81 -7 146.5t-27 123.5q27 -59 38 -161q8 -77 8 -188v-21v-18v-15v-12v-12
q0 -19 -0.5 -37t-0.5 -35zM329 121v329q0 86 -22 190q23 -56 30 -114.5t7 -138.5l-7 -287l-67 -141zM41 589q-3 28 -6 54t-3 38t3 28t6 31q0 -22 3 -52q7 -69 7 -87zM157 103q0 66 2 218.5t2 162.5q0 14 -5.5 35t-10.5 40q0 -24 2.5 -63t2.5 -46q0 -15 -4 -32
q-11 -47 -11 -56q0 -49 2 -161.5t2 -119.5q5 3 11.5 10.5t6.5 11.5zM230 696q-4 4 -29.5 16.5t-44 14t-53.5 4.5t-53 14q5 -1 17 -1h20.5t21.5 1q12 0 18 -1l93 -18q20 -12 39 -40t26 -54zM42 49q0 4 31 13.5t55 15.5l9 -7q-24 -10 -47 -16t-48 -6zM134 568l2 -65l-8 42
q-2 13 -37 22q-3 1 -43 8l11 13q17 0 39 -5.5t36 -14.5z" />
    <glyph glyph-name="asterisk" unicode="*" horiz-adv-x="277" 
d="M174 456v-91h-63l-1 91l-67 -42l-25 57l72 35l-71 33l20 58l71 -42l2 91h63l-1 -90l67 44l23 -61l-71 -33l71 -35l-24 -55zM98 574l-6 78l-2 -60l-52 49l-3 -12zM185 667l-58 -9l-3 17zM183 574l21 16l-21 60v-76zM307 522l-88 -22l58 33l-20 81zM258 418l6 53l25 -2z
M182 430l4 -65l9 29l23 3zM91 353l12 84l1 -74l65 -8zM90 425l-20 -21l-19 3zM8 446l5 8l13 -50zM80 506l-62 20l46 -20l-46 -19zM9 544l26 60l-13 27zM212 588l-4 18l43 24z" />
    <glyph glyph-name="plus" unicode="+" horiz-adv-x="619" 
d="M382 290v-137h-145v137h-167v120h70h73h24v138q16 0 48 -1t49 -1h19q11 0 29 2v-138q11 0 53 -1.5t64 -1.5h21h16q9 3 12 3v-120h-166zM78 423l151 32l4 -35zM226 475l-12 -8l12 116v-108zM242 577l154 24l2 -185l-4 148l-150 -2zM553 425l-127 -4l-3 23zM566 407l11 8
l-13 -133zM550 273l-149 -9l31 -147l-203 6l11 21l154 2l-2 132zM226 143l-15 -11l-7 141l16 5zM180 278l20 -143l-41 122l-81 16zM59 279l-17 -5v130l11 16zM193 455l-134 -21l-2 20zM432 252l16 -8l-11 -74zM427 461l-20 -3l5 110z" />
    <glyph glyph-name="comma" unicode="," horiz-adv-x="344" 
d="M69 -137v87q47 0 59 17q9 12 9 62h-41q-6 38 -7.5 54.5t-1.5 42.5q0 43 9 85l75 3l105 -3v-202q0 -96 -59 -126q-39 -20 -148 -20zM256 -119l34 -7l-191 -38l-22 13zM73 18q0 31 -3 63t-14 110q3 5 10 12t14 12q0 -34 -2 -74q-5 -99 -5 -123zM277 -90q7 52 14 106.5
t7 99.5q0 16 -2.5 43.5t-2.5 32.5l24 10q1 -9 1 -30q0 -50 -15 -136q-10 -56 -26 -126zM304 217q-66 9 -127 14.5t-117 5.5q47 6 108 8t117 2zM60 -124q0 -7 2 -23t2 -24q-9 42 -11 52q-7 28 -16 52q3 5 10 12t14 12z" />
    <glyph glyph-name="hyphen" unicode="-" horiz-adv-x="583" 
d="M528 421v-125q-83 0 -276 2t-205 2l-2 63q0 14 0.5 28.5t3.5 29.5h479zM50 281q11 -1 45.5 -5.5t52.5 -4.5h142q23 0 69 3t69 3l92 -2q-43 -11 -79 -14t-101 -3h-27h-29q-74 2 -126 4t-110 2zM533 285q-48 0 -158.5 -2t-119.5 -2q-14 0 -31 -0.5t-38 -0.5
q-50 0 -81.5 2.5t-42.5 10.5h181q197 0 240 -1.5t50 -6.5zM530 444l21 -1v-163l-13 -13l2 151zM62 430l-12 17q6 0 105.5 2t142.5 2q38 0 115 -8t115 -8zM27 430l12 13l-3 -100q0 -18 0.5 -34.5t3.5 -35.5l-14 -6q0 15 -2 33q-5 46 -5 57q0 13 2.5 33.5t5.5 39.5z" />
    <glyph glyph-name="period" unicode="." horiz-adv-x="323" 
d="M70 16v156q44 -4 60 -4.5t34 -0.5q40 0 88 5q3 -17 4 -43t1 -29q0 -16 -0.5 -29t-4.5 -55h-182zM178 5l100 -3l-195 -23l-28 16q18 0 45 3q62 7 78 7zM57 82q0 -13 3 -39t3 -39l-13 -5q-7 31 -10 77t-3 82q4 2 11 7.5t10 6.5zM284 17l-16 8l1 80q0 16 -2.5 43.5
t-2.5 32.5l24 10zM188 183q-26 0 -79 -3t-80 -3l32 21q55 0 110.5 -0.5t111.5 -0.5q-15 0 -47 -7t-48 -7z" />
    <glyph glyph-name="slash" unicode="/" horiz-adv-x="422" 
d="M68 18q56 150 104 328q45 170 74 336q44 -7 64 -11.5t48 -18.5q-7 -12 -44 -158q-54 -216 -72 -285q-43 -166 -63 -215q-41 14 -54 17q-27 7 -57 7zM388 683l-155 18l-23 22q49 -4 92.5 -13.5t85.5 -26.5zM262 689h19q19 -4 48 -9t48 -11l23 -17q-46 12 -69 17
q-37 9 -69 20zM79 47q0 100 24 214q17 81 56 212q52 176 61 209q0 -95 -20.5 -203t-55.5 -230q-25 -88 -65 -202zM54 30v21q0 59 28 172q19 77 60 210l50 160q-32 -142 -64 -283q-35 -147 -74 -280zM206 -37q-39 0 -86.5 12t-91.5 31q49 0 95.5 -6.5t87.5 -21.5zM361 623
l-158 -625l17 2q15 73 59 206q57 174 69 217q33 120 33 195z" />
    <glyph glyph-name="zero" unicode="0" horiz-adv-x="589" 
d="M33 428q0 80 8.5 103.5t54.5 79.5q-17 -30 -26 -48q-18 -35 -18 -53q0 -59 7 -177t7 -177q0 -16 -3 -35.5t-6 -37.5q-24 173 -24 345zM532 375v-122q0 -113 -43 -172q-50 -69 -158 -69h-54q-104 0 -153 54q-58 63 -58 252q0 118 9 163q15 74 61 108q53 39 160 39
q131 0 185 -62q51 -58 51 -191zM300 134q63 0 85 25.5t22 89.5q0 22 1.5 61t1.5 40q0 94 -32 128q-26 28 -80 28q-76 0 -98 -58q-13 -34 -13 -127v-39q0 -94 30 -123q26 -25 83 -25zM289 -25l-78 10q-32 12 -89 45l-52 30l4 63q3 -13 6 -24t10 -28l122 -73l71 2zM406 4
l-14 -19l-77 4q-7 6 -20 14zM472 55q8 8 29 40q12 18 17 25l-10 -25t-11 -21l-33 -37l-29 -11l-15 -6zM168 620q-11 -5 -42 -26q-15 -11 -41 -29q28 21 48.5 39.5t45.5 42.5l74 -11q-10 -2 -44.5 -7.5t-40.5 -8.5zM233 656q5 -1 23.5 -4.5t21.5 -3.5q5 0 5 2q14 -9 17 -14z
M552 281v-36q0 -36 -3.5 -61t-15.5 -48l5 330q0 -31 9 -115q5 -47 5 -70zM436 1l51 43l48 60q0 -4 -26 -42q-18 -26 -32 -45zM452 608q-38 7 -83.5 20t-74.5 28q12 -7 51 -10t51 -9zM466 601q10 -3 20.5 -6t13.5 -6q9 -9 24 -63q8 -28 18 -71q-26 58 -34 75q-18 37 -42 71z
M213 325q0 -15 3 -43t3 -42q-5 18 -9.5 37.5t-4.5 33.5l2 144l20 -4q-5 -32 -9.5 -65.5t-4.5 -60.5zM217 180q-10 8 -13.5 32.5t-3.5 46.5l3 33zM385 207q0 19 -2.5 51.5t-2.5 39.5q0 69 -4 93q-7 30 -12 56q-5 -1 -15 14.5t-13 22.5l20 -8q21 -30 30 -52t9 -53
q0 -19 2 -64.5t2 -49.5q0 -30 -5 -52.5t-20 -39.5zM295 148q-16 0 -25 1q-30 6 -43 7l18 15q5 -1 17 -3t17 -2h25l64 14l-15 -26q-18 -2 -37 -4t-21 -2zM320 488q-21 -3 -43 -8.5t-28 -13.5l-22 2q18 14 25.5 17.5t26.5 3.5z" />
    <glyph glyph-name="one" unicode="1" horiz-adv-x="449" 
d="M337 3q-22 0 -36 1q-55 4 -59 4h-26q-12 -3 -17 -4l1 318v98v28q-41 -31 -61 -44q-33 -21 -68 -34q0 27 1 56l2 58q0 30 -3 59q15 22 45 43q8 6 92 54q26 -3 51 -3q24 0 48 1l48 2q0 -21 3 -63t3 -64v-294q0 -35 -3 -107t-3 -108zM312 653q13 0 29 3t31 6
q-27 4 -50.5 5.5t-59.5 1.5h-19l-55 -1l38 -15h86zM372 0q12 28 18 154t6 320q0 33 -8.5 80.5t-15.5 90.5q0 -43 3.5 -120t3.5 -99q0 -41 -3 -98q-7 -133 -7 -166zM166 191q11 41 19 104t8 112l-1 9q-10 -27 -18.5 -53t-8.5 -57zM178 43q0 15 4 37q10 54 10 64v12l-8 76
q-9 -47 -11 -61q-6 -36 -6 -61v-128q33 0 101 -4t102 -4l14 19h-48.5t-57.5 -1q-23 0 -52.5 1t-44.5 7zM58 531l4 -45l2 -45q0 -17 -2.5 -46t-2.5 -35l-12 -10q0 18 3 56t3 57q0 16 -4 32t-12 38q7 39 64 72q79 45 84 51l8 -11q-63 -36 -82 -47q-31 -18 -53 -67zM74 334
l61 31l49 57q-61 -39 -122 -77zM402 618q0 -18 -3 -40.5t-6 -43.5l-6 120zM406 675l-134 -5l-16 8z" />
    <glyph glyph-name="two" unicode="2" horiz-adv-x="650" 
d="M235 133q76 7 163 7q29 0 88 -3.5t80 -3.5q4 -24 4 -53q0 -13 -2 -38t-2 -38q-33 0 -110.5 -2t-82.5 -2q-51 0 -168.5 2t-125.5 2q-2 16 -3 31t-1 36q0 156 87 225q38 30 163 70q89 28 89 83q0 45 -24 58q-15 8 -66 8t-68 -16t-17 -67q-24 4 -54 4q-17 0 -57.5 -2
t-43.5 -2q0 216 214 216q171 0 225 -51q47 -45 47 -140q0 -113 -86 -166q-4 -3 -162 -62q-87 -33 -87 -96zM57 508l60 115q28 16 69 24.5t79 16.5q-107 -35 -144.5 -77.5t-63.5 -150.5v72zM167 419q9 0 28 3t29 3l29 -3l3 23l14 -44q-43 0 -69 1q-105 4 -115 4l-15 13h96z
M262 148q42 7 90.5 15t76.5 8q21 0 66 -5t69 -7l-11 -20q-36 4 -72.5 8t-68.5 4zM561 -14l-49 -17q-29 0 -76 6q-101 13 -125 13q-30 0 -82 -6q-105 -12 -135 -12l-40 11l-11 46v60q0 38 9.5 73t30.5 63q-13 -30 -16.5 -65.5t-3.5 -86.5v-59l11 -29l32 17q19 -4 40.5 -9
t37.5 -5t46 5q54 9 75 9q20 0 103 -12q34 -5 61 -5zM579 96q0 3 2 22t4 33l17 -29q0 -33 -4 -64t-13 -75q0 19 -3 57t-3 56zM564 563q-37 73 -130 81.5t-126 19.5q79 0 136 -11q84 -16 118 -57q19 -34 28 -83.5t9 -96.5l-22 -24q0 17 5 49t5 47q0 19 -6 35.5t-17 39.5z
M311 225q36 16 100 36q51 15 103 31q31 44 33 46q20 26 40 41l-40 -72q-36 -27 -183 -78q-67 -23 -98 -49zM181 328q-16 -10 -45 -38q-15 -14 -43 -41l12 40q25 26 88 61.5t179 86.5v30l-58 12l-45 -9l6 21l57 3l58 -15l6 -42l-24 -33q-6 -3 -131 -51q-52 -20 -60 -25z
M560 313q6 8 20 38.5t22 44.5l-33 -88l-63 -49l-7 1zM560 611l20 -21q5 -9 8 -24t7 -33z" />
    <glyph glyph-name="three" unicode="3" horiz-adv-x="592" 
d="M173 178q0 -29 6 -41.5t19 -12.5q14 0 29 -0.5t31 -0.5q82 0 111 19.5t29 56.5q0 46 -20.5 60.5t-61.5 14.5q-9 0 -28.5 -1t-29.5 -1q-14 0 -22 -1.5t-16 -7.5l-3 126q16 0 44 -2t40 -2q35 0 51 13q20 17 20 59q0 26 -9 42t-33 16h-107q-21 0 -27 -13.5t-6 -36.5v-15
l-124 -1v67q0 62 39 95.5t103 33.5h40t41 1q140 0 186 -47q41 -42 41 -128q0 -53 -9 -76q-13 -32 -53 -54q44 -8 59 -61q10 -34 10 -93q0 -96 -22 -135q-31 -55 -119 -55l-188 3q-1 -1 -6.5 -1.5t-11.5 -1.5q-53 0 -85.5 29.5t-32.5 83.5l1 68l114 9v-9zM513 301l3 -11
l7 -25v43l-33 32zM242 247l7 11q2 -3 60.5 -4t60.5 -5zM507 628l-19 -14q8 -10 22 -30t22 -34q-8 29 -11 39q-10 26 -14 39zM532 443q-6 -12 -6 -20l-1 -29l-15 -13q1 3 7 11t6 10v1l1 5l2 19l1 16q0 10 -4 21q2 -4 5.5 -10.5t3.5 -10.5zM514 543l17 -35l1 42l-10 -12z
M537 489q-1 -7 -7 -17v20l1 16zM372 657q-43 0 -70.5 1t-50.5 2h-31.5t-38.5 -4q-27 -13 -41 -19q-45 -21 -48 -22q25 25 51 41q30 19 62 19q68 0 124 -4t144 -15q5 0 8.5 -6.5t5.5 -21.5q-16 10 -28 16q-23 13 -30 13h-57zM547 180q0 -8 -0.5 -19t-3.5 -25.5t-11 -29.5
q-21 -38 -23 -46l-8 -47q28 42 37 69.5t9 74.5q0 29 -3 55q-6 38 -8 55q7 -11 9.5 -22t2.5 -29q0 -9 -0.5 -18t-0.5 -18zM552 55q-10 -21 -16 -33.5t-16 -27.5h-20q5 3 15.5 14.5t13.5 18.5t15 41q9 27 16 45zM355 -35l92 21q-8 -1 -25 -1h-25h-15zM493 22l-4 -25l-42 -5
q9 3 24 13q8 6 22 17zM47 27l17 -27h33q-1 3 -20.5 21t-21.5 26q-5 30 -7 61.5t-2 64.5l-1 -82zM311 -11l-9 -3l-17 -2l-70 -7t-50 -3q50 -4 67.5 -4.5t37.5 -0.5q16 -2 33 -4q6 0 22 7.5t27 12.5zM121 -18l1 10l145 -5q-33 0 -85.5 -2.5t-60.5 -2.5zM206 504l-3 -18
q46 4 67 4.5t33 0.5l55 -12l-12 22q-5 -2 -11 -2h-9l-43 3l-25 -1zM362 149q-28 -8 -52.5 -12.5t-48.5 -4.5q-13 0 -23.5 0.5t-43.5 4.5q37 6 83 9t85 3zM54 463v-23q21 0 42 -1l42 -2q32 2 65 5v25l11 -32q-26 -9 -52 -10.5t-72 -1.5l-46 3q-1 14 -1.5 29.5t-0.5 24.5v31
q0 15 2 28.5t5 27.5l29 32q-14 -25 -19 -60t-5 -76zM213 251l14 1l18 -14l-38 1l-16 17q0 39 3 76.5t11 54.5q1 -4 1 -66.5t7 -69.5zM60 185h46q16 0 31.5 2.5t37.5 8.5l-24 9q-20 0 -52.5 -3t-51.5 -8zM358 430l-16 -24q-31 -6 -62 -11h-57l-12 11h33q10 0 23.5 0.5
t30.5 3.5l46 21l16 33z" />
    <glyph glyph-name="four" unicode="4" horiz-adv-x="711" 
d="M551 143l3 -59l-3 -80q-36 -4 -80 -4h-38q-26 3 -38 4q0 15 -1 46t-1 47v23q2 16 2 23q-31 -3 -78.5 -4t-53.5 -1q-37 0 -98.5 2.5t-73.5 2.5q-4 43 -4.5 61.5t-0.5 29.5q0 22 1 33.5t4 38.5q57 73 136 168q58 70 139 166q19 0 57 3t57 3q21 0 37.5 -1t33.5 -5v-367
q14 -6 38 -6q12 0 26 2t23 4v-130h-87zM401 388q0 55 -6 109q-37 -66 -77 -119t-93 -105q46 -4 63.5 -4.5t36.5 -0.5h18q13 0 26 1t26 4q6 57 6 115zM355 645l-55 -30q-3 -17 -58 -87q-47 -60 -107.5 -129t-79.5 -84q6 -12 9 -44t3 -64v-12q0 -41 -3 -62q8 11 16.5 94.5
t9.5 98.5q28 39 89 108q51 58 104.5 119.5t71.5 91.5zM378 453q5 -22 7 -55t2 -63l-14 17l-3 49q-22 -34 -50 -64q-38 -42 -63 -51q35 32 67 76.5t54 90.5zM324 133l54 -3l3 -28q0 -13 -3 -39t-3 -39q0 -12 3 -24l-23 35l12 41l-3 31q-107 0 -183 5.5t-94 15.5q54 0 88 1
q136 4 149 4zM557 670l14 -25l3 -362l-11 18q0 35 -3 109t-3 112q0 33 1 58t5 52l-12 13h-14q-53 0 -104 4t-58 15q44 0 95.5 2t86.5 4zM626 282h29l-8 -129l6 -19q5 28 9 62t4 63v40h-50l-25 -21q17 2 35 4zM566 12l-2 -23l23 11l-13 118l46 -2h40l-25 14q-8 2 -19.5 2
h-17.5h-36zM493 -13l48 13l11 -21l-17 -11h-14q-49 0 -96 6l-42 17q18 0 62.5 -2t47.5 -2zM53 120q0 24 2.5 63t2.5 46l-14 57z" />
    <glyph glyph-name="five" unicode="5" horiz-adv-x="604" 
d="M290 3q-121 0 -164 31q-51 37 -51 152q11 2 23 2h19h14l100 -2q0 -37 32 -48q18 -6 64 -6q34 0 49 30q12 24 12 61q0 46 -15 65q-18 22 -63 22q-25 0 -44.5 -5.5t-24.5 -22.5q-5 -1 -17 -2t-22 -1h-12l-114 3v358q44 0 118 2.5t89 2.5q56 0 143.5 -2.5t100.5 -2.5v-121
h-295l-2 -54l2 -37q19 7 39.5 10t42.5 3q129 0 177 -43q52 -47 52 -174q0 -136 -60 -182q-51 -39 -193 -39zM448 658q-47 0 -235 -7q-81 -3 -141 -3q41 15 111 18.5t167 3.5h170l30 -25q-26 4 -55 8.5t-47 4.5zM76 282l-7 -25q27 8 71.5 11.5t85.5 3.5l14 -12q-23 0 -94 -7
q-41 -4 -57 -4l-41 3q5 9 10 34.5t5 37.5l-12 271l9 34q0 -57 8 -173t8 -174zM500 511l26 -6l14 6q0 28 -1 56l-2 56q10 -14 15 -56q4 -48 5 -62l-8 -20q-48 0 -108 5q-145 12 -182 12q30 6 63 8t72 2q27 0 53.5 -0.5t52.5 -0.5zM245 466q59 0 112 -2.5t88 -10.5l86 -52
q14 -23 21.5 -59t7.5 -67q-9 -71 -17 -142q0 11 3.5 51t3.5 63q0 98 -24 134q-30 44 -127 64q-27 5 -44 6.5t-33 1.5h-54l-23 -8v21zM513 53q14 31 29 62l-13 -62l-96 -63l-231 -3l-98 22q-22 46 -40 97q-25 71 -20 101q22 7 46 7.5t43 0.5q3 0 44.5 -1t57.5 -1l-1 -13
l-20 -5q-4 0 -66 2t-89 2l16 -92q15 -66 42 -78q59 -26 106 -33q29 -4 111 -4q40 0 97 16q68 19 82 45zM273 143q-8 0 -19.5 15t-14.5 26l30 -25h72l20 29l1 24q0 23 -4.5 45t-15.5 37l32 -24l3 -76l-11 -34l-23 -18zM48 341l-10 184l7 24zM83 672l204 11q20 -3 40 -5z
M562 244l-10 -179l-6 19z" />
    <glyph glyph-name="six" unicode="6" horiz-adv-x="650" 
d="M309 3q-127 0 -183.5 52t-56.5 178v176q0 135 70 190q62 48 201 48q106 0 164 -38q70 -46 70 -146h-146q0 33 -19 49q-22 19 -84 19h-21q-46 0 -62.5 -23t-16.5 -71v-67q20 30 35.5 37.5t53.5 7.5h55q117 0 160 -34q51 -40 51 -153q0 -144 -66 -189q-52 -36 -205 -36z
M340 299h-32q-47 0 -65.5 -17.5t-18.5 -64.5q0 -46 19.5 -63.5t67.5 -17.5h29q46 0 65 14q23 17 23 61q0 51 -18.5 69.5t-69.5 18.5zM492 457q21 0 42.5 -1t43.5 -2l4 11l-14 94l-60 60l-116 31l21 1l119 -30q33 -51 46 -83q17 -42 17 -94l-134 -2l-33 3l1 10zM413 501
q-25 9 -54 16t-49 7q-14 0 -26.5 -2.5t-25.5 -4.5l-9 -12l119 3l39 -14l8 -52l6 1zM99 568l36 61l81 42h100q30 0 67 -5t72 -9h-176q-50 0 -102 -22q-61 -26 -78 -67zM63 373q0 -20 -3 -63t-3 -66v-31q3 -14 4 -20l-16 17q0 151 6 224t19 138l27 29q-19 -57 -26.5 -110
t-7.5 -118zM229 394l31 24q16 2 48.5 3t48.5 1h15l34 -3l-17 13q-16 2 -34 5t-31 3q-17 0 -43 -4t-42 -10l2 57q-13 -29 -13 -72q0 -12 1 -17zM123 31q46 -24 104 -33.5t118 -9.5q33 0 87 12.5t102 23.5l-155 -49q-187 0 -235 26q-65 35 -92 185q7 -38 26.5 -82t44.5 -73z
M237 196l13 -35q36 -7 59 -10.5t49 -3.5l51 18l-141 8q-11 10 -16.5 42t-5.5 53q-4 -27 -5 -36q-4 -27 -4 -36zM388 282l32 -64q-11 14 -35 36q-16 15 -21 16l-64 11l-32 5zM555 38q11 25 22.5 87.5t11.5 90.5q0 26 -2 47q-7 75 -7 80q-17 32 -69 50q-65 23 -81 36l122 -35
l55 -70l-18 -267q-18 -23 -48 -39q-12 -6 -58 -26z" />
    <glyph glyph-name="seven" unicode="7" horiz-adv-x="658" 
d="M313 4h-173l251 508h-313v128h488v-124zM562 656q-12 0 -204.5 2t-275.5 2l36 10q60 0 299 -7q102 -3 179 -3l-5 -128l-11 -12l-6 125zM55 607l3 55q6 -14 8 -56t2 -97q-7 49 -13 98zM355 506l16 -9q-20 -45 -47 -93.5t-53 -94.5q-31 -57 -47 -96q-24 -64 -33 -87
q-15 -37 -49 -88q0 21 44 121q29 65 88.5 189t63.5 132l-35 7q-28 0 -85 -4t-85 -4l-69 1l13 20zM126 46l13 -59h167l4 -14l-197 8zM506 369l16 -3q-51 -116 -92 -196q-55 -109 -110 -187zM600 554q-5 -43 -9 -85q-4 -16 -48 -102q-27 -54 -54 -107q8 22 22 61q11 31 21 63
l-13 4l46 80q27 50 35 86zM472 225l18 15q0 -40 -61 -141q-24 -39 -47 -77l-27 -22q33 51 63 110q25 49 54 115zM251 326l21 89l36 39zM129 76v38l107 188z" />
    <glyph glyph-name="eight" unicode="8" horiz-adv-x="672" 
d="M322 3q-121 0 -174 40q-61 46 -61 164q0 63 26 92t88 37q-63 10 -83 37.5t-20 96.5q0 85 44 127q53 50 207 50q123 0 166 -27q59 -37 59 -150q0 -69 -16 -93q-19 -29 -82 -41q71 -8 92 -47q16 -30 16 -109q0 -123 -75 -157q-44 -20 -187 -20zM333 538q-89 0 -89 -81
q0 -44 27 -62q22 -15 69 -15h24q40 0 52.5 12.5t12.5 64.5q0 58 -17 69.5t-79 11.5zM333 277q-55 0 -66 -5q-24 -11 -24 -57q0 -65 17.5 -82.5t79.5 -17.5q47 0 68 18t21 65q0 46 -24 62.5t-72 16.5zM120 584l-7 30q20 13 70 32.5t68 19.5q12 0 28.5 0.5t36.5 0.5
q37 0 67 -3t34 -11q-27 4 -43 4h-29q-50 0 -98 -6.5t-89 -18.5zM380 678l26 3l30 -10l16 -26q-10 7 -20.5 15t-18.5 12zM559 603q-38 38 -94 50l36 5l85 -75q2 -14 4.5 -27.5t2.5 -28.5q0 -17 -3 -51t-3 -50q1 8 1 29q0 40 -7.5 82.5t-21.5 65.5zM564 339l-46 -3
q26 16 36 25q18 15 28 36zM260 440q0 10 2 31t2 31l15 -88q27 -2 54.5 -8t49.5 -16h-39q-18 0 -39 2.5t-32 7.5l-13 40v0zM351 524l46 -10q-34 -5 -57 -7.5t-50 -2.5l-3 14q20 2 40.5 4t23.5 2zM87 423q0 -8 13.5 -33.5t21 -32t15.5 -10.5q14 -8 16 -9q-6 -9 -27 -22
q-9 -5 -17 -10l4 19l-37 88q0 26 7 103q4 44 4 62l17 11q-7 -40 -12 -84.5t-5 -81.5zM71 192l25 -125l96 -67l-27 -10l-59 39l-55 156l43 110zM199 -15l8 7l130 1l28 -10zM319 -27q43 0 119 18q89 21 110 44l-37 -35q-4 -2 -45 -15q-85 -26 -89 -26q-90 0 -136 5t-85 15
q27 0 81 -3t82 -3zM577 312l2 17l40 -160l-60 -169q4 27 23 94q14 51 14 97q0 23 -13 85q-6 28 -6 36zM541 9l-8 -26l-39 -4zM337 263q9 0 23.5 -2.5t23.5 -3.5l20 -17q-59 9 -62 9q-33 4 -62 4q4 1 26 5.5t31 4.5zM277 165q-7 26 -13 53q11 -18 16 -30q1 -3 16 -53l-19 30
v0zM371 146l45 38q-12 -29 -38 -48l-47 -10l-16 13zM414 427l-15 39l9 21z" />
    <glyph glyph-name="nine" unicode="9" horiz-adv-x="672" 
d="M92 187q20 3 40 3h12l94 -3q0 -41 23 -56q19 -12 61 -12q69 0 88 46q13 70 21 115q-26 -27 -58 -36t-77 -9q-117 0 -160 34q-50 39 -50 153q0 145 59 189q48 36 202 36q166 0 212 -71q34 -53 34 -235q0 -197 -41 -258q-54 -80 -237 -80q-120 0 -166 32q-57 39 -57 152z
M315 524q-46 0 -61.5 -19t-15.5 -66q0 -50 13 -64t64 -14h33q49 0 68 11q26 15 26 60q0 92 -97 92h-30zM276 656q-18 0 -56 -8q-19 -4 -56 -12l140 40q23 0 90.5 -4.5t87.5 -26.5q-51 7 -100 9t-106 2zM575 580q-19 22 -44.5 44.5t-52.5 41.5q22 -6 50 -25t45 -37l2 -24v0z
M105 581l-13 13l80 72zM276 495l-7 -67q22 -15 37 -27q3 -3 34 -28q-20 2 -40.5 9.5t-40.5 18.5l-7 55zM390 509l27 -30l5 -87q-9 29 -13 43.5t-10 25.5l-31 35l-53 16zM403 388l4 -10l-57 3zM80 329l19 -35l-35 28l16 250v-243zM130 266l77 -35l130 -6q28 5 57 10l12 -22
l-175 -2l-126 51l-13 22zM234 199l-138 -6l-6 15zM252 188l40 -37q11 -6 28 -12t33 -11q-19 0 -41 2t-36 6zM87 92l31 -52l85 -40l-106 25q-23 83 -23 175q6 -54 13 -108zM420 -13l84 28l-2 -28q-32 0 -76 -3q-103 -7 -128 -7q-27 0 -73 8t-86 15q42 0 105 -4q141 -9 176 -9
zM586 124l10 68l7 -20l-21 -77q-5 -9 -26 -36q-26 -33 -29 -37l-14 6q31 40 51.5 66.5t21.5 29.5zM593 545l-16 19l21 13l18 -356l-17 -5zM611 578l11 -23l-1 -369z" />
    <glyph glyph-name="colon" unicode=":" horiz-adv-x="320" 
d="M70 16v156q24 -4 45.5 -6t47.5 -2q41 0 89 8q4 -16 5 -30.5t1 -34.5q0 -19 -2 -45t-4 -46h-182zM178 5l100 -3l-195 -23l-28 16q18 0 45 3q62 7 78 7zM57 82q0 -13 3 -39t3 -39l-13 -5q-7 31 -10 77t-3 82q4 2 11 7.5t10 6.5zM284 17l-16 8l1 80q0 16 -2.5 43.5
t-2.5 32.5l24 10zM277 200q-60 -12 -119.5 -17.5t-128.5 -5.5l32 21l63 -1zM163 319q-45 0 -90 -6q6 39 6 77q0 39 -6 78h182v-155q-47 6 -92 6zM181 302q17 0 56.5 -2t42.5 -2l-194 -22l-28 15q41 5 70 8t53 3zM60 379q0 -13 3 -39t3 -39l-13 -5q-7 31 -10 77t-3 82
q6 2 13 8t8 6zM286 314l-15 8l1 79q0 12 -3 38t-3 39l24 9q0 -29 -2 -98.5t-2 -74.5zM280 497q-53 -14 -114 -18.5t-134 -4.5l32 21l63 -1z" />
    <glyph glyph-name="semicolon" unicode=";" horiz-adv-x="318" 
d="M59 -137v87q47 0 59 17q9 12 9 62h-41q6 44 6 87q0 47 -6 95q16 -3 40.5 -7t52.5 -4q21 0 40 2.5t47 8.5v-202q0 -96 -59 -126q-39 -20 -148 -20zM238 -122l42 -4l-191 -38l-22 13zM69 15q-6 29 -9.5 55t-13.5 121q3 5 10 12t14 12zM306 120q0 -7 -11 -65
q-14 -72 -28 -145q10 87 15.5 137t5.5 69q0 16 -2.5 43.5t-2.5 32.5l14 10l6 -48t3 -34zM275 242l19 -30q-67 0 -125.5 4.5t-118.5 15.5l106 -1q22 0 55.5 3.5t63.5 7.5zM50 -124q0 -7 2 -23t2 -24q-9 42 -11 52q-7 28 -16 52q3 5 10 12t14 12zM73 313v155q44 -4 59.5 -4.5
t33.5 -0.5q39 0 89 5q0 -11 1 -35.5t1 -37.5q0 -14 -1 -41.5t-1 -40.5h-182zM181 302q17 0 56.5 -2t42.5 -2l-194 -22l-28 15q41 5 70 8t53 3zM60 379q0 -13 3 -39t3 -39l-13 -5q-7 31 -10 77t-3 82q6 2 13 8t8 6zM286 314l-15 8l1 79q0 12 -3 38t-3 39l24 9q0 -29 -2 -98.5
t-2 -74.5zM280 497q-53 -14 -114 -18.5t-134 -4.5l32 21l63 -1z" />
    <glyph glyph-name="less" unicode="&#x3c;" horiz-adv-x="434" 
d="M72 203v92l266 181v-125l-157 -100l157 -101v-125zM69 314l7 16l276 164zM63 206l-16 124h19zM40 297l29 -108l216 -152l-238 155zM344 4q-25 9 -120 78q-50 36 -123 91l236 -156l20 9zM356 171l26 -131l-30 3zM344 176l-5 -10l-123 86zM226 264q38 25 57 37q46 28 57 28
l-91 -86zM349 474l18 3l15 -136l-29 5z" />
    <glyph glyph-name="equal" unicode="=" horiz-adv-x="503" 
d="M73 293v125q63 0 212 -2t159 -2l2 -63v-15v-26q-3 -13 -4 -17h-369zM429 421h-82h-42q-134 0 -182 2t-55 6q69 0 139 3q209 9 232 9zM71 270l-21 1l2 155l13 -1l-4 -129zM73 279q38 0 115 -8t115 -8q23 0 69 2t69 2l-12 17zM464 284l-12 -13l3 100v18v32q-3 14 -4 20
l15 -12q1 -18 3.5 -42.5t2.5 -29.5q0 -13 -3 -34t-5 -39zM446 217v-124q-93 0 -186 1l-186 2l-2 63q0 14 0.5 28.5t3.5 29.5h370zM451 81q-39 0 -131 -2t-98 -2h-30q-44 0 -65.5 1.5t-36.5 10.5q99 0 224.5 -0.5t136.5 -7.5zM447 240h22l-1 -164l-13 -12l2 150zM445 232
q-32 0 -143 10q-55 5 -87 5q-23 0 -69 -2t-69 -2l12 -17zM55 227l12 13q0 -19 -2 -63t-2 -47q0 -15 0.5 -30t3.5 -31l-14 -5q0 15 -2 33q-5 45 -5 56q0 16 3 35.5t6 38.5z" />
    <glyph glyph-name="greater" unicode="&#x3e;" horiz-adv-x="416" 
d="M338 295v-92l-266 -181v125l157 100l-157 101v125zM341 184l-7 -16l-276 -164zM347 292l16 -124h-19zM370 201l-29 108l-216 152l238 -155zM66 494q25 -9 120 -78q50 -36 123 -91l-236 156l-20 -9zM54 327l-18 158l22 -30zM66 322l5 10l138 -89zM184 234q-37 -25 -57 -37
q-46 -28 -57 -28l87 65h27zM61 24l-18 -3q0 31 3.5 63t10.5 68zM82 -5q16 24 118 81q53 30 133 72z" />
    <glyph glyph-name="question" unicode="?" horiz-adv-x="502" 
d="M288 293q-1 -4 -1.5 -14.5t-0.5 -16.5v-31h-185v57q0 87 110.5 120t110.5 65q0 35 -17 45t-55 10h-18t-18 1q-29 0 -51.5 -4.5t-39.5 -18.5q-56 39 -101 84q46 56 94 73q37 13 114 13h46q105 0 146.5 -40.5t41.5 -146.5q0 -104 -51 -144q-63 -26 -125 -52zM100 6v156h182
v-156h-182zM208 -5l100 -3l-195 -23l-28 16q18 0 45 3q62 7 78 7zM89 72q0 -13 3 -39t3 -39l-13 -5q-7 31 -10 77t-3 82q4 2 11 7.5t10 6.5zM312 7l-16 8l1 70q0 18 -2.5 49t-2.5 37l24 10zM313 190q-51 -14 -116 -18.5t-138 -4.5l32 21l63 -1zM123 504q28 9 54 14t55 5
l37 -2q-41 -5 -65.5 -10t-51.5 -15zM267 228q-29 -4 -49 -6t-38 -2q-16 0 -43.5 2.5t-32.5 2.5zM304 275l22 23l66 19l54 54l-65 -75l-52 -12l-29 -50zM87 244l-12 -22l-3 81l17 27l33 55q5 5 13 9q13 7 15 8q48 28 81 38q40 10 81 21l-27 -23q-51 0 -113 -36.5t-90 -78.5z
M161 687q-22 0 -81 -36q-52 -32 -73 -53q17 -28 47.5 -57t58.5 -40q-35 0 -84 55q-14 16 -35 42q65 61 78 70q42 30 151 30q41 0 100.5 -10t82.5 -27q-43 13 -81 19.5t-76 6.5h-88v0zM455 611q-4 8 -21 30q-12 14 -23 29l47 -36l14 -85l-17 62v0zM437 336q28 32 36 101
q4 38 11 111q0 -8 2.5 -49t2.5 -65l-20 -73zM318 483l-52 24l28 3z" />
    <glyph glyph-name="at" unicode="@" horiz-adv-x="982" 
d="M727 178q3 0 13.5 13t26.5 26l3 46q0 190 -57 277q-73 109 -248 109h-29q-22 0 -39.5 1t-35.5 9q-87 1 -138 -96q-44 -80 -44 -171q0 -184 12 -234q34 -133 280 -133q53 0 128 14t108 38l44 -54q-53 -49 -126 -72t-152 -23q-210 0 -303 93.5t-93 312.5q0 189 105.5 299
t294.5 110q182 0 300.5 -112t118.5 -293q0 -102 -36 -158q-44 -68 -143 -68q-86 0 -112 74q-45 -69 -64 -84q-37 -25 -108 -25q-103 0 -155 82q-44 72 -44 181q0 118 59 171.5t176 53.5q48 0 83 -30q25 -17 62 -69l3 52h81q-6 -60 -12 -107q-20 -124 -20 -181q0 -24 17 -38
t44 -14zM465 443q-66 0 -102 -35.5t-36 -99.5q0 -54 36 -84.5t91 -30.5q140 0 140 133q0 58 -36 87.5t-93 29.5zM888 492q29 -94 34 -116q14 -60 14 -114q0 -12 -1.5 -24.5t-1.5 -21.5q-9 104 -31 196q-30 124 -74 179q-36 45 -74 91q-78 29 -158 57q25 -5 44.5 -7t94.5 -11
q65 -60 82 -77q38 -44 71 -152zM585 756q-74 0 -164 -9t-176 -19q29 11 86 25.5t81 14.5q28 0 87 -6t86 -6zM159 682q30 9 72.5 21.5t65.5 18.5l-110 -48q-1 0 -10 2t-18 6zM226 536q24 59 65 76q10 6 108 18q-17 -12 -55 -22t-52 -21zM433 605l14 -10l-28 -3zM906 214
q-8 -56 -32 -84q-35 -35 -71 -68q-3 7 18 36q12 18 23 34q30 43 44 74q12 38 27 80q-6 -37 -9 -72zM622 -96q30 29 68 56q49 31 126 76v-49q-35 -26 -99 -55q-30 -17 -96 -48q-19 3 -98 3q-32 0 -83 -1t-61 -2l59 37zM342 -116q-60 34 -119 66q-47 27 -101 92l-2 -47
q8 -2 29 -15q31 -20 63 -27t91 -19.5t64 -15.5zM288 57q-25 22 -32 32q-25 31 -32 63q50 -45 103 -87l169 -26q-5 0 -18 -1.5t-24 -1.5h-26q-23 0 -78 5.5t-62 15.5zM603 612q10 -1 35 -14q12 -6 36 -16l-62 -7q-31 18 -60 28.5t-108 31.5q40 -5 83 -9.5t76 -13.5zM438 243
q62 0 139 32q-32 -62 -91 -62q-51 0 -74.5 6t-63.5 31q16 -1 38 -4t52 -3zM196 410q0 12 4.5 40t8.5 68h24q0 -23 -13 -91q-10 -29 -10 -48q0 -18 7 -90.5t7 -110.5q-10 7 -14.5 38.5t-5 51.5t-4.5 33.5t-4 18.5v90zM57 337q0 -69 15 -152q5 -16 16 -43q2 -10 18 -39l10 -15
q0 -41 -13 -73q-41 75 -51.5 161t-10.5 214q0 102 21 164q31 93 110 93q-53 -36 -82 -98q-33 -73 -33 -212zM530 43q38 9 56.5 25.5t18.5 48.5v12l34 -39h39l-11 -20zM367 390q12 16 44.5 26t56.5 10q40 0 78 -21t38 -64v-8q-43 70 -134 70q-24 0 -53 -25q-26 -26 -49 -52
q4 23 9 35.5t10 28.5zM688 214q0 68 6 139.5t14 140.5q0 -78 3.5 -139.5t14.5 -121.5z" />
    <glyph glyph-name="A" unicode="A" horiz-adv-x="638" 
d="M434 21l-36 140h-178l-38 -140h-129l155 582h200l155 -582h-129zM308 493l-64 -236h128zM261 632q4 0 29 -2.5t39 -2.5q13 0 25.5 0.5t25.5 0.5h18l-1 -14q-4 0 -64.5 -2t-87.5 -2h-56q10 3 20 8q15 8 16 13q6 1 15 1h21zM416 618l25 -12q13 -62 19 -93q12 -56 24 -93
q-24 58 -38 98q-19 54 -30 100zM542 120l-4 -9q-1 13 -2 27q0 94 -24 164q-10 29 -41 102l21 8q13 -78 23 -120q5 -22 50 -195zM565 82q8 -21 21 -40q21 -31 24 -35l-23 4q-3 8 -9.5 23t-8.5 24.5t-4 23.5zM178 586l15 8q-22 -78 -47 -165q-28 -97 -49 -165q-9 -29 -52 -166
q29 123 63 245q10 37 70 243zM316 159q19 0 43 -4q8 -1 25 -4l-4 10q-64 0 -94 -11q-7 -3 -61 -26l12 32zM22 22q19 24 52 155q21 87 42 175l-76 -347zM156 563l6 4q-17 -64 -37.5 -136t-44.5 -148q15 71 31 142q22 89 45 138zM384 124q8 1 22.5 -56t22.5 -57h40t44 1
q29 0 46.5 -1t34.5 -6q-11 -7 -36.5 -9t-44.5 -2l-112 3q-3 -1 -3.5 3t-0.5 14v15q0 14 -4 39.5t-9 55.5zM214 107q4 -13 4 -32q0 -12 -1 -26t-1 -15l3 -31h-41q-25 0 -83 2t-62 2q93 0 168 8q3 10 4 27t1 19q4 2 6 22.5t2 23.5zM346 370l-27 55l24 -93zM358 270l-12 -5
l-1 19v6l1 11zM308 461l-42 -191l67 1l2 -9h-80z" />
    <glyph glyph-name="B" unicode="B" horiz-adv-x="683" 
d="M429 -3q-50 0 -134.5 2.5t-101.5 2.5q-29 0 -58.5 -1t-59.5 -4q0 55 2 100q7 156 7 169q0 78 -2 141q-7 221 -7 237q74 -9 147 -9q35 0 64 2q100 7 107 7q96 0 137.5 -38.5t41.5 -134.5v-20q0 -53 -13 -76t-39 -34q53 -7 72 -56q13 -33 13 -98q0 -104 -35 -145
q-39 -45 -141 -45zM365 515h-134q3 -8 4.5 -23t1.5 -31t-0.5 -34t-5.5 -27q13 0 44.5 2t34.5 2q9 0 27 -2t28 -2q27 0 39.5 14.5t12.5 42.5q0 27 -12.5 42.5t-39.5 15.5zM311 277q-41 0 -80 -6q9 -36 9 -74q0 -41 -9 -71q36 -4 82 -4h27q53 0 76 11q34 17 34 66q0 50 -36 67
q-23 11 -79 11h-24zM598 290l10 18l-44 32q9 -12 19 -24q14 -19 15 -26zM254 247l12 4l1 -3q0 -12 -12 -57q-6 -22 -6 -35zM561 625l-1 3l-22 -14q30 -29 55 -64q-16 37 -32 75zM611 399v-19q0 -7 -1 -10l-7 -13q4 14 4 22q0 6 -7.5 31t-9.5 31q11 -15 16 -25t5 -17z
M569 543l21 -35l3 42l-14 -12zM598 489l-8 -17v36zM62 663q32 6 72 9t74 3q54 0 132 -10q172 -22 220 -22l-53 22q-28 -8 -77.5 -11.5t-112.5 -3.5q-30 0 -65 0.5t-75 1.5q-21 0 -53.5 3.5t-61.5 7.5zM635 183q0 -8 -0.5 -18t-3.5 -24.5t-28 -52.5q-13 -20 -15 -28l-10 -47
q42 83 45 90q12 32 12 59t-4.5 54.5t-8.5 55.5q8 -9 11 -23t3 -29q0 -9 -0.5 -18.5t-0.5 -18.5zM644 55l-6 -9q-2 -4 -4 -10q-5 -22 -6 -23l-13 -19h-6q7 9 11.5 22t11.5 46q1 8 7.5 21t14.5 30zM431 -40l80 26h-40.5t-40.5 -1zM576 15l-13 -18l-52 -5q9 4 27.5 10.5
t37.5 12.5zM62 -2q0 157 -1 314l-2 314h13q0 -89 -7 -201t-14 -232.5t-7 -193.5l9 8zM434 -30l4 -18l-57 7zM34 299v-14q0 -85 -1.5 -148t-6.5 -70l27 2q-11 35 -17 103.5t-6 117.5l1 85zM341 -11q-18 -6 -67.5 -10.5t-77.5 -4.5q80 0 146 -11l-11 13zM51 -21l1 10l144 -5
q-33 0 -85 -2.5t-60 -2.5zM302 501l-55 3l-3 -27l55 13q21 0 49 -4t54 -7l-6 18l-9 5l-13 -1l-37 2zM358 146l4 -8l-42 -2q-15 0 -34 1.5t-29 2.5q25 4 47.5 5t53.5 1zM243 409h139l-128 9l1 40l-11 3zM406 254l34 -36l-8 -61l-24 -16l15 45l-14 53l-123 23z" />
    <glyph glyph-name="C" unicode="C" horiz-adv-x="747" 
d="M409 1h-71q-169 0 -222 86q-40 65 -40 252q0 165 40 230q53 86 204 86h104q144 0 193 -41q56 -47 56 -186q-17 3 -31 3q-15 0 -45 -3t-46 -3l-39 3q0 55 -35 74q-24 13 -81 13h-41q-73 0 -100 -41q-21 -32 -21 -102q0 -26 1.5 -68t1.5 -43q0 -88 39 -108q23 -12 124 -12
q48 0 66 5q46 13 46 80q10 3 25.5 6t25.5 3q15 0 45 -5t46 -5q12 0 19 1q0 -145 -61 -189q-49 -36 -203 -36zM475 686q84 -15 155 -34q14 -22 24.5 -47t10.5 -44l-35 67l-79 31q-32 4 -47.5 4h-36.5h-85q23 3 48 8q36 8 45 15zM712 394q-11 0 -48 10q-18 5 -30 5
q-6 0 -13.5 -1.5t-18.5 -5.5q-38 4 -60 7t-24 7l100 3h33t35 -3l-2 176q5 -47 13 -94.5t21 -103.5h-6zM699 97l-27 5l7 13q1 2 1 20v30q0 20 5 41.5t11 42.5l3 -113v-39zM188 659q3 1 14.5 7t15.5 6l3 -4q5 0 15.5 5.5t15.5 7.5t37 3.5t61 1.5l-82 -15zM378 672l-21 -8
l-42 3q29 9 59 18l52 3q-12 -3 -21.5 -5.5t-26.5 -10.5zM251 364q0 12 2.5 22.5t7.5 24.5v-11q0 -3 7 -47q2 -13 2 -28v-122l-19 91l4 13q0 2 -2 25t-2 32zM267 483l18 14q-8 -18 -8 -36v-7l-15 -30zM277 181q4 -1 22 -7q24 -6 37 -6l73 15q6 1 22 4h35l31 54
q-8 -23 -10 -32q-5 -19 -5 -32l2 -5l3 1q-93 -9 -186 -17zM698 72q-15 -14 -36.5 -28t-38.5 -20q9 8 28 24q11 10 25 26zM592 -3l-33 -1l60 24q-7 -5 -14 -10.5t-13 -12.5zM45 472l-3 99l35 50q22 5 36 17q21 23 43 47q7 7 39 10t87 5q-22 -5 -45 -10.5t-43 -11.5
q-39 -14 -83 -49q-53 -42 -57 -76zM163 -16q-59 60 -87 164q-22 83 -22 187q5 -35 15 -101.5t26 -110.5q3 -9 10 -28t14 -30l36 -48zM54 353v63q0 9 11 60t29 124q6 4 39.5 26.5t34.5 30.5l21 -18q-14 -2 -41 -19q-19 -12 -37 -27q-4 -21 -10.5 -42t-14.5 -37q0 -1 -7 -10
q-3 -5 -4 -9zM514 -8q13 0 19 -2q-47 -10 -102.5 -21.5t-81.5 -11.5q-30 0 -71.5 6t-70.5 14l-16 23l131 -17q6 -1 20.5 1t17.5 2q2 0 23.5 -2t29.5 -2q13 0 64 7q22 3 37 3zM53 208q7 -12 13 -56q2 -19 6 -23l11 -14l-1 -4l4 -8q10 -14 13.5 -37.5t6.5 -44.5l45 -50l-53 41
q-16 44 -30 88q-17 55 -41 151zM625 236q-15 0 -41.5 2.5t-56.5 5.5q15 8 79 11.5t65 3.5l-14 -15zM425 500l63 -23l6 -24q-48 22 -97 34.5t-98 12.5h126z" />
    <glyph glyph-name="D" unicode="D" horiz-adv-x="704" 
d="M211 1l-125 3l2 54q0 55 -4 135q-9 181 -9 227q0 52 3 113t8 118l69 3q42 0 108.5 -2.5t76.5 -2.5q188 0 241 -46q60 -52 60 -238v-74q0 -189 -72 -247q-54 -44 -214 -44h-17h-15h-13h-12h-37t-38 1h-12zM486 356q0 72 -20 112q-28 55 -92 55h-132q6 -42 7.5 -98t1.5 -78
q0 -80 -1.5 -114.5t-7.5 -99.5h135q51 0 77 32q32 39 32 135v56zM669 556l-94 82q14 -5 29 -9.5t26 -10.5q19 -31 39 -62zM661 213q0 19 2 39.5t7 25.5l2 -82t1 -81v-39l-27 5q3 9 11 29q1 4 11 50q-3 10 -5 19.5t-2 14.5v19zM351 674q64 0 124 -8t120 -24l-24 21
q-12 0 -91.5 2.5t-130.5 2.5q-72 0 -143.5 0.5t-142.5 0.5l52 16q6 0 18 -3t17 -3q14 0 70 7q24 3 41 3q12 0 43 -7.5t47 -7.5zM653 535q1 -15 2.5 -28.5t1.5 -31.5v-103q0 -166 -15.5 -239.5t-54.5 -120.5l24 -9l30 124q11 58 11 149v123q0 29 -2.5 82.5t-4.5 62.5zM658 52
q-4 -7 -20 -32q-26 -43 -38 -53l27 48q14 26 21 51zM586 -21l-6 -2l11 13zM568 14q-5 -1 -77 -22q-22 -7 -46 -10l-149 -23l61 19q6 2 27.5 3t24.5 1q33 4 72 10.5t82 13.5zM61 16l-9 -8q0 73 6 196t12 236.5t6 205.5h-11l4 -638zM26 4q9 59 12.5 112.5t3.5 123.5l-2 272
l24 -78q-16 -53 -19 -69.5t-3 -41.5v-68q0 -22 -0.5 -45.5t-0.5 -49.5q0 -16 2.5 -71.5t9.5 -82.5zM76 -7q4 0 70.5 -2t95.5 -2q-37 -5 -83 -8t-128 -3zM300 -18h29q-7 -2 -17 -4t-17 -2h-95q16 4 38 5t50 1h12zM265 324q0 53 3.5 100t11.5 93l2 -22q0 -49 -12 -215
q-6 -83 -6 -130q4 20 4 45q0 19 -1 38.5t-2 39.5v51zM480 224l-12 123q-1 -1 -1.5 -17.5t-0.5 -27.5v-48q0 -18 -23 -58q-18 -29 -35 -58zM410 508l42 -41q-11 9 -17 13q-14 10 -20.5 13.5t-45 10t-68.5 10.5zM286 144l7 16l100 -10l-7 -10z" />
    <glyph glyph-name="E" unicode="E" horiz-adv-x="597" 
d="M410 12q-82 0 -164 1l-164 2q0 36 -3 111t-3 113q0 60 3 179t3 179h417l10 -116h-271q4 -20 4 -45q0 -15 -1.5 -33.5t-2.5 -28.5h270q-1 -13 -1.5 -22.5t-0.5 -16.5q0 -12 1 -38t1 -39l-67 3q-50 0 -101 -1l-102 -2q2 -17 4 -36t2 -35q0 -28 -6 -55q24 4 58.5 6t65.5 2
q27 0 87.5 -4t78.5 -4v-117q-29 0 -59 -1t-59 -2zM561 146q-2 -5 -5 -14t-3 -19q0 -8 2 -27.5t2 -20.5l-2 -68q-9 38 -15.5 75t-6.5 68zM534 473l12 8l-18 53l-7 12zM509 597l1 3l11 -54q-1 10 -5 25.5t-7 25.5zM540 368l-16 12q0 -36 -3.5 -64t-12.5 -58l27 -4
q0 42 -1.5 60t-7.5 52zM333 482l-76 -18h238q-5 2 -84 10q-26 2 -78 8zM534 456l1 -10l-50 18zM469 588l49 25q-41 0 -123 1t-123 1q84 -9 135 -15.5t62 -11.5zM84 602l-2 -3l-1 8l195 -10zM531 604l30 -4l-11 15q-3 -11 -15 -43q-6 -18 -9 -26l-2 -6zM331 408q16 0 24 -2
l12 -3l123 -28h-40h-18q-11 0 -23 0.5t-27 3.5l-60 29q-8 1 -20 1.5t-24 0.5q7 -2 13.5 -2h13.5h26zM255 389l-3 18q42 -4 84 -17q-20 0 -40.5 -0.5t-40.5 -0.5zM401 162l3 -24q38 8 77 8l66 -3q4 -8 9 -15t11 -14q-39 22 -82.5 35t-83.5 13zM323 166q8 0 20.5 -3.5
t27.5 -7.5l-112 -18l-1 5v16q20 3 38 5.5t27 2.5zM71 338q-13 40 -18.5 79.5t-5.5 87.5q0 29 5 63q2 16 7 38l-27 -1q11 -34 13 -86.5t2 -140.5l-3 -43zM46 18l11 8l10 -9q0 53 3 159t3 159q0 41 -3 124t-3 124h14q0 -149 -8 -284.5t-27 -280.5zM484 1q40 0 81 -6l-1 24
q-67 -19 -247 -28q-126 -6 -256 -6l-51 3q72 0 177 4q236 9 297 9zM30 427q10 -103 20.5 -215.5t10.5 -195.5l11 12l-11 -2v45.5t1 49.5q0 131 -8 198.5t-24 107.5zM380 616q-55 0 -100 -2q-157 -7 -169 -7l-50 3q80 8 163.5 10.5t199.5 2.5h120l-36 4q-20 0 -80 -7
q-34 -4 -48 -4zM522 249l-10 -9l-252 -3l-6 10z" />
    <glyph glyph-name="F" unicode="F" horiz-adv-x="597" 
d="M386 536q-25 0 -76 -3t-77 -3v-133q25 4 59 6t66 2q62 0 131 -8v-129h-256v-269h-155q0 68 -3 204t-3 204q0 40 3 119t3 119h446v-115q-69 6 -138 6zM543 631q3 -12 12 -38q10 -36 10 -63q-6 -3 -17 -11.5t-11 -11.5q9 43 12.5 67.5t3.5 57.5zM527 380
q-7 -19 -10.5 -38.5t-6.5 -43.5l-10 86zM533 262h-12v10v25t2 27q0 -12 4.5 -33.5t5.5 -28.5zM50 671q2 -22 6 -66.5t7 -68.5l-6 128q27 0 80 -3t80 -3h115q97 0 224 12l-40 -29zM246 418v79l12 21zM278 476l-6 -54l-18 45zM460 242l-56 -1q-23 0 -41 2t-59 7l56 14z
M494 255l4 -12l-27 9l-11 3h34zM246 125v42q0 21 1 43.5t4 43.5l20 -3q0 -28 -9 -76.5t-10.5 -61.5t-2.5 -37t-1 -44v-26q0 22 -0.5 51.5t-1.5 67.5zM44 -3q0 116 2.5 295.5t2.5 206.5q0 24 -4 61.5t-7 71.5h24q0 -147 -10 -298.5t-28 -335.5l10 9zM57 8q7 36 9.5 72.5
t2.5 107.5v26q0 18 -4 61q-7 76 -7 101v100l18 -54q0 -11 -3.5 -43t-3.5 -48v-111q0 -44 5 -106t10 -107zM103 -12q11 0 57 -5q18 -2 34 -2l58 3l-97 -11q-14 -2 -26.5 -4.5t-26.5 -2.5q-12 0 -28.5 2t-38.5 5l55 17zM523 518l-250 6h47.5t61.5 1q65 0 99.5 -1.5t41.5 -5.5z
M478 404q-20 0 -88 4t-99 4l230 4l6 -12h-49z" />
    <glyph glyph-name="G" unicode="G" horiz-adv-x="734" 
d="M408 3h-70q-142 0 -207 94q-56 81 -56 230q0 166 40 236q54 94 204 94h101q107 0 175 -49q77 -55 77 -158h-163q-7 42 -48 57q-28 10 -81 10h-26q-71 0 -95 -38q-18 -29 -18 -105v-78q0 -99 29 -125.5t129 -26.5q79 0 97 23q15 19 15 100h-114v125q31 0 94 -3.5t86 -3.5
q50 0 95 7v-164q0 -124 -72 -178q-63 -47 -192 -47zM630 644l45 -62q6 -19 12 -72q3 -29 8 -74q1 4 -10 10t-11 9q0 2 2.5 13t2.5 17q0 17 -19 57.5t-32 48.5q5 13 13 21q-4 3 -13.5 6t-13.5 5zM562 651l-75 18l-42 -2t-42 -1h-13.5t-13.5 1l-154 14l282 -5zM612 641v-6
l-39 7zM699 327l-3 -17q-4 -20 -7 -54.5t-6 -61.5v8q0 26 2.5 69.5t2.5 52.5q0 15 -2 27t-3 19q3 -9 7.5 -21t8.5 -22zM347 495h36q34 -14 72 -28.5t66 -19.5l105 -4l52 -2l-24 -14q-39 3 -84 6.5t-68 10.5q-4 1 -40 27t-42 28l-46 4l-23 2zM170 647q-15 -12 -45 -43
q-22 -23 -44 -45q25 46 50 93l84 15zM366 264q0 24 2 81.5t2 61.5l16 -4l-1 -19q0 -19 1 -57t1 -58l80 -28l32 -59l-6 56q-1 10 -21.5 13.5t-53.5 3.5q-12 0 -21.5 -0.5t-16.5 -0.5q-14 0 -14 10zM612 19q14 0 20 13q15 35 25 70.5t15 72.5l25 -10l-8 19q-3 -7 -7.5 -22
t-9.5 -32q-19 -57 -23 -63q-9 -15 -52 -50q-4 -4 -13.5 -6t-17.5 -2l25 14q12 -4 21 -4zM267 248q0 5 -2 75t-2 99v12q0 20 4.5 27t11.5 7t13 -9q2 -3 2 -7q0 -24 -17 -98q-24 -106 -25 -109l36 -72l-2 -1q-2 7 -2 25t-1.5 23t-11.5 19q-4 5 -4 9zM291 -17q45 0 134 8t133 8
l-25 -18q-14 8 -22.5 10t-35.5 6q-11 1 -65 -11t-66 -18zM62 226q-7 -2 -11 -10l23 -26q-15 31 -18.5 55.5t-3.5 65.5v53q0 13 7 66q3 23 3 38q0 3 -6 11t-6 13q0 11 62 103q59 87 65 92l40 18q-28 -24 -97 -123.5t-69 -120.5l-1 -87q0 -29 3.5 -86t8.5 -62zM25 356
q6 -51 15 -96.5t14 -53.5l-5 -13q54 -57 106 -101q68 -58 130 -89q75 -38 140 -38l92 6q-25 4 -131 10t-168 30q-4 2 -42 37q-29 27 -41 39q-39 39 -50 52q-31 36 -34.5 60t-3.5 45q0 19 3 58t3 57zM305 166l180 2l-18 -11l-142 -1zM406 404l232 -7q-22 0 -48.5 -0.5
t-58.5 -0.5h-21q-25 0 -57 1t-47 7z" />
    <glyph glyph-name="H" unicode="H" horiz-adv-x="648" 
d="M420 5v269q-25 5 -52.5 8.5t-49.5 3.5q-26 0 -41 -1.5t-56 -10.5v-283h-156l-1 216v118l1 326h156q-5 -25 -6 -45.5t-1 -53.5q0 -25 3.5 -77.5t3.5 -71.5q28 -2 55 -4t50 -2q47 0 94 6v262h156v-660h-156zM434 689q3 -2 29 -2.5t45 -0.5h72l-21 -11l-9 1l-63 -3l-68 1z
M597 260v202q0 32 -4 96t-4 96l18 35q0 -17 3 -51t3 -52q0 -58 -13 -294q-6 -109 -6 -176zM49 673q69 0 105.5 -3t54.5 -11l-102 -4q-32 0 -58 18zM228 416q0 42 -1 68q-4 105 -4 115q0 15 0.5 29.5t4.5 30.5q7 -60 15.5 -127t8.5 -113l9 -5zM583 -35l13 116q6 -41 6 -83
v-17l-1 -16h-18zM52 433l-3 -101q-5 37 -8 80t-3 85q0 39 1 79l2 80q8 -47 9.5 -93t1.5 -130zM412 56q0 -6 -1 -14t-4 -27l-13 1q0 21 -3 65t-3 66q0 6 9.5 32.5t9.5 47.5q0 6 -2 22zM501 -10q19 0 49.5 -2.5t35.5 -2.5l3 -17l-178 11q45 6 90 11zM292 269q-20 0 -36 -14
q-10 -91 -14 -136q-8 -81 -8 -136q0 37 -3 112t-3 112v30l1 31h55l51 -15l-2 12l-9 -1q-6 0 -17.5 2.5t-14.5 2.5zM44 204q0 -33 -4 -101t-4 -102q-2 16 -4 42.5t-2 69.5v37v79q0 22 3 65t3 65q8 -82 8 -155zM223 -29l-192 -2q21 4 68 12q70 12 117 12zM402 649
q0 -42 2.5 -107.5t2.5 -75.5v-15q0 -11 -1 -22.5t-4 -22.5q-9 67 -17.5 140t-8.5 130q5 0 12.5 -13t13.5 -14zM392 407l-3 20l-101 -18z" />
    <glyph glyph-name="I" unicode="I" horiz-adv-x="320" 
d="M83 12q5 53 5.5 127t1.5 121q0 64 -2 138q-5 185 -5 232h155v-618h-155zM160 671q17 0 50 -2t50 -2l-195 -23l-28 16q41 5 70 8t53 3zM116 641q9 4 61.5 7.5t75.5 3.5l27 -11h-164zM91 208v-21q0 -72 -6 -144q-15 86 -20 186.5t-5 225.5q0 26 2 86.5t2 64.5
q27 -197 27 -398zM70 194q0 -30 -2 -100t-2 -74q-15 48 -18 99t-3 137q0 56 2 102q7 159 7 171q0 -55 8 -167t8 -168zM270 -5q-27 -3 -57.5 -7t-50.5 -4q-19 0 -57 3t-58 3q45 12 105 16.5t120 4.5zM249 602q0 -119 2 -215q7 -336 7 -360q24 221 24 446q0 29 -4 62.5
t-8 66.5h-21z" />
    <glyph glyph-name="J" unicode="J" horiz-adv-x="587" 
d="M289 -10q-146 0 -192.5 49.5t-46.5 195.5q42 -6 84 -6q36 0 71 6q0 -66 9 -84q16 -32 74 -32q41 0 60.5 15t19.5 55v487h154v-501q0 -111 -63 -152q-51 -33 -170 -33zM524 696q-25 -5 -50 -9q-19 7 -28 7q-19 0 -49.5 -2.5t-35.5 -2.5l-3 -85q0 -53 2 -97q7 -152 7 -164
v-82q0 -19 -3 -46.5t-5 -52.5q-12 128 -20 272t-8 270q11 0 22 1l22 2q52 0 93 -3t56 -8zM247 160l86 -19q-18 -3 -26 -4t-25 -1q-20 0 -32.5 3t-21.5 13l-12 120zM192 249q-36 -4 -72 -7q-15 0 -34.5 2t-37.5 4q-1 -3 -6.5 -34t-5.5 -43q0 -20 12.5 -61t12.5 -59
q0 -10 -6 -14l-12 4l-16 226q13 -3 28.5 -3.5t30.5 -0.5q30 0 49 1q76 4 84 4zM210 -31l-156 43l9 16q78 -34 147 -59zM532 407q0 -49 -1 -147.5t-1 -147.5q0 -38 -9 -54q-18 -23 -35 -46q18 10 35 24.5t23 20.5q0 22 3.5 68t3.5 63q0 47 2 157.5t2 119.5q0 66 -3 126
t-12 116zM462 -7l-202 -41q0 5 -14 10t-14 11q53 1 111 6.5t119 13.5z" />
    <glyph glyph-name="K" unicode="K" horiz-adv-x="709" 
d="M463 16l-201 264h-24v-278h-156q0 53 -4 161t-4 162q0 61 4 182t4 182h156v-279h21l171 226h192l-218 -282l254 -338h-195zM615 584l-34 -33q-26 -38 -52 -75q-12 -12 -22.5 -23.5t-17.5 -29.5l-51 -24q94 107 103 118q57 68 95 128zM249 454l4 -26l101 154
q-19 -27 -52 -69q-41 -52 -53 -59zM414 640q-11 -10 -22.5 -25.5t-18.5 -31.5zM203 699q46 2 92 5q-15 -7 -28.5 -28.5t-13.5 -39.5l-3 -149l-3 152q0 16 2 30.5t5 30.5q-33 0 -98 -1t-99 -1l-11 -19q71 12 157 20zM453 375l42 -118q17 -14 28.5 -33.5t22.5 -37.5
q59 -85 75.5 -107t50.5 -65q-43 54 -65 81q-40 51 -62 85q-4 8 -7 15t-6 10l-40 40q-4 4 -16 36q-5 14 -10 23q-13 29 -39 42zM663 -13l8 14h-66q-36 0 -64 4zM457 3v6l92 -13zM257 257q47 -54 101 -127q22 -29 95 -132q-20 57 -91 130q-98 102 -111 119zM260 184l21 15
l-32 32q0 -25 2 -84.5t2 -64.5q0 -16 2.5 -39t5.5 -43l3 79q0 17 -2 52t-2 53zM66 -12q3 20 4 51t1 35v12q0 18 -0.5 37t-0.5 38v11l-1 467l11 -1q0 -161 -1.5 -246t-7.5 -184.5t-20 -215.5l7 6zM61 119l1 45q0 65 -9 130q0 -19 -2 -41q-5 -56 -5 -70q0 -15 5 -31.5
t10 -32.5zM62 597q0 -69 -1 -140t-2 -141l-2 4q-7 -13 -12 -19q-2 2 -3.5 32t-1.5 51q0 54 5 99t17 114zM80 -30q6 3 40.5 4t75.5 1h89q-28 8 -52 11.5t-56 3.5l-19 -1l-2 -2q-15 0 -42 4.5t-36 5.5zM544 645h83q-33 7 -75.5 10t-81.5 3q-9 0 -23.5 -2.5t-23.5 -3.5
q21 0 63.5 -3.5t57.5 -3.5z" />
    <glyph glyph-name="L" unicode="L" horiz-adv-x="546" 
d="M87 -2q0 43 -3 129t-3 130q0 64 3 193t3 194q31 7 66 7q19 0 41 -1.5t49 -5.5v-517q27 0 89 2t66 2q21 0 42 -0.5t44 -3.5v-129h-397zM240 598q0 21 3 47t4 40l7 1q2 -13 2 -33v-38q0 -120 1 -241t2 -241l28 3q-27 85 -37 183t-10 210v69zM302 146l-17 -4q-5 50 -7 107
t-2 112zM329 144l33 -1h144l-51 16h-49q-26 0 -48 -9q-18 -9 -28 -13zM69 662l1 -93v-139l-16 234h26q24 0 79.5 -2t59.5 -2zM62 -6q0 39 2.5 109t2.5 82v57v48v42v39v33v30v24v21v19v18v15v12v12q0 17 -0.5 34t-0.5 35v9l11 1q0 -150 -8.5 -312.5t-23.5 -326.5l8 7z
M314 -27l79 8q8 1 17 1h14h30q5 0 17 4t19 4l-20 -26h-4q-26 0 -78 4t-79 4zM188 -22h180q12 0 20 -0.5t30 -3.5l29 24q-83 0 -162 -5t-153 -17zM77 -34l-26 14l125 -1q-16 -1 -33 -3.5t-66 -9.5zM56 163q0 12 -2 42t-2 32l-21 -87q0 -23 2 -78t2 -59q10 63 15.5 100t5.5 50
zM57 258l-15 -3l3 -2q2 0 4 9.5t2 22.5l5 81zM510 -31q-11 61 -15.5 98t-4.5 65l18 -7v-91q0 -15 -3 -33t-6 -35z" />
    <glyph glyph-name="M" unicode="M" horiz-adv-x="918" 
d="M572 528q-19 -34 -37 -67q-14 -39 -35 -109q-17 -56 -33 -112q7 84 23 138.5t47 117.5l72 140q-19 -54 -37 -108zM640 657l4 7l28 -4l160 7l-10 -7zM857 671l20 -45q-7 -51 -9 -123t-2 -138v-36q0 52 -5 117q-12 157 -12 196zM854 318q0 -51 -7 -154t-7 -154l27 2
q-10 67 -13.5 149.5t-3.5 176.5v46q4 -29 4 -66zM94 672q27 -5 56 -6.5t73 -1.5h42l16 -13l-182 10q-3 3 -5 11zM439 265q-19 50 -46 119q-6 14 -48 119q-24 59 -48 119q14 -31 33 -82t29 -77q4 -10 17 -25q4 -5 14 -14q10 -32 21.5 -66t28.5 -58l-8 -3zM630 287
q-2 -11 -11.5 -62t-16.5 -77l-72 -112v-4q-1 -11 14 -11l4 14q14 47 28 95q6 15 36 82q38 86 56 141l10 93q-2 -26 -14 -59q-33 -93 -34 -100zM707 533l-192 -527h-120l-190 518q0 -90 -2 -298t-2 -221h-131v641q27 0 71 2.5t53 2.5q21 0 43 -1t43 -4l170 -465l179 464h210
v-642q-35 -5 -64 -5q-30 0 -68 5v530zM719 -11l-4 11l57 -7zM867 -6q-9 -3 -37.5 -5.5t-47.5 -2.5zM379 39l-30 1q-9 18 -32 102q-26 95 -40 152q-24 96 -28 110q42 -150 54 -186q35 -105 76 -179zM346 0q5 1 13 5t13 7l61 -27zM532 -8l-1 -3l-71 -5zM44 649q20 16 41 32
l-21 13q-6 -44 -11 -88q0 -8 4 -25t4 -25l-5 -238q-7 54 -9.5 114t-2.5 135v82zM52 -12l17 29q-5 13 -5 39q0 15 2 27q-6 9 -15 104t-9 111l14 42q-4 -38 -5 -74t-1 -82q0 -33 1 -98t1 -98zM231 -4q-26 0 -80 -1t-81 -1q25 0 83 2t62 2l-14 429q0 -69 9 -161
q21 -216 21 -270z" />
    <glyph glyph-name="N" unicode="N" horiz-adv-x="806" 
d="M567 9h-36q-15 3 -22 4l-261 445v-458h-156v646q67 8 127 8q54 0 113 -8q47 -111 106 -220q53 -97 126 -210q0 72 -2 129q-7 201 -7 215q0 60 1 69.5t8 43.5h155v-653q-21 -3 -63.5 -7t-88.5 -4zM345 698q2 -5 7 -14t7 -17l-1 4l16 -32q10 -27 20 -53l-27 10
q-2 24 -7.5 46t-14.5 56zM756 668v-43q0 -58 -6 -101.5t-25 -71.5q7 58 10.5 112t3.5 104h17zM735 -7l1 434q0 -72 7 -216t7 -216l-50 -13q-31 0 -70 5t-75 9zM550 271q-44 76 -88 153q-67 121 -67 150q53 -86 82 -135q54 -92 54 -140q0 -7 -2 -15l-4 -16zM231 675
q-55 -6 -116 -17l-29 27zM315 680l22 -12l-74 6zM427 132q48 -75 99 -140l99 -6l-101 -16q-4 6 -16.5 16.5t-17.5 20.5q-34 62 -67 125q-38 70 -73 126q-43 68 -81 113l24 5q6 -54 55 -131q39 -57 79 -113zM78 8q-6 39 -12.5 84t-6.5 76q0 54 14 272q6 93 6 163q0 18 -2 31
t-7 46q-3 -14 -5 -26.5t-2 -27.5q0 -51 4 -180t7.5 -227t3.5 -211zM245 -5q9 58 11.5 96.5t2.5 106.5q-1 51 -2 102.5t-1 102.5q14 -81 15.5 -89.5t6.5 -49.5q5 -5 6 -28.5t1 -42.5l4 4l-8 -24q-10 -31 -22 -31q-9 0 -12.5 7.5t-3.5 16.5v5h28l1 -179zM60 626q0 -28 -9 -282
q-3 -85 -3 -169h10q0 113 -5 245t-15 232l27 24q-5 -28 -5 -50zM75 -24l4 21h11q38 0 83.5 -5t82.5 -13zM718 702l36 -13l-13 -14q-19 2 -39 4t-37 2h-49l-60 -2q22 13 44.5 18t48.5 5h69z" />
    <glyph glyph-name="O" unicode="O" horiz-adv-x="740" 
d="M696 211q0 -17 -2 -57.5t-2 -43.5q-27 -39 -65 -82q20 28 32 48q24 38 24 53q0 53 -2 97q-7 152 -7 163q0 13 -3 31q-7 43 -7 53q0 16 4 35l8 38q8 -78 14 -170.5t6 -164.5zM412 15h-89q-131 0 -192 59t-61 190v112q0 123 64 182t188 59h80q127 0 193 -56q70 -60 70 -185
v-112q0 -135 -59 -192t-194 -57zM509 372q0 68 -24 94t-92 26h-53q-66 0 -90 -26t-24 -92v-105q0 -69 23.5 -98t90.5 -29h53q67 0 91.5 29.5t24.5 98.5v102zM482 631q31 -10 77 -33l76 -40q9 -13 15 -33q2 -6 5 -19l6 63q-67 14 -127.5 27t-68.5 17l-31 26q12 -2 25.5 -3.5
t22.5 -4.5zM160 586q-41 -28 -53.5 -42t-18.5 -35q33 34 63 63q38 36 67 57q41 5 84 11t79 6q11 0 25 -3t32 -7q-25 -8 -50 -10.5t-61 -2.5q-19 0 -52.5 1t-47.5 1q-9 0 -34 -16q-17 -12 -33 -23zM538 19q24 11 53 27q35 19 50 28l-140 -91l-52 29q13 3 48.5 4t40.5 3z
M456 -17q-15 3 -31.5 5.5t-25.5 2.5l-6 -2q-5 2 -15 5.5t-18 8.5zM54 511q35 25 70 55q42 35 66 62q-18 -5 -34 -10t-17 -6q-43 -37 -62 -73.5t-19 -90.5q0 -10 4 -32t4 -33l-3 -210q-3 28 -8 65q-10 74 -10 110q0 82 9 163zM152 38q74 -38 153 -45q19 -2 36 -4t26 -6
q-37 15 -94 28q-142 31 -162 38q-12 14 -25 46t-28 89q16 -31 45 -79q38 -61 49 -67zM481 337l10 -19l-2 -134l-13 33q6 44 6 87zM474 439q13 -10 18 -31t5 -44l-3 -27zM254 422q0 -15 3 -45t3 -46v-48q0 -29 5 -47q9 -24 15 -44q4 1 18 -14.5t18 -22.5l-26 8
q-35 39 -44.5 76.5t-9.5 101.5v32q0 28 6.5 51.5t25.5 39.5zM464 473q-8 -9 -26.5 -15.5t-33.5 -6.5h-77l-33 24zM359 166q13 2 28 5t24 3l53 -3l-73 -16z" />
    <glyph glyph-name="P" unicode="P" horiz-adv-x="597" 
d="M220 210v-218q-14 -3 -36.5 -4t-25.5 -1q-41 0 -93 5q0 68 2 124q7 194 7 209q0 70 -2 127q-7 199 -7 213h245q122 0 174.5 -51.5t52.5 -173.5q0 -112 -38 -164q-33 -45 -109 -58q-48 -8 -170 -8zM231 174l-2 25l201 8q-67 -9 -111.5 -15.5t-87.5 -17.5zM314 510h-86
v-145h89q43 0 58.5 15.5t15.5 57.5q0 41 -17.5 56.5t-59.5 15.5zM467 661q13 -14 29 -33.5t28 -35.5q-34 28 -67 47t-75 33zM517 618q10 -7 23.5 -50.5t13.5 -60.5q0 -8 -2 -24t-2 -23q0 -11 4 -31t4 -30q0 -17 -17 -63q-13 -32 -25 -64q3 12 17.5 59t20.5 54q-2 15 -6.5 99
t-17.5 128zM56 686q9 0 97 -4q22 -1 57 -1q10 0 72.5 2.5t102.5 2.5h-4q-9 0 -27 -6t-26 -6q-16 0 -64 3.5t-72 3.5q-30 0 -77.5 -7t-68.5 -15l-3 27h13zM515 277q-39 -39 -46 -45q-26 -23 -54 -33q10 0 21.5 1t19.5 3q27 42 40 63q40 64 40 75q0 6 -5 18l3 11l23 -14
l-13 -18q-5 -8 -14.5 -32t-14.5 -29zM55 391q0 -20 2.5 -118.5t2.5 -156.5q0 -14 5 -40t5 -39l-28 1q12 145 13.5 168.5t1.5 79.5zM221 18q0 9 5 30q9 37 9 50q4 -17 8 -34.5t4 -32.5q0 -2 -4 -19t-12 -43zM221 146l15 6l-11 -48q-4 19 -4 42zM44 32l-13 -10q32 303 32 626
h-12q0 -44 4 -130t4 -129v-189q0 -36 -4 -106t-4 -105zM76 -17q28 -3 81 -10t87 -7l-15 -16l-3 18l-94 2q-12 1 -23.5 1h-22.5q-16 0 -28 -1t-25 -5l12 54zM236 375q1 8 1 24q-1 19 -2 39t-1 39v5q6 -33 12 -58t16 -46zM346 497l28 -21l6 -51l-22 52l-111 26zM303 379l6 15
l58 -6z" />
    <glyph glyph-name="Q" unicode="Q" horiz-adv-x="768" 
d="M667 -14l-71 45q-30 -24 -92 -33q-41 -6 -100 -6h-89q-136 0 -194.5 68.5t-58.5 206.5v110q0 148 75 211q69 58 219 58q165 0 228 -50q73 -58 73 -219v-54.5t1 -54.5v-15q0 -46 -1.5 -63.5t-6.5 -49.5l73 -48q-16 -16 -30 -51q-17 -42 -26 -55zM501 374q0 73 -21 100
q-25 32 -95 32h-53q-68 0 -93 -32q-21 -27 -21 -99v-102q0 -73 20 -103q25 -38 94 -38h53h12q19 0 32 4l-93 60q6 11 36 49q24 29 29 54l98 -62q2 9 2 20.5v17.5v99zM569 627l-31 20l28 -13l47 -23q9 -4 14.5 -16t8.5 -19zM672 407v-2l-2 -30l-12 72q7 -13 10.5 -21.5
t3.5 -18.5zM662 141q0 20 3.5 60.5t3.5 54.5q0 15 -2 50.5t-2 37.5q6 -54 13 -112.5t7 -104.5zM329 670q-54 -13 -101.5 -27.5t-95.5 -31.5q-46 -75 -69 -148q-26 -81 -26 -162q0 -46 6.5 -87.5t21.5 -76.5l2 11l-4 10l5 12q-18 41 -25 64q-10 34 -10 67q0 12 8.5 32t8.5 25
q0 74 26 146q32 88 88 114l96 44q25 11 42.5 16t36.5 5q14 0 34 -3.5t38 -7.5l-25 -15q-3 1 -14 -2zM682 -29l47 103q0 -20 -3 -40t-5 -31zM589 11l-11 -4q32 -9 65 -19l-15 -21l-7 8l-11 11l-7 9zM583 -22q-6 0 -93.5 -2t-124.5 -2l187 24zM318 -41l-15 5h27zM40 156
q-1 9 -4.5 24.5t-6.5 22.5l21 -76q16 -34 22 -44q15 -27 30 -40l-24 -12l11 5l-15 2q-6 8 -7.5 15.5t-3 21.5t-8.5 26.5t-9.5 25t-5.5 29.5zM108 68q50 -55 104 -90l-88 43zM288 -35l-22 -8l-29 22zM463 356q0 7 7 26q4 11 4 16l-1 51v15q9 -15 12.5 -39t3.5 -51
q0 -26 0.5 -53t7.5 -46q-18 25 -24 37q-10 21 -10 44zM266 164l-3 -1q-2 1 -10 10.5t-13 10.5q-3 26 -4 66t-1 45v137q0 -69 7.5 -129.5t23.5 -138.5zM529 649q-12 0 -58 7q-20 3 -34 3q-15 0 -29 -8l12 -1q6 0 39 2.5t54 2.5q6 5 8 7q11 10 16 15l3 -1zM442 480
q-11 -2 -26 -4t-18 -2h-45q-15 0 -46 3t-46 3l84 20q22 0 48.5 -6t48.5 -14zM652 509l-34 60l34 -20l16 -44l-13 -29zM375 273q-31 -34 -61 -67q9 24 35 57q20 26 44 50zM384 145l-39 4l-16 33z" />
    <glyph glyph-name="R" unicode="R" horiz-adv-x="650" 
d="M544 -4q-16 0 -49 4t-50 4q-12 0 -18 -1q0 15 1 43t1 40q0 62 -19 88q-26 35 -98 35h-80v-180h-156v634h251q128 0 183 -45q61 -50 61 -175q0 -71 -21.5 -102t-87.5 -52q54 -14 85 -43q36 -34 36 -86v-157q-17 -7 -39 -7zM338 509h-93v-146h93q41 0 59.5 15.5t18.5 56.5
q0 74 -78 74zM396 666l99 -33q80 -31 80 -54q0 -8 4 -34.5t4 -36.5l-3 -144l-12 41q0 3 2 51t2 68q-7 54 -13 109zM94 679q49 2 71.5 2.5t64.5 0.5q53 0 88 -2.5t56 -8.5q-31 4 -84 6t-91 2h-105zM264 416q0 25 -1.5 41.5t-7.5 26.5l11 -8q2 -15 2 -30v-30v-20q0 -15 -8 -18
q1 9 2.5 17.5t1.5 20.5zM499 291l72 48q-12 -9 -22 -20q-15 -16 -15 -23q0 -6 22.5 -28.5t22.5 -27.5q-8 9 -51 32q-21 11 -29 19zM605 202l-9 -25l3 -46l-2 -22t0 -19q0 -4 15 -42q5 -13 5 -27q0 -4 -3.5 -12t-3.5 -9l2 -4l-14 -32v12q0 20 0.5 39t0.5 38q0 34 -3 75.5
t-10 71.5l15 10zM377 466l10 -9v-4l5 -43zM414 1q40 -8 85 -15q16 -2 50 -7q-23 -5 -75 -5h-12h-50zM594 -12l-1 -17l-54 9zM393 168q5 -36 15 -77q7 -28 20 -74q-14 42 -33 88t-37 86zM45 321q1 8 2.5 22t1.5 25v120v76q0 31 2 64.5t7 58.5l-20 -75q0 -63 10 -137.5
t24 -152.5zM44 38l-9 -7q29 253 29 504v114l-10 -5q5 -32 6.5 -50.5t1.5 -65.5q-1 -21 -1 -42v-41q0 -69 -4 -208t-4 -208zM254 174l15 11q-5 -49 -10 -105.5t-16 -81.5l14 -1l-14 -14q0 7 2.5 50t2.5 69q0 5 -2.5 35t-2.5 48zM124 -2q-21 0 -57.5 7t-36.5 17
q33 -2 106.5 -6t94.5 -4q-36 -7 -61 -10.5t-46 -3.5zM376 496l-113 -8l-3 13zM277 369l111 23l-6 -14z" />
    <glyph glyph-name="S" unicode="S" horiz-adv-x="699" 
d="M355 -6q-170 0 -220 34q-66 45 -66 202q30 -3 60 -3q28 0 56 1l56 2q0 -47 8 -66q13 -31 54 -31h102q39 0 53.5 14.5t14.5 52.5q0 67 -105 74q-170 11 -195 20q-105 39 -105 186q0 95 57 135q50 35 146 34l87 2l79 -2l-4 1q121 0 162 -45q38 -42 38 -164q-27 0 -54.5 1
t-54.5 2q-28 0 -57 -3q0 36 -13 56q-16 24 -50 24h-113q-36 0 -49.5 -12.5t-13.5 -47.5q0 -59 131 -63.5t171 -20.5q106 -41 106 -191q0 -127 -81 -166q-53 -26 -200 -26zM465 205q0 -6 -5 -18.5t-11 -24.5q-3 3 -4.5 22t-2.5 41l-40 11l-33 32q22 -5 45 -10t39 -17
q0 -4 6 -17t6 -19zM411 684q79 -19 147 -51l-115 23l-12 2zM625 589l-11 -5l-35 61zM647 544q0 -9 -3 -25.5t-5 -25.5q0 26 -2.5 47t-8.5 40l9 29q-2 -9 4 -33t6 -32zM641 412l-4 41q6 10 12 48q3 17 6 22q0 -27 -4 -55q-7 -38 -10 -56zM638 315l-90 64l16 20l11 -21z
M651 294l1 -98l-17 103zM65 380q-8 21 -16 43q-14 35 -19 39q6 24 14 47.5t13 52.5q2 14 11 25q-5 -30 -9.5 -62.5t-4.5 -55.5q0 -10 5.5 -43t5.5 -46zM169 645q2 7 37.5 20.5t43.5 13.5q4 0 65.5 -2t87.5 -2zM74 599q10 3 18 16t11 14l53 16l-52 -33q-8 -5 -13 -11t-12 -16
zM665 125q-11 -25 -39 -72q-33 -55 -45 -59l8 28q0 1 19 20t21 31q7 30 9.5 48t2.5 43l19 22zM135 299l-2 -4q0 -17 96 -28t100 -11l-194 9q-5 14 -21 29t-33 22l-11 52zM143 15q13 -4 57 -12.5t94 -17.5q-26 0 -64 8q-85 18 -107 18q-16 13 -29 25t-25 26zM59 246l175 -10
q-16 0 -33 -0.5t-34 -0.5q-31 0 -57.5 2t-50.5 9zM318 -12q3 0 40.5 -2t52.5 -2l140 29l24 -26l-210 -15zM46 166l-3 10l14 57l6 -162zM614 436l20 -23q-52 0 -91.5 3.5t-77.5 13.5q21 5 40.5 5.5t39.5 0.5h27h42zM394 508l33 -11q-28 -3 -56.5 -6t-52.5 -3h-73l26 17l82 3
h41zM245 446q22 -11 50.5 -14.5t86.5 -6.5q18 -3 59 -12t66 -15q-130 0 -250 27zM260 216l44 -50q32 0 56 -1t49 -5l27 -15h-72q-11 0 -35 3t-51 6l-18 32v30z" />
    <glyph glyph-name="T" unicode="T" horiz-adv-x="609" 
d="M395 534l-13 -544q-36 6 -74 6q-40 0 -81 -6l-14 544h-141v143h466v-143h-143zM552 672l-4 14q-80 0 -241 -1t-241 -1q14 6 95.5 9.5t257.5 3.5h136l10 -8l-16 -133q0 15 -3 44t-3 44q0 1 6 16q3 8 3 12zM553 528q0 7 -4 21l14 6l-7 -47l-13 -6h-24q-33 0 -66 3l-24 18
l44 -3q12 0 36 -2t36 -2q8 0 8 12zM407 513q0 -62 -5 -147q-12 -205 -12 -242l10 -147q0 53 3 160t3 161q0 29 8 76q18 105 18 132l-25 19v-12zM53 523l9 35l-4 13q0 21 2.5 56.5t2.5 42.5q0 4 -1.5 9t-5.5 12q-2 -3 -12 -58t-10 -65q0 -8 9 -25t10 -20zM184 489
q6 -19 9 -42.5t3 -44.5q0 -102 -1 -153q-5 -254 -5 -255zM64 496q22 0 65.5 8.5t62.5 8.5q5 -16 11 -33.5t6 -32.5q0 -19 -6 -58t-6 -58l1 -115q8 25 11.5 56t3.5 65q0 11 -0.5 26.5t-0.5 35.5v51v35q0 18 -3 35q-33 0 -62.5 -1t-54.5 -2q-36 0 -51 3q1 -5 9.5 -14.5
t13.5 -9.5zM211 -22l-1 49q0 12 10 73q5 31 4 41l-8 75q-5 -30 -10.5 -64.5t-5.5 -56.5v-15v-15v-12q0 -19 -0.5 -37.5t-0.5 -37.5v-12q9 1 30.5 2t55.5 1h50.5t50.5 -1l-25 15q-13 0 -66 -5q-21 -2 -40 -2z" />
    <glyph glyph-name="U" unicode="U" horiz-adv-x="724" 
d="M424 12h-89q-125 0 -178 40q-62 47 -62 167v375h155q0 -40 -2 -72q-7 -113 -7 -122q0 -35 2 -63q7 -98 7 -105q0 -85 46 -98q21 -6 85 -6q73 0 101 33q23 27 23 86q0 21 -5.5 83t-5.5 81q0 34 3 103t3 104h155v-399q0 -124 -54 -168q-48 -39 -177 -39zM544 634l86 4z
M635 32q8 10 15 25q12 26 28 38q0 60 -16 299q-7 104 -7 178q0 12 3 36t3 36l19 -40q-8 -52 -9.5 -88.5t-1.5 -116.5v-68v-61q0 -81 -4 -136.5t-17 -116.5zM40 591q0 8 26.5 12.5t63.5 4.5q6 0 89 -7q24 -2 52 -2q-33 8 -52.5 9.5t-104.5 1.5l-48 -33h-7q-19 -2 -19 14z
M476 163l-12 -9l23 294l-4 -294zM301 149l-37 26q-5 48 -7 120t-2 137v154q0 -172 12.5 -294.5t33.5 -142.5zM605 9q-6 5 -10.5 10.5t-7.5 11.5l28 -1zM653 23l-3 6l13 -6h-10zM566 12l2 -6l-153 8q24 0 74.5 -1t76.5 -1zM54 402q0 28 2 51q7 81 7 88q8 -56 8 -105
q0 -35 -3 -72q-9 -110 -9 -122q0 37 -1 60q-4 91 -4 100zM150 19q-7 5 -25 34l-22 38q-22 35 -25 55t-3 80q0 44 9 222q4 79 4 132l-7 -2q0 -67 -4 -201t-4 -200q0 -6 6.5 -23t4.5 -27q43 -52 52 -61q17 -18 34 -30zM474 -12q-20 6 -54.5 6.5t-69.5 0.5q-39 0 -71 1.5
t-53 4.5q57 0 125 -3t123 -10zM170 7v5l32 -6zM313 144l2 7l136 3l9 -11zM593 0l-5 -13l-149 13h154z" />
    <glyph glyph-name="V" unicode="V" horiz-adv-x="813" 
d="M533 5q-31 -4 -60.5 -6t-64.5 -2q-57 0 -121 8l-211 646h179q29 -125 69 -253q36 -114 87 -248q32 72 62 167q25 76 50 174q6 25 44 174h177zM768 697q-6 -46 -20 -95.5t-34 -101.5q11 51 22.5 103.5t17.5 100.5zM669 322l-17 -6l59 184q-16 -59 -23 -88q-12 -46 -19 -90
zM452 273q0 37 38 184t38 179q0 9 -1 12q19 18 28 26q17 15 34 15q33 0 74 -10t55 -13l44 27q-72 0 -126.5 -4.5t-83.5 -25.5q0 -18 -12 -26q0 -49 -36 -178q-49 -176 -52 -190v4zM566 -1l-27 -12q26 79 48 142q7 19 88 235q-29 -118 -48 -184q-29 -104 -61 -181zM254 663
q-86 8 -164 8l191 8zM36 662l1 11l64 17zM371 321q-36 96 -64 216q10 -26 22 -55t15 -44t19 -46q7 -14 9 -22l33 -167q-18 34 -23 60.5t-11 57.5zM267 70l3 1l-8 -18q-42 108 -76 201q-38 104 -69 203q-34 108 -59 205l-14 -4q57 -170 110 -302q65 -161 131 -293zM305 -1
q32 -9 65.5 -11t81.5 -5l-150 -12zM585 -4l-13 -17h-17h-27h-38q-26 3 -38 4zM316 -43l15 -3q-85 139 -123 208q-63 115 -101 213q-45 115 -64 232q31 -48 46 -117q8 -38 24 -122q14 -55 50 -133q28 -62 74 -143q29 -52 73 -125z" />
    <glyph glyph-name="W" unicode="W" horiz-adv-x="1000" 
d="M765 11q-16 -6 -32 -8.5t-38 -2.5q-44 0 -92 11q-24 113 -27 125q-17 73 -33 125q-19 62 -47 118l-106 -368h-162l-169 639q38 -8 72 -8q11 0 25 0.5t38 7.5l115 -449l115 463q41 8 77 8q28 0 38.5 -1.5t30.5 -6.5l91 -418l139 431h136zM976 713q-68 -8 -108 -14
q-72 -12 -95 -37v-7q0 -8 -7 -23q-8 -24 -9 -26l-68 -247l76 321l137 12q15 0 42.5 -2.5t31.5 -2.5l-18 13zM960 688l-77 -322l-11 -4q25 111 42 174q33 128 55 158zM660 271v26.5v27.5q0 40 -1 54.5t-7 36.5q-10 42 -26 98q-43 143 -49 164l5 8q18 -47 46 -210
q17 -104 32 -205zM765 -3q1 9 5 19.5t9 25.5l107 312l-18 -16q-5 -46 -26.5 -106t-41.5 -114q-20 -65 -20 -114zM331 333q22 81 38 175q13 74 26 178l4 -8q19 0 59 -4t60 -4q10 0 18 1t16 5l-114 27q-24 -46 -35 -68q-20 -41 -32 -71q-5 -17 -11 -48t-10 -59l-15 -45
q-6 -18 -6 -30zM82 685l123 -28l-4 25q-21 -10 -47 -13.5t-57 -3.5h-42l-35 -3l3 15q20 4 34 6t25 2zM589 -6h188l-148 -21l-10 1h-22t-22 -1q0 62 -14 126q-3 18 -33 121q22 -55 39 -114.5t22 -111.5zM310 258l-5 94l-8 20q-12 35 -23.5 79.5t-18.5 76.5q10 -85 20 -137
q13 -74 35 -133zM211 669q5 -16 9 -31q1 -3 1 -14t1 -18l5 -39q-7 31 -10.5 53t-5.5 49zM496 272l4 53l-72 -212q34 79 68 159zM412 15l-12 -4q22 36 46 98q9 24 35 103zM34 660l6 3q19 -97 43 -195q-15 50 -28 98.5t-21 93.5zM93 556l-24 -3q30 -138 78 -295
q38 -131 94 -290l14 18l-51 19q-24 87 -44 167q-31 125 -46 207q-21 113 -21 177zM235 1l147 -3q-18 -5 -35 -17l58 -2q-54 0 -96 4t-74 18zM560 153l-50 143l2 21z" />
    <glyph glyph-name="X" unicode="X" horiz-adv-x="793" 
d="M737 8l-185 309q40 0 59 -40q10 -30 21 -60l112 -209h-7zM552 2l-156 244q-38 -78 -74 -135q-45 -71 -94 -123h-184l239 351l-210 316h17q20 0 81 -7q35 -4 49 -4q23 0 42 4l134 -220q30 58 70 119q34 53 79 115h173l-207 -323l224 -337q-41 7 -83 7q-21 0 -45.5 -2
t-54.5 -5zM579 -20l-56 12q-2 5 -7 8.5t-6 5.5q0 12 -7 20q-12 14 -13 16l-45 111q58 -87 62 -94q17 -30 27 -62l87 3q32 0 69.5 -4t73.5 -8q-30 0 -92 -4t-93 -4zM529 660q-54 -78 -107 -155l111 148q32 16 98 26.5t109 10.5l-17 -27l-12 4h-138q-22 -4 -44 -7zM570 374
q-5 -9 -7.5 -32t-3.5 -31l-25 43q100 156 201 312zM409 474l-5 -3l-16 5l-3 -1q-15 25 -58 98q-38 65 -57 99q39 -66 64 -102q38 -55 75 -96zM721 71q-4 5 -16 35.5t-25 65.5l83 -151zM67 657q108 12 207 29l-29 -26q-12 -2 -28.5 -4.5t-33.5 -2.5l-112 14zM272 330
q-53 -59 -70.5 -79.5t-39.5 -51.5q16 27 42 65q22 31 45 63l-170 302l102 -146q57 -85 91 -153zM266 -5l23 41l-4 -35zM35 15q0 -4 1 -11.5t3 -21.5q2 16 6.5 37.5t11.5 32.5l78 126l3 -33l-103 -125v-5zM240 -20q-19 -3 -55.5 -9t-61.5 -6q-11 0 -59 7q-21 3 -36 3l29 9
q18 0 81 -3.5t100 -3.5zM394 208l1 -29q-15 -15 -28.5 -38t-16.5 -42q-16 -11 -33.5 -28.5t-46.5 -52.5z" />
    <glyph glyph-name="Y" unicode="Y" horiz-adv-x="734" 
d="M447 253q4 -29 6 -69t2 -77v-12v-12q0 -45 -8 -80h-156v250l-222 356q24 -3 45 -5t43 -2q37 0 72 7l140 -232q30 64 69 126q31 49 84 118h161zM484 634q3 -14 -8 -40q-3 -7 -17 -37q7 -1 23 21.5t16 31.5l-4 24q52 5 81.5 6.5t103.5 1.5l29 -21q-51 8 -96 10.5t-111 2.5
h-17zM362 437q8 0 36 41t39 41q-25 -37 -37 -55q-23 -34 -35 -57q-18 22 -52 103t-34 102l-26 -5q17 -34 31 -57q8 -13 36 -54l-1 4q5 -14 20 -37t23 -26zM56 627q16 0 79.5 -5.5t88.5 -5.5l7 10q-92 -11 -204 -11zM447 126q26 104 95 238q61 113 123 226q-12 -33 -23 -66
q-24 -67 -41 -108q-6 -14 -76 -85q-55 -56 -55 -121v-10q0 -15 1 -38.5t3 -36.5zM458 5q0 25 4 50.5t11 51.5q-4 -31 -7 -72t-3 -75q-5 19 -5 45zM284 234q0 12 -29 67q-25 47 -38 70q24 -41 54 -89q17 -35 17 -93q0 -67 -1.5 -105.5t-9.5 -73.5l-26 -17q8 44 16 89
q17 97 17 152zM51 590l47 -36q13 -15 48 -83q22 -44 45 -88q-42 71 -65 106q-38 58 -75 101zM266 -18q38 -5 77 -10.5t75 -5.5q-9 0 -55.5 -2.5t-73.5 -2.5zM446 -17l-1 -7l-70 7h71z" />
    <glyph glyph-name="Z" unicode="Z" horiz-adv-x="658" 
d="M620 -1q-56 6 -116 6q-47 0 -110 -3q-148 -7 -183 -7h-56l-83 1q-7 28 -7 60q0 10 2 38t5 33q30 54 155 196q120 137 182 191h-325v128l81 2q72 0 216 -1t216 -1v-143l-338 -374h332v-129zM597 623l11 29q0 -29 -1.5 -64t-5.5 -75q0 18 -2 62.5t-2 47.5zM603 65v41
q0 19 -8 31l-280 -2q84 11 169 23q25 0 69.5 -3.5t56.5 -3.5q5 -11 5 -28q0 -15 -3 -34q-7 -45 -7 -57q0 -6 2 -22q-2 3 -3 15.5t-1 20.5v19zM45 629q3 8 9 17q3 5 10 16q50 0 149 4t148 4q36 0 102 -7q34 -3 102 -11q-33 0 -322 9q-96 3 -192 3zM535 429q-2 -3 -7 -13
q-10 -21 -13 -25q-13 -17 -25.5 -33t-29.5 -35q-78 -86 -85 -94q-28 -35 -44 -63l-32 2q150 151 301 303l-24 -22q-18 -3 -25 -6t-16 -14zM227 332q-25 -38 -65 -86q-23 -28 -68 -82l-30 11q52 49 105 98q59 56 103 104q51 55 91 110l-12 2q-30 -35 -59 -69q-19 -23 -33 -42
t-32 -46zM423 -17q21 0 74 4q92 7 123 7l2 13l13 -15q-12 3 -45 3q-41 0 -132.5 -5.5t-170.5 -11t-116 -5.5q-15 0 -44 3t-43 3l-26 21q57 -11 96 -14t162 -3h107zM64 552q0 3 2 12v20v33q0 -3 2 -30.5t2 -38.5l-2 -80l-14 17l-2 22zM180 489q-17 0 -47 -2.5t-35 -2.5
q-2 6 -8.5 13.5t-9.5 10.5q24 0 59 -4q80 -9 99 -9q24 0 52.5 3t56.5 6q-24 -8 -54.5 -11.5t-63.5 -3.5h-49zM48 99q0 3 2 12v20v34q0 -3 2 -30.5t2 -38.5q0 -42 -3.5 -79.5t-13.5 -66.5l-1 104z" />
    <glyph glyph-name="bracketleft" unicode="[" horiz-adv-x="293" 
d="M245 718l-1 -60l-93 -2v-683h85l2 -62l-152 2v804zM93 746l80 -2l-101 -11l-24 16zM113 728q7 5 17.5 6t24.5 1h11q10 0 33 -5t44 -9zM61 497q0 47 3 127t3 96q0 -49 8 -148t8 -151q0 -60 -3 -145q-7 -196 -7 -244q-7 61 -10 121t-3 146v99t1 99zM57 314l-2 -393
q-9 39 -12.5 82.5t-3.5 93.5v254q0 63 4 188t4 188q0 -65 3 -155q7 -207 7 -258zM219 -106h-31t-36 -1q-20 0 -47.5 1t-48.5 7l30 8q23 0 60.5 -5t72.5 -10zM163 643l-3 -298q0 -72 3.5 -200.5t3.5 -163.5q0 41 10 179q5 69 5 108q0 76 -3.5 210.5t-3.5 172.5zM244 651h-56
l-5 -5l49 -2l21 1l5 26q0 12 -2.5 24.5t-4.5 25.5q-1 -31 -2 -48t-5 -22zM247 -65q0 -11 -1.5 -20t-5.5 -14l15 1l1 73l-1 9l-71 3l-7 -9h67l3 -8v-35z" />
    <glyph glyph-name="backslash" unicode="\" horiz-adv-x="469" 
d="M267 -88l-187 767l119 36q49 -248 51 -259q33 -154 60 -259q35 -137 75 -251zM49 716q45 19 90.5 30.5t96.5 15.5l-24 -26zM181 723q-33 -13 -72 -23q-25 -6 -72 -21l24 21q19 7 50 12.5t51 10.5h19zM372 -20q-52 153 -91.5 345t-57.5 369q33 -117 68 -233
q39 -139 58 -240q23 -132 23 -241zM399 -40q-41 154 -76 320.5t-69 331.5q27 -93 53 -186q43 -153 62 -243q30 -132 30 -199v-24zM234 -100q45 18 92.5 25.5t99.5 7.5q-45 -22 -95 -36t-91 -14zM77 646q40 -192 80 -363.5t86 -359.5q-62 175 -79 228q-47 137 -73 254
q-34 142 -34 235z" />
    <glyph glyph-name="bracketright" unicode="]" horiz-adv-x="311" 
d="M210 717v-804l-152 -2l2 62h85v683l-93 2l-1 60zM248 749l-24 -16l-101 11l80 2zM53 721q21 4 44 9t33 5h11q14 0 24.5 -1t17.5 -6zM235 497q1 -49 1 -99v-99q0 -86 -3 -146t-10 -121q0 48 -7 244q-3 85 -3 145q0 52 8 151t8 148q0 -16 3 -96t3 -127zM239 314q0 51 7 258
q3 90 3 155q0 -63 4 -188t4 -188v-254q0 -50 -3.5 -93.5t-12.5 -82.5zM77 -106q35 5 72.5 10t60.5 5l30 -8q-21 -6 -48.5 -7t-47.5 -1q-19 1 -36 1h-31zM133 643l3 -298q0 -72 -3.5 -200.5t-3.5 -163.5q0 41 -10 179q-5 69 -5 108q0 76 3.5 210.5t3.5 172.5zM52 651h56l5 -5
l-49 -2l-21 1l-5 26q0 12 2.5 24.5t4.5 25.5q1 -31 2 -48t5 -22zM49 -65q0 -11 1.5 -20t5.5 -14l-15 1l-1 73l1 9l71 3l7 -9h-67l-3 -8v-35z" />
    <glyph glyph-name="asciicircum" unicode="^" horiz-adv-x="446" 
d="M302 425q-12 35 -31 70q-56 105 -60 115l-82 -188h-74q56 133 65 154q49 112 72 141h38q28 -44 55 -107q80 -186 81 -188zM175 710l55 7l-81 2l-118 -291zM129 399q22 31 46 90q10 24 35 95l-55 -179l-66 -29l-52 29zM282 416q-15 25 -24 39q-18 29 -22 39l-9 58z
M386 399l-67 14l-17 -20zM244 732l173 -298l-14 -26zM276 732h-61l-37 25zM371 535l-72 164l-23 11z" />
    <glyph glyph-name="underscore" unicode="_" horiz-adv-x="459" 
d="M405 -44v-44q-87 0 -175 1l-176 2l-2 23q0 8 0.5 12t1.5 7zM57 -103q10 -1 41 -5.5t47 -4.5h82q13 0 39 3t39 3l92 -3q-40 -11 -76.5 -14t-99.5 -3q-21 0 -79 3.5t-87 3.5zM410 -99q-37 0 -124.5 -2t-93.5 -2h-28q-42 0 -63 2.5t-32 9.5q93 0 212 -0.5t129 -7.5zM407 -20
l21 -1v-83l-13 -13l2 71zM69 -35l-12 18l178 3q31 0 90.5 -6.5t79.5 -8.5zM34 -34l12 13l-3 -46q0 -24 4 -44l-14 -6q-4 20 -7 39q0 10 3 23t5 21z" />
    <glyph glyph-name="grave" unicode="`" horiz-adv-x="293" 
d="M249 517l-48 -38l-146 154q19 9 43 29q11 9 38 35q24 -52 51 -95.5t62 -84.5zM186 438l-2 31q-25 40 -65 83q-34 36 -76 74q71 -94 143 -188zM128 717l2 -17l-85 -70l-17 13q25 18 48 34.5t52 39.5zM249 530l23 -4l-130 163q44 -63 55 -78q25 -37 52 -81zM268 519
l-33 -40l-42 -19q23 17 47 35q5 4 28 24z" />
    <glyph glyph-name="a" unicode="a" horiz-adv-x="475" 
d="M316 77l6 64q-20 -32 -38 -46q-23 -18 -57 -18h-54q-77 0 -103 52q-17 35 -17 122q0 65 29.5 99t94.5 34h112q7 0 12 -5t8 -13q3 11 5.5 21.5t2.5 21.5q0 26 -16.5 37t-44.5 11h-39q-14 0 -28 -6q-8 -14 -11 -25q-30 7 -54 7q-14 0 -29.5 -1.5t-33.5 -5.5
q0 78 37.5 108.5t118.5 30.5h37q92 0 130 -43q35 -40 35 -134v-311q-23 4 -52 4h-31q-14 -3 -20 -4zM271 295q-19 0 -42.5 -4t-43.5 -7.5t-26 -22t-6 -42.5q0 -21 9 -33t29 -12h61q21 0 28.5 11.5t7.5 33.5v17q0 27 -3 43t-14 16zM410 245q15 79 18 98q9 58 9 98l-1 91
q-61 25 -97 36q-54 16 -101 16l45 11q59 -20 81 -31q58 -28 58 -52q0 -17 0.5 -24.5t3.5 -33.5q0 -12 4 -132q1 -30 1 -79zM216 584q-23 -2 -45.5 -4t-45.5 -6l114 30zM80 552l-7 14l52 8zM243 435l-13 -8q-4 0 -17 6l-7 -2l-28 -5l19 17zM289 440l7 -4l-14 -1zM437 164
l-5 41l22 47q-8 -43 -16 -85zM439 121v-9q-5 15 -9 31l2 4l5 17zM80 540q-3 -4 -27 -67q-9 -24 -20 -36l24 -2l-12 -11q0 20 7 61t7 61zM251 71q37 0 90.5 -7.5t97.5 -16.5l-13 -16l-6 18q-42 5 -79 5.5t-76 0.5h-13h-19t-23 -2zM285 47l2 -2h-6zM61 120q-13 28 -21 48
q-15 37 -15 42q0 52 42 123q20 33 41 66l-11 -45l-53 -52l1 -7q-7 -6 -13.5 -36.5t-6.5 -46.5v-6q26 -36 53 -72zM173 38h19l40 -1q-19 6 -42 14t-36 8q-6 0 -18 -2.5t-15 -2.5q-13 0 -29 12t-23 13l1 35q28 -32 46 -45q11 -8 57 -31zM274 211l-3 -2l-36 -24l-41 8zM126 388
q27 4 55 8t51 4h72l-5 -12h-173zM270 286l8 -14l-39 1l-61 -18l-13 -54l-6 40l14 22z" />
    <glyph glyph-name="b" unicode="b" horiz-adv-x="464" 
d="M291 61q-16 0 -51 3t-53 3q-36 0 -64 -1t-59 -5v518q43 -7 94 -7q14 0 52.5 3.5t56.5 3.5q67 0 93 -37q22 -32 22 -102v-15q0 -35 -4 -50q-7 -27 -30 -39q35 -6 48 -49q8 -27 8 -74q0 -76 -18 -108q-25 -44 -95 -44zM249 476h-86q2 -6 3 -22t1 -23v-10q0 -10 -0.5 -20.5
t-3.5 -16.5l51 2l35 -2q18 0 26 12.5t8 32.5q0 21 -7 34t-27 13zM214 285q-10 0 -18 -0.5t-33 -4.5q7 -27 7 -59q0 -30 -7 -57l53 -3q50 0 64 7q24 12 24 55q0 42 -25 54q-16 8 -65 8zM399 295l13 15l-35 26q6 -10 13.5 -22t8.5 -19zM179 261l7 3q6 -5 9 -16zM375 566
l-15 -11q6 -8 17.5 -24.5t17.5 -26.5zM399 383v-21q-4 -9 -5 -13l2 18q0 10 -5 28t-5 21q4 -8 8.5 -18t4.5 -15zM380 498l14 -28l1 34l-8 -10zM399 455l-6 -14v16l1 13zM55 594q44 10 94 10q47 0 113 -10q94 -14 113 -16l-35 18q-12 -4 -25.5 -5.5t-31.5 -1.5zM421 214
l-3 -39q-2 -8 -9 -24q-16 -33 -17 -40l-6 -37q23 34 29 55t6 64q0 26 -1.5 41.5t-7.5 46.5q5 -7 7 -18.5t2 -22.5v-26zM427 107q-6 -12 -12.5 -24.5t-13.5 -23.5q7 23 14.5 45.5t17.5 49.5zM292 31l51 21l-52 -1zM384 75l-8 -14l-33 -4zM49 62l-2 502h8q0 -75 -4 -162.5
t-8.5 -186.5t-4.5 -152l5 6zM281 51l3 -14l-37 6zM39 303q0 -40 -2.5 -106.5t-2.5 -79.5l17 2q-10 32 -12 98.5t-2 115.5v31zM234 63q-13 -5 -45 -8.5t-48 -3.5q47 -5 94 -9l-8 10zM48 47l1 8l92 -4q-19 -2 -44 -3t-49 -1zM171 453q11 3 28 4t32 1h19l18 -1v-8l8 13l-27 -3
q-18 0 -39 4t-36 12zM284 184q-21 -8 -34 -10t-23 -2l-40 3q48 9 97 9zM172 393q21 0 41 -0.5t43 -4.5l-2 10l-71 4l-8 30zM270 401l-3 27l9 4zM175 177l12 65l-12 6v-71zM279 267l17 -55l-3 -19l-17 68l-70 -1l-12 17z" />
    <glyph glyph-name="c" unicode="c" horiz-adv-x="502" 
d="M276 68h-45q-116 0 -149 81q-19 46 -19 189q0 126 19 173q33 80 137 80h67q99 0 131 -42q28 -37 28 -140q-16 2 -22 2q-9 0 -27 -2t-29 -2l-25 2q0 49 -27 62q-17 8 -73 8q-48 0 -66 -35q-14 -27 -14 -82q0 -17 1 -41t3 -52q0 -62 21 -77q17 -12 83 -12q41 0 56.5 13.5
t15.5 54.5q18 7 33 7q10 0 29 -4t29 -4q8 0 12 1q0 -108 -30 -142q-33 -38 -139 -38zM418 588q-16 5 -47 14t-53 14q-4 -5 -28 -12q-14 -4 -31 -7q67 0 100 -1.5t73 -10.5l4 -43zM452 381q-15 0 -23.5 1.5t-30.5 6.5q-2 3 -25 7.5t-24 7.5q24 0 50.5 -4t52.5 -8l-2 140
q4 -43 8 -72t11 -64l-4 -14zM445 148l11 30l-6 32l10 56l2 -122zM317 451l-3 -3zM165 592l53 12l-64 4l-40 -25zM239 604l9 19l30 9zM189 361q-4 -12 -8 -30q-7 -26 -6 -29l12 -73l7 96l-4 79q-2 -8 -2 -12q0 -16 1 -31zM188 432v8v10l9 6q0 -30 -7 -52q-1 7 -1.5 15.5
t-0.5 12.5zM216 188q-2 6 -13.5 10.5t-12.5 10.5l28 -10q9 2 51.5 4t64.5 13l-24 -25h-11l-69 2zM461 124l-14 2q-8 -12 -17 -22q-14 -14 -20 -21zM394 64h-21q14 5 19 8q12 8 18 11q-8 -10 -16 -19zM83 553l-1 -5q-13 -20 -25 -39q-6 -11 -18 -65q3 30 7 61q3 9 30 42l-2 9
q11 16 17 24q20 29 23 35q-16 -21 -21 -29q-10 -17 -10 -33zM114 90l14 14q-28 37 -55 74q-29 45 -29 135q0 24 1 71.5t1 71.5q17 28 42 62q20 27 47 60l-13 14q-2 -6 -54 -107q-25 -49 -25 -111q0 -93 12.5 -146.5t58.5 -137.5zM137 88l-7 -20l11 -3l104 -29zM54 189
q3 -22 7.5 -28t4.5 -12q0 -3 -2.5 -9t-2.5 -8q0 -9 21 -34q15 -16 18 -20v26l-42 36q-10 32 -18.5 61t-12.5 59q8 -18 16 -34t11 -37zM282 464l12 -7q-13 -2 -31 -3.5t-25 -1.5l-36 16zM347 67l7 -16h-33q-20 0 -55 2.5t-41 2.5zM434 251l4 9l-92 -3z" />
    <glyph glyph-name="d" unicode="d" horiz-adv-x="497" 
d="M159 67q-13 0 -40 1t-40 1l1 43q0 48 -4 145t-4 145q0 32 3.5 96.5t3.5 88.5l44 2h47.5t45.5 1q129 0 167 -33q51 -44 51 -199v-59q0 -168 -54 -205q-39 -27 -221 -27zM334 351q0 52 -11 84q-17 49 -60 49h-85q3 -29 4.5 -67t1.5 -85q0 -27 -3 -80t-3 -80h86q42 0 59 49
q11 33 11 85v45zM452 511l-60 65l35 -16zM436 131q13 44 18.5 91.5t5.5 99.5q0 -24 -3.5 -92.5t-3.5 -102.5zM249 605q44 0 79 -6t77 -20l-16 17q-4 0 -61 2t-81 2q-46 0 -92 0.5t-91 0.5l33 13l23 -5q12 0 36 4t35 4q9 0 29 -6t29 -6zM449 494l1 -48v-83q0 -93 -5 -146
q-10 -109 -40 -142l16 -7q16 72 21 143t5 174q0 20 -1 65.5t-3 50.5zM444 112q-5 -9 -18.5 -36t-18.5 -32q8 19 16.5 39t13.5 40zM399 49l-4 -2l7 11zM387 85q-4 -1 -32 -11.5t-46 -14.5l-96 -18l40 15h6l26 3q26 4 53.5 10t45.5 10zM56 79l-5 -7q0 57 3.5 156.5t7 184.5
t3.5 170h-6l2 -511zM33 69q7 59 9 116.5t2 124.5q-1 42 -1 83v82l15 -62q0 -10 -9 -54q-4 -19 -4 -32l-1 -57q-1 -23 -1 -46v-47q0 -25 2 -57t6 -49zM179 57q-35 -6 -61 -7.5t-74 -1.5l28 12l36 -2zM211 52h11l12 -1q-12 -4 -22 -4h-60q9 2 24 3.5t35 1.5zM193 325
q0 71 10 154l1 -17q0 -51 -3 -103q-9 -155 -9 -172q2 9 2 19.5v16.5q0 15 -0.5 30t-0.5 31v41zM330 245l-7 98v-35q0 -45 -5 -59q-16 -31 -33 -73q12 17 23 34t22 35zM271 470l26 -15q10 -12 17 -32t7 -37l-28 48l-62 36h40zM268 178h-67v13l76 -1z" />
    <glyph glyph-name="e" unicode="e" horiz-adv-x="418" 
d="M281 75q-34 0 -104 1t-105 1q0 34 -2 113.5t-2 85.5q0 55 2 182.5t2 135.5h260v-103h-161q2 -8 2 -16.5v-16.5q0 -10 -1 -31t-1 -31h174q-1 -10 -1 -21.5v-17.5v-32t1 -32l-44 3q-32 0 -80.5 -1.5t-49.5 -1.5q1 -17 2.5 -31.5t1.5 -35.5q0 -8 -0.5 -18t-3.5 -27
q14 3 36.5 4t42.5 1q27 0 54 -1t53 -4v-104q-12 0 -37 -1t-39 -1zM378 193q-5 -17 -5 -31l3 -44l-2 -57q-5 31 -9 64t-4 63zM354 484l8 7q-5 24 -7.5 35t-8.5 23zM332 594l7 4l7 -49zM365 390l-11 12q0 -41 -1.5 -59t-7.5 -50l16 -3v12q0 39 -5 87zM231 492l-49 -16h146
q-16 7 -50 9t-47 7zM367 469l1 -9l-32 16zM313 586l32 22q-25 0 -76 1t-76 1q31 -6 63 -11q52 -9 57 -13zM72 598l-1 5l125 -9zM353 601l19 -4l-7 13l-17 -67q0 26 5 58zM231 419q10 0 23 -5l79 -24l-69 4q-17 11 -34 23q-8 4 -33 4q5 -2 17 -2h17zM183 410l-3 16
q17 -3 25.5 -5.5t28.5 -10.5h-51zM289 209l2 -21q9 3 25.5 5t28.5 2l37 -2q3 -10 5 -14q6 -9 8 -13q-24 18 -51.5 30.5t-54.5 12.5zM225 211q6 0 21 -6q2 -1 8 -3h23q-15 1 -46 -5q-6 -1 -47 -11v18q7 1 21 4t20 3zM64 364q-8 31 -12 71.5t-4 76.5q0 20 1 33.5t7 56.5h-16
q4 -17 6 -60t2 -79v-15v-13v-12q0 -17 -0.5 -32.5t-0.5 -28.5zM48 79l8 8l6 -9v504h9q0 -137 -5 -253t-18 -250zM283 66q32 0 53 -1.5t45 -5.5l-1 22q-20 -13 -139 -22t-183 -9l-32 3q124 13 257 13zM40 443q0 -53 6 -135q14 -192 14 -230l7 10l-7 -2v91q0 93 -3.5 160.5
t-16.5 105.5zM262 612q-35 -4 -81.5 -6t-90.5 -2l-32 2q25 4 51 8q28 3 70.5 4t48.5 1q33 0 66 -0.5t67 -0.5l-24 4q-11 0 -27 -3q-38 -7 -48 -7zM300 287q5 0 10.5 -1t24.5 -4l-137 -12l-10 12q26 0 42 1q64 4 70 4z" />
    <glyph glyph-name="f" unicode="f" horiz-adv-x="408" 
d="M269 495q-43 0 -98 -5v-107q38 7 80 7q18 0 38.5 -1.5t45.5 -5.5v-103h-164v-215h-99l-3 313v52q0 38 1 76l2 76h285v-92q-48 5 -88 5zM362 571q10 -47 11.5 -56t1.5 -25q-5 -5 -11 -10.5t-6 -8.5q8 54 9 64t1 36h-6zM359 370q-4 -15 -7 -32.5t-4 -33.5l-6 96zM362 262
q-7 12 -7 18v21.5t2 23.5q2 -13 3 -30t2 -33zM62 495l-4 102q6 0 65 -4q15 -1 38 -1h73q21 0 63.5 2t53.5 7l1 -22l-298 24zM186 400v63l8 17zM206 447l-4 -44l-12 36zM317 259l-36 -1q-13 0 -28 2t-36 6l35 11zM338 270l3 -10q-16 7 -24 10h21zM179 159v46l3 64l13 -3
q0 -19 -6 -56t-6 -56q0 -13 -1 -41.5t-1 -42.5q0 15 -1 45t-1 44zM39 71l-6 -7q0 58 6 156t12 188t6 163h-9l-2 -254t-1 -254zM58 72q5 29 6.5 47t1.5 61v15v42q0 23 -2 49q-5 65 -5 81v80l11 -44q0 -1 -2 -31t-2 -42v-88q0 -39 3 -86.5t7 -84.5zM79 58l9 -2l95 -3l-62 -9
q-9 -2 -17.5 -4t-16.5 -2q-4 0 -18.5 2t-24.5 4zM342 484l7 -9l-147 10zM210 395l122 6l-5 -10z" />
    <glyph glyph-name="g" unicode="g" horiz-adv-x="507" 
d="M274 66h-45q-98 0 -139 87q-30 63 -30 175q0 123 21 175q35 86 136 86h64q75 0 118.5 -45.5t43.5 -120.5h-104q-5 37 -36 48q-17 6 -64 6q-48 0 -63 -35q-9 -21 -9 -79v-63q0 -74 14 -94q19 -27 87 -27q53 0 65 24q7 14 7 74h-73v100q20 0 59 -3t59 -3q28 0 58 6v-131
q0 -91 -39.5 -135.5t-129.5 -44.5zM415 579l29 -50q5 -23 7 -51.5t5 -65.5q0 3 -6.5 8t-6.5 7l3 25q0 11 -12.5 44t-19.5 40q1 9 8 17q-9 4 -18 9zM373 584l-49 15q-9 0 -28 -1t-27 -1h-15l-99 11l181 -4zM399 600l-1 -5l-25 6zM467 325l-2 -14l-9 -92v7q0 16 2 48t2 49
l-4 36zM238 459l44 -4l52 -44l98 -14l15 11h-25q-20 0 -40 1t-35.5 4t-44.5 17q-22 10 -44 21h-23l-39 3q12 2 26 4t16 1zM122 581q-12 -11 -30 -34q-14 -18 -27 -36l31 74l55 12zM248 275q0 -8 10 -8q4 0 24 1q17 0 32 -3t16 -11l4 -45l-21 47l-51 23q-2 13 -4 28t-2 25
l3 33l14 -9q-17 -20 -21 -35t-4 -46zM411 87q10 0 13 10q10 29 17.5 59t7.5 55l16 -8l-5 16q-10 -46 -18.5 -74t-16.5 -36l-24 -24q-6 -6 -20 -6l16 11zM183 262q0 22 -1 69t-1 70q0 15 2 26t9 11q9 0 9 -13q0 -19 -11 -79q-16 -86 -16 -87l22 -58q-2 21 -2.5 32.5
t-5.5 18.5t-5 10zM199 50q40 0 86 4q3 0 86 9l-16 -23q-11 7 -19 12q-15 9 -19 9q-10 0 -41.5 -8.5t-42.5 -14.5zM68 510q-3 -8 -11 -81q-2 -24 -7 -74v-43q0 -41 3 -60.5t17 -61.5q-5 8 -8 22.5t-1 23.5q-7 8 -10.5 53.5t-3.5 73.5q0 73 16 115.5t32 84.5zM32 348
q3 -34 7 -68q7 -43 23 -65q1 -5 -3 -12q1 -4 13 -20l16 -20q80 -96 202 -137l2 22q-44 0 -75.5 4.5t-64.5 19.5l-53 61q-8 9 -16 19q-15 19 -25 36q-5 9 -8 40t-3 62q0 41 3 61zM308 194l-85 -11l-3 16zM422 382h-142l-3 8z" />
    <glyph glyph-name="h" unicode="h" horiz-adv-x="462" 
d="M292 78v215q-20 5 -34 7.5t-31 2.5q-19 0 -30 -1.5t-33 -8.5v-226h-99l-1 157v119l1 252h99q-4 -36 -4 -80q0 -20 2 -67.5t2 -51.5q14 -2 32.5 -3t35.5 -1h37q16 3 23 4v210h99v-528h-99zM301 625l8 -2l19 -1q6 -1 18 -1q8 0 24 1t24 1l-13 -9l-6 1l-40 -3l-44 1z
M405 282v161q0 36 -1 58q-4 89 -4 96l11 28q0 -13 2 -46t2 -36q0 -70 -3 -141q-9 -212 -9 -235zM55 612q36 0 62.5 -1.5t39.5 -9.5l-66 -3q-20 0 -36 14zM167 407l-3 146v23t3 25q7 -64 11.5 -110.5t4.5 -81.5l5 -4zM395 54l8 93q3 -29 3.5 -37t0.5 -27v-16l-1 -13h-11z
M56 420l-1 -81q-4 35 -6 65t-2 67l3 128q3 -34 4.5 -79.5t1.5 -99.5zM287 119q0 -14 -1.5 -20.5t-2.5 -12.5l-8 1q0 17 -2 59t-2 45q0 6 6 28t6 40q0 9 -1 14zM343 74q8 0 31 -2t25 -2l1 -14l-114 9q18 4 28 5q22 4 29 4zM210 289q-14 0 -23 -11l-14 -218q0 30 -2 100t-2 76
v32l1 20h35l32 -12l46 10l-22 -1h-30q-14 4 -21 4zM51 237q0 -37 -1 -60q-4 -93 -4 -102q-1 12 -2 39t-1 50v30v63l3 104q3 -29 4 -73.5t1 -50.5zM166 51l-123 -2q53 13 72.5 16t46.5 3zM283 612l3 -147v-12q0 -18 -3 -36q-7 64 -10 96q-6 61 -6 96l-5 5zM279 411l-1 -10
h-64l-7 10h72z" />
    <glyph glyph-name="i" unicode="i" horiz-adv-x="238" 
d="M173 75h-99q0 63 1 192t1 193l51 1h23.5t22.5 -3v-383zM74 569h99v-88h-59h-15q-6 0 -13 1t-10 1zM69 592q12 0 32.5 2.5t23.5 2.5q20 0 36.5 -2t26.5 -3q-48 0 -73.5 -1.5t-51.5 -9.5l-19 12zM108 577l-13 1q9 5 43 6.5t45 1.5l16 -8zM59 429q0 25 2 81.5t2 60.5
q0 -36 3 -73q9 -112 9 -125q0 -34 -4 -104t-4 -105q0 44 -4 132t-4 133zM59 221l-3 -140q-7 27 -10 68.5t-3 74.5v46q0 61 3.5 168t3.5 139q0 -73 2 -133q7 -208 7 -223zM181 66l10 -9l-140 10q17 1 41.5 3.5t29.5 2.5q16 0 30 -2.5t29 -4.5zM183 569q0 -44 -2 -144.5
t-2 -107.5q0 -40 3 -120t3 -121q0 30 6 92t6 92q0 70 -1 114q-4 174 -4 190zM99 474l32 -2l22 2h22l-3 -8h-35h-35q-15 3 -22 4l-5 4h24z" />
    <glyph glyph-name="j" unicode="j" horiz-adv-x="423" 
d="M211 30q-81 0 -117.5 33.5t-36.5 114.5v48q24 -4 55 -4q25 0 44 4q0 -51 4 -63q10 -30 50 -30q26 0 38 14.5t12 41.5v297h99v-308q0 -81 -33.5 -114.5t-114.5 -33.5zM359 603v-86l-99 -3v89h99zM355 620l-103 -5q0 -15 -1 -25q-4 -40 -4 -44q0 -51 3.5 -155.5t3.5 -143.5
q0 -13 -3 -39t-3 -39q0 72 -5 163q-12 218 -12 273q10 -1 17 8.5t11 14.5q28 0 55.5 -1.5t40.5 -6.5zM183 170l53 -19l-25 -3q-12 0 -26 4t-14 12l-8 96zM142 237q-15 -2 -44.5 -3t-44.5 -1l-2 -57q0 -12 2 -42t2 -33q1 -4 3 -8.5t5 -10.5q0 -3 -5 -6t-6 -4q-1 7 -5.5 37
t-4.5 46q0 20 2.5 55t2.5 43q10 -4 35 -4q13 0 43.5 2t33.5 2zM115 39q10 -5 24.5 -10.5t28.5 -9.5h-4q-26 0 -53 12q-7 3 -48 26v5l1 14q12 -9 25 -19q18 -14 26 -18zM363 128q0 -24 -3 -34q-13 -22 -25 -46q9 7 14.5 12.5t21.5 24.5q0 21 2.5 58.5t2.5 45.5
q0 42 2.5 130.5t2.5 110.5q0 70 -2.5 108t-11.5 81zM321 37l-130 -26l-4 4h-13l-3 -1l6 -1l-4 4q77 2 148 20zM334 506l26 -2l-9 -9h-78l-14 7q12 0 37 2t38 2z" />
    <glyph glyph-name="k" unicode="k" horiz-adv-x="502" 
d="M323 68l-129 223h-15v-223h-100q0 55 -1 90q-4 138 -4 152q0 66 2.5 176t2.5 132h100v-223h14l117 191h123l-148 -236l163 -282h-125zM448 596q-3 0 -35 3t-46 3q-25 0 -47 -1.5t-26 -3.5l10 19q7 -1 20.5 -4t26.5 -2l-2 2q29 -7 63.5 -14.5t51.5 -14.5l-10 -14zM430 549
q-9 -15 -19 -37q-5 -12 -10 -23.5t-22.5 -28.5t-25.5 -41l-32 -19q64 92 75 109q27 43 32 63zM185 430q10 7 35 47q18 29 33 56l-64 -124zM265 533q5 15 11.5 26t15.5 20zM157 626q-50 -6 -100 -16l6 15q21 0 63 1t63 1q0 -1 -2 -21t-2 -28q0 -3 2 -42.5t2 -56.5
q0 3 -1 23.5t-1 34.5q0 35 6 59.5t22 33.5zM317 367q27 -84 58 -147q25 -52 82 -142q-22 32 -43 65q-24 38 -39 68l-8 20q-9 10 -13.5 16t-10 13.5t-11 26.5t-7.5 23q-9 23 -25 34zM379 52q4 0 15 -2h26h42l-5 -11zM320 59v5l59 -12zM187 256q6 -8 13 -16q69 -94 82 -114
q27 -43 34 -69q-55 97 -125 207zM62 57q3 16 4 41t1 28q0 12 -1 38.5t-1 39.5v374l6 -1q0 -154 -3.5 -277.5t-14.5 -239.5l4 5zM70 64q12 -3 25.5 -5t25.5 -1l12 1l39 -2l1 3q4 0 21.5 -9.5t22.5 -10.5q-37 6 -47 7t-26 1q-25 0 -47 -1.5t-26 -3.5zM188 91q0 8 1 24
q0 5 -2 53t-2 68l18 -64q0 -20 -2.5 -59.5t-6.5 -45.5l-6 9v15zM58 598q0 -56 -3 -146.5t-5.5 -164t-2.5 -163.5v369q5 52 11 105z" />
    <glyph glyph-name="l" unicode="l" horiz-adv-x="388" 
d="M79 68q0 35 -2 118t-2 89q0 54 2 178.5t2 131.5q10 4 19.5 5t22.5 1q12 0 28.5 -2t29.5 -4v-413l99 3h26.5t28.5 -3v-104h-254zM176 559q0 16 0.5 26t3.5 41l5 1q0 -2 1 -26t1 -31l1 -386l18 3q-30 153 -30 314v58zM216 187l-11 -3q0 29 -3 87t-3 88zM233 185l21 -1h93
l-32 13h-32q-14 0 -26 -5q-14 -8 -23 -12zM67 608v-75v-111l-9 187h16l89 -3zM63 65q4 30 6 87.5t2 121.5q0 59 -1.5 136t-2.5 166l6 1q0 -72 -5 -163.5t-10 -193t-5 -154.5l6 6zM313 48q3 0 11 3t12 3l-12 -21q-14 0 -49.5 3.5t-53.5 3.5q10 3 40.5 5.5t51.5 2.5zM143 44
h115l33 -3l18 19q-60 0 -104.5 -3.5t-97.5 -13.5zM72 43l-17 11l80 -1zM54 200l-3 60q-7 -35 -13 -70q0 -18 1 -55t1 -55zM54 276l-9 -2l2 -2l4 26l3 65v-87zM349 45q-9 62 -9 65q-4 35 -4 66l12 -6v-73q0 -11 -1 -19q-4 -32 -4 -35z" />
    <glyph glyph-name="m" unicode="m" horiz-adv-x="635" 
d="M392 490l-24 -54q-12 -42 -28 -110q-8 -34 -15 -67q9 111 38 188q31 73 53 129zM435 601l3 6l18 -4l103 6l-7 -6zM587 568q0 -28 -4 -85t-4 -85q-9 90 -9 183zM578 321q0 -38 -3 -91q-7 -123 -7 -155l18 2q-7 44 -9 105.5t-2 117.5v75zM197 607l10 -11l-116 8l-3 9
q15 -4 36 -5t46 -1h27zM307 287l-91 286q11 -30 25 -79l14 -48q3 -9 14 -24q2 -2 6 -7q6 -27 13.5 -55t20.5 -47zM410 178q-3 -4 -25 -47.5t-22 -46.5q0 -8 9 -8q2 2 10 40.5t11 46.5q29 89 59 179q3 12 4.5 33.5t2.5 40.5q-10 -34 -21 -88q-5 -23 -28 -150zM479 494
l-124 -422q-7 0 -15.5 0.5t-11.5 0.5q-12 0 -24 -0.5t-24 -0.5l-121 415q0 -104 -1 -208l-2 -208h-84v513q14 0 46 2t33 2q31 0 56 -4l107 -372l115 371h134v-513q-17 -4 -41 -4h-26q-12 3 -17 4v424zM487 50l-4 9l37 -5zM594 62q-6 -2 -23.5 -3.5t-31.5 -2.5zM272 90l-20 1
l-5 16q-19 92 -28 138q-13 61 -31 138q31 -138 46.5 -191t37.5 -102zM250 52q4 1 10 3.5t6 5.5l45 -6zM379 61l-45 -7zM50 587l25 25l-13 11q-4 -30 -5.5 -46.5t-1.5 -24.5t2.5 -22.5t2.5 -17.5l-3 -190q-4 50 -5.5 91t-1.5 108v66zM55 58l11 23q-2 4 -2.5 12.5t-0.5 14.5
v26l-2 8q-6 55 -8 82q-5 52 -5 82l9 33q0 -21 -2 -71t-2 -54zM174 64q-17 0 -51.5 -1t-51.5 -1q15 0 52.5 2t39.5 2l-8 343q0 -42 13 -215q6 -80 6 -130zM259 465l-28 137l-15 -6z" />
    <glyph glyph-name="n" unicode="n" horiz-adv-x="533" 
d="M403 63q-13 0 -27.5 1t-27.5 4v338q0 19 -25.5 31.5t-47.5 12.5q-30 0 -54.5 -11t-50.5 -33v-338h-99v517q26 3 33.5 3.5t24.5 0.5l47 -3v-42q27 20 63 28.5t75 8.5q67 0 112 -45t45 -113l1 -355q-38 -5 -69 -5zM184 401l39 14l-3 -1q4 1 27.5 10t28.5 9q7 0 24 -4
q4 -1 13 -3q-30 -6 -59 -12l-55 -5zM468 532q9 -13 11 -37t2 -61q-8 8 -17 50t-14 45l-86 63l7 11zM484 57v347q0 -71 2 -129q7 -202 7 -217l-32 -10q-19 0 -44.5 3.5t-48.5 7.5zM159 608q-36 -6 -50 -9t-24 -5l-18 22zM199 598v-4l-8 -32l-22 45q15 -5 30 -9zM344 386
q-10 -22 -12.5 -42t-2.5 -52q0 -16 1 -45.5t1 -41.5v-40q0 -33 2 -64.5t7 -36.5l-18 -4v38q0 30 4 89t4 88v81q0 10 -3 29.5t-4 27.5zM63 74q-4 32 -8 66t-4 63q0 22 9 218q3 65 3 130q0 11 -2 28.5t-3 32.5q0 -8 -2 -22t-2 -21q0 -21 7 -310q2 -83 2 -185zM168 64
q10 71 12.5 128.5t2.5 149.5v39l7 -101q3 -4 3.5 -14.5t0.5 -21.5v-22l2 4q-5 -24 -6 -26q-6 -18 -12 -18q-11 0 -11 19v4h18l1 -143zM63 609q-7 -56 -9.5 -111t-2.5 -165v-125h8q0 48 -9 239q-4 85 -4 143zM60 50l2 16h7q25 0 51.5 -4t54.5 -11zM320 596l26 -10l-8 -11
q-13 3 -26 4t-26 1h-31l-39 -2l12 6l23 11l25 1h44z" />
    <glyph glyph-name="o" unicode="o" horiz-adv-x="505" 
d="M464 245q0 -74 -6 -93.5t-45 -69.5q13 27 27 55q9 22 9 35q0 55 -3 110q-9 165 -9 183q0 13 2.5 31t5.5 34q10 -84 14.5 -147t4.5 -138zM277 70h-57q-93 0 -131 67q-30 53 -30 154v88q0 96 32 149q40 66 129 66h51q91 0 133 -64q36 -55 36 -151v-88q0 -107 -27 -155
q-37 -66 -136 -66zM340 376q0 55 -10 75q-16 31 -65 31h-33q-37 0 -55 -19t-18 -86v-81q0 -56 9 -77q16 -36 64 -36h33q48 0 64 35q11 24 11 79v79zM328 615l-30 7l20 -23l125 -39l-3 -56q-5 22 -5 23q-3 12 -9 23q-3 2 -69 45q-26 17 -29 20zM80 540q13 13 33 31
q33 30 40 30q13 0 26.5 -0.5t28.5 -0.5q24 0 43 2.5t37 9.5l-36 9q-20 0 -38 -3q-34 -7 -67 -13q-16 -16 -33 -37q-22 -28 -50 -69zM358 73q-4 -2 -27 -3t-30 -4l34 -17q23 16 46.5 34.5t42.5 38.5q-21 -17 -32 -25q-20 -16 -34 -24zM244 67l21 -13l4 2l37 -7zM50 509
q29 30 56 63q20 25 31 41l-33 -14q-34 -52 -40 -65q-12 -28 -12 -81q0 -10 2.5 -30.5t2.5 -26.5l-1 -175q-2 19 -7 69.5t-5 74.5q0 23 3 71t3 73zM112 82q5 -6 34.5 -20t36.5 -14q9 0 23 1l28 2q8 0 14 -2q-29 0 -82 14t-82 29q-11 23 -20 59q-4 17 -13 61q16 -42 27 -68
q19 -44 34 -62zM324 316q0 -11 -2 -33t-2 -33l8 -29v46q0 22 -1 44t-4 34zM319 435q13 -47 13 -90zM167 417q7 -64 13.5 -100.5t19.5 -83.5q-5 -15 -9 -29l15 2q-24 39 -33.5 74t-9.5 84l21 94zM254 470l39 -8l10 -14l-36 10l-39 -2l-17 4zM276 201l29 14l-7 -14l-46 -11
l-27 11h51z" />
    <glyph glyph-name="p" unicode="p" horiz-adv-x="436" 
d="M166 210v-191q-6 -1 -17.5 -2t-21.5 -1l-60 3v555h157q85 0 118 -49q27 -40 27 -131q0 -121 -43 -155q-37 -29 -160 -29zM180 181l-1 20l129 6q-43 -7 -71 -12t-57 -14zM226 450h-54v-116h57q29 0 38 13.5t9 44.5t-10 44.5t-40 13.5zM325 578l36 -55q-39 42 -91 64z
M357 536q6 -4 18 -54q21 -91 21 -121q0 -18 -15 -52q-6 -13 -25 -50q7 39 17 57t20 34q-5 51 -11.5 95t-16.5 86zM41 590q2 0 45.5 -2t61.5 -2q54 2 109 5q-5 0 -16.5 -5t-17.5 -5q-15 0 -44 3t-43 3q-12 0 -48.5 -7t-44.5 -11zM395 318q-38 -65 -59 -89t-44 -36l25 3
q27 51 34 66q18 37 30 68zM54 354l4 -236q2 -18 4 -30.5t2 -25.5v-7l-18 1q0 27 7 134q3 46 3 80zM172 48q0 10 4 34l5 30q0 -9 4 -26t4 -26t-4 -24t-7 -27q-2 10 -4 21t-2 18zM172 150l9 5l-6 -38zM43 51l-8 -8q0 54 5 156.5t10 195t5 165.5h-7v-543zM74 12q32 -5 56.5 -8
t51.5 -6l-9 -12l-3 14l-60 2h-15q-8 0 -24 -1t-24 -3l7 43zM183 350q0 15 -1 43.5t-1 41.5q6 -34 9.5 -49t9.5 -34zM250 438l14 -23q3 -12 4 -21t1 -24l-12 9l-8 47l-54 16zM257 360l4 -10l-59 -7z" />
    <glyph glyph-name="q" unicode="q" horiz-adv-x="533" 
d="M453 53l-46 36q-19 -19 -51.5 -25t-70.5 -6h-57q-94 0 -133 67q-30 52 -30 153v88q0 111 39 160q44 55 150 55q114 0 156 -51q37 -45 37 -164v-84v-13q0 -41 -5 -93l48 -38q-8 -9 -16 -30q-20 -53 -21 -55zM273 469h-34q-37 0 -55 -19t-18 -86v-82q0 -55 10 -77
q16 -35 63 -35h34q19 0 28 3l-60 48l42 82l63 -49v24v91q0 51 -11 71q-16 29 -62 29zM397 558q-14 10 -19 16l47 -29q4 -3 7.5 -10.5t7.5 -17.5zM451 508q0 -4 4 -29.5t7 -44.5l-27 69zM462 398v-8v-1v-16v-9l-8 58zM449 177q0 16 2 52.5t2 39.5l-3 70l12 -160zM237 600
q-29 -9 -64 -22.5t-62 -24.5q-29 -55 -48.5 -123t-19.5 -125q0 -36 4 -67.5t14 -63.5l8 8q-10 31 -15 48q-13 45 -13 80q0 5 5 19t5 21q0 53 20 114q24 74 60 94l62 36q14 7 26 11.5t24 4.5q10 0 20.5 -2t26.5 -6l-17 -12l-9 -2zM462 41l31 82l-5 -57zM403 65l-7 -3l42 -16
l-10 -16l-16 22zM399 46q-1 0 -53 -1.5t-86 -1.5l120 19zM229 31l-9 4h17zM73 102q-6 8 -19 60t-16 72q3 -9 8 -34t6 -26l39 -68l-15 -9l15 -14zM34 122v4l7 -10zM95 118q11 -14 31.5 -36.5t34.5 -35.5l-56 35zM203 40l-6 -2l-19 17zM322 349q0 5 4 16t4 17q0 10 -0.5 20
t-0.5 21v12q10 -20 10 -75.5t5 -75.5q-11 21 -15 31q-7 18 -7 34zM194 195l-16 16q-4 39 -4 89l1 110q0 -51 5 -105.5t14 -109.5zM372 605q-11 -12 -17 -17q-15 -2 -28.5 -3t-31.5 -1l-8 1q9 6 19 6q8 0 29.5 -4t29.5 -4zM213 455l85 3l12 -15l-117 -5zM276 181l-31 2
l-12 24zM281 317q-11 -9 -26 -36q-4 -7 -20 -39v24l41 68l27 -32z" />
    <glyph glyph-name="r" unicode="r" horiz-adv-x="454" 
d="M369 63q-15 0 -24 1q-37 4 -41 4h-9q0 9 1 31t1 34q0 48 -12 69q-18 31 -64 31h-51v-154h-100v517h161q89 0 124 -44q32 -40 32 -132q0 -53 -11 -76q-14 -29 -59 -47q77 -25 77 -103v-126q-10 -5 -25 -5zM238 473h-60v-117h60q29 0 39.5 14t10.5 44q0 27 -12 43t-38 16z
M378 572q3 -22 4.5 -51t1.5 -63v-68l7 -33l2 115l-4 27q-1 13 -2 29t-24 29q-18 9 -45.5 21.5t-44.5 20.5zM81 609q28 2 75 2q24 0 56.5 -1t47.5 -7q-26 3 -59.5 4.5t-74.5 1.5h-45zM190 447q0 -16 2 -30q7 -48 7 -53l-8 -1l-3 4q-1 6 -1 18v18t1 19q0 20 -5 31zM339 299
l48 38l-14 -16q-11 -14 -11 -19q0 -3 15 -21t15 -23q-3 4 -24 20q-15 10 -29 21zM388 234q8 -27 11.5 -59t3.5 -67q0 -16 -0.5 -31.5t-0.5 -31.5l16 26q-4 2 -4 20q0 10 -4 24q-9 31 -9 40q0 7 5 37q2 12 2 23q0 18 -4 27zM271 439q6 -9 6 -11l-8 -57zM281 67l-1 -22h32
q12 0 30 0.5t26 3.5zM404 56l-1 -13l-35 7zM275 208l-17 -5q22 -63 38 -124q-7 32 -14 66t-7 63zM68 323q-10 71 -15.5 123t-5.5 109l13 60q-4 -26 -5 -50t-1 -56v-52.5t1 -52.5v-21q0 -30 -3 -60h16zM57 89q0 62 2 118q7 194 7 214q0 63 -1.5 89.5t-7.5 70.5l7 4v-91
q0 -96 -5 -197t-14 -206l6 5zM177 222l6 -178l9 11l-9 1q0 87 10 166l-9 -9zM102 54q-16 0 -38 5t-22 13l129 -7q-23 -5 -39.5 -8t-29.5 -3zM272 459l-3 -8l-79 5l2 11zM260 215l-12 -7l-44 17zM260 368l-3 8l-47 -12z" />
    <glyph glyph-name="s" unicode="s" horiz-adv-x="485" 
d="M245 61q-109 0 -144 30q-39 33 -39 138q15 -2 32.5 -3.5t28.5 -1.5q24 0 40 5q0 -32 9 -44.5t40 -12.5h65q26 0 34.5 13t8.5 41q0 54 -66 59q-104 8 -124 17q-68 31 -68 148q0 86 52 118q41 25 134 25q97 0 133 -28q42 -33 42 -125q-13 3 -28 5t-29 2q-10 0 -23 -2
t-26 -5q0 43 -41 43h-72q-24 0 -32.5 -11.5t-8.5 -36.5q0 -48 85.5 -52t108.5 -15q68 -33 68 -153q0 -96 -42 -127q-36 -27 -138 -27zM307 230q-1 -2 -1.5 -12t-0.5 -14l-12 36q-18 26 -39 48q12 -5 29 -17t31 -24zM330 604q8 -2 25 -11.5t22 -11.5q-32 8 -68.5 17t-68.5 19
q24 -3 50.5 -6.5t39.5 -6.5zM426 530l-8 -5l-22 49zM431 500q0 -2 -1.5 -12.5t-3.5 -26.5q-2 22 -4 41t-4 28l6 23q-2 -6 4 -33q3 -14 3 -20zM437 435l-7 3l20 43zM426 318l-57 51l10 16l7 -16zM434 301l1 -78v22v18q-2 12 -2 17l-9 25zM67 370q-7 17 -14 35.5t-15 30.5
q9 47 22.5 75t44.5 55l19 17l62 26l98 -3q-19 -3 -83 -11.5t-109 -25.5q-1 0 -7 -10.5t-12 -13.5q-11 -34 -15 -55.5t-4 -48.5q0 -7 4 -26zM442 174q0 -11 -22.5 -54t-31.5 -51l15 11q13 41 18 66.5t5 58.5l13 3zM104 313q-1 -16 60 -25t64 -9l-124 7q-2 10 -13 23t-21 18
l-5 29zM82 84l124 -30q-30 0 -73 15q-29 11 -43 16q-2 1 -12 14.5t-16 16.5zM102 229l-43 12l108 -2q-8 0 -35 -5t-30 -5zM222 56l59 -3l89 23l16 -20l-135 -12zM45 215l11 5l2 -89q-1 10 -5.5 40.5t-7.5 43.5zM410 440l13 -19q-18 8 -46.5 10.5t-61.5 2.5q17 5 34.5 5.5
t34.5 0.5h26zM270 473l21 -9q-11 -1 -32 -4t-37 -3h-48l17 13l52 3h27zM201 184l-15 12h28q30 0 49 -1.5t38 -5.5q-9 -5 -35 -7h-35zM351 380q-19 10 -55 13q-100 9 -107 11l69 -3l31 3q34 -6 69 -12zM175 441l10 -18l-13 -9z" />
    <glyph glyph-name="t" unicode="t" horiz-adv-x="423" 
d="M63 334h90l8 -286q18 3 27 4t27 1q21 0 46 -5l8 286h91v103h-94v151h-113l-1 -151h-89v-103zM275 606l1 -9l-3 -151l6 80q0 14 14 20l-7 -3q0 23 -2 31q-6 14 -11 28q-34 -4 -68 -7l-73 1q31 4 70.5 7t72.5 3zM283 326l-9 -10q9 0 25 -2.5t21 -2.5l41 3l10 -3
q-6 0 -7 6.5t-11 6.5zM277 279q4 3 6.5 12t4.5 11q-10 -48 -17 -139q-10 -121 -12 -141q7 10 9.5 22t2.5 32q0 11 -0.5 21.5t-0.5 20.5q0 87 7 161zM150 446v31l-3 11l4 78l-5 17q-2 -4 -4 -40.5t-2 -50.5q0 -11 4 -25zM47 372v-39v109h4v-27q0 -8 -2 -19t-5 -22zM139 303
q-8 1 -14 10t-14 9h-18q-12 0 -26.5 1t-26.5 4q4 -6 13.5 -9.5t20.5 -6.5l69 16l2 -41q0 -17 -3 -51t-3 -52l1 -99q15 65 15 132q1 3 -5.5 37.5t-10.5 49.5zM153 176l-5 61q-3 -23 -6.5 -52t-3.5 -45v-12v-12q0 -18 -0.5 -35.5t-0.5 -35.5v-9q15 1 28.5 2.5t31.5 1.5l70 -10
l-26 21q-26 -5 -51 -9.5t-52 -11.5q8 68 9 75q6 55 6 71zM48 448q9 0 25 -2.5t21 -2.5l38 2l10 -3q-5 0 -15 5t-18 5l-51 6zM298 447q4 -1 12 -1.5t16 -0.5q16 2 23 2l8 -3l-4 2l10 11l-3 2q-32 0 -46 -1.5t-35 -6.5q7 0 19 -4zM369 371l2 -3v-38v109h4q0 -15 2 -52.5
t2 -40.5z" />
    <glyph glyph-name="u" unicode="u" 
d="M285 59h-58q-89 0 -124 49q-29 41 -29 135v333h99q0 -27 -2 -91t-2 -68q0 -98 2.5 -159.5t15.5 -77.5q10 -11 28 -14t42 -3t39 3t25 15q6 8 8.5 32.5t2.5 65.5q0 42 -1 73.5t-2 59.5q0 32 2 106t2 79h100v-354q0 -99 -24 -136q-31 -48 -124 -48zM361 604l55 3zM420 76
q4 10 -4 22q9 37 19 77t10 72q0 19 -9 194q-3 58 -3 116l3 64l12 -36q0 -24 -3.5 -109t-3.5 -133q0 -109 -1.5 -162t-11.5 -118zM38 574q0 8 19.5 12t35.5 4q14 0 47 -4t46 -4q-22 6 -44.5 7.5t-55.5 1.5l-30 -29h-5q-13 -2 -13 12zM311 192l-7 -7l14 261l-2 -261zM210 181
l-23 22q0 30 -2.5 65t-3.5 59v241q0 -151 7.5 -258.5t21.5 -128.5zM400 56q-8 10 -11 20l18 -1zM431 69l6 43v-44zM386 67l-9 -22l-98 6q25 0 54 5q36 8 53 11zM49 406q0 20 3 61t3 62q4 -44 4.5 -60.5t0.5 -34.5q0 -34 -3.5 -93.5t-3.5 -77.5q0 24 -2 81t-2 62zM124 71
q-13 13 -30.5 41t-24.5 40q1 9 -3.5 24.5t-4.5 19.5q0 82 2.5 209.5t2.5 146.5l5 3q0 -65 -2 -118q-7 -184 -7 -197q0 -55 2 -71t17 -50q7 -17 14 -33q12 -27 16 -30zM158 57q13 0 39 -1t39 -1l80 -10q-6 3 -18.5 3.5t-25.5 0.5h-39q-12 0 -29.5 0.5t-23.5 2.5zM122 55l-1 4
l21 -6zM231 171l61 12l4 -12h-65z" />
    <glyph glyph-name="v" unicode="v" horiz-adv-x="556" 
d="M357 70q-41 -6 -80 -6t-78 6l-135 517h115q18 -100 43 -202q21 -84 56 -199q20 54 40 134q16 62 31 135t29 143h113zM513 623q0 -33 -12 -80q-7 -26 -23 -77q7 40 15 82.5t12 80.5zM443 323l-10 -4l37 147zM298 293q0 29 24.5 147.5t24.5 142.5q0 7 -1 9q2 1 18 20
q11 13 22 13q12 0 42.5 -8t40.5 -10l28 21q-7 1 -26 1q-35 0 -65 -5.5t-44 -19.5q0 -15 -8 -21q0 -38 -15 -105q-40 -177 -41 -189v4zM376 81l-17 -10q18 71 53 189q23 76 34 113q-23 -120 -37.5 -177.5t-32.5 -114.5zM178 596q-31 4 -57 5.5t-48 1.5l122 6zM38 595l1 9
l41 14zM259 323q-24 80 -41 172l21 -63q4 -16 8.5 -34.5t9.5 -30.5l3 -5l22 -134q-10 23 -14.5 45.5t-8.5 49.5zM191 107l-5 -15q-36 115 -49 161q-25 88 -44.5 166t-36.5 160l-10 -3q37 -136 71 -241q41 -129 84 -235zM210 65q19 -6 41.5 -8t53.5 -5l-96 -9zM390 63l-8 -14
h-12h-17q-24 0 -48 3zM217 39q-45 91 -73 157q-39 93 -53 164q-10 66 -15 97q-10 54 -31 94q13 -89 42 -182q23 -76 64 -170q33 -76 79 -170l-9 2z" />
    <glyph glyph-name="w" unicode="w" horiz-adv-x="793" 
d="M598 75q-9 -5 -23 -7t-28 -2q-35 0 -68 9q-18 95 -33 151q-20 75 -52 146l-77 -297h-119l-124 516q26 -6 51 -6q24 0 48 6l85 -362l84 374q30 6 60 6q27 0 53 -6l67 -338l102 348h100zM746 642q-49 -7 -76 -12q-51 -10 -66 -29v-8q1 -5 -4.5 -20t-6.5 -18l-59 -211
l58 282h58q24 0 48 -1t48 -4l-7 10zM684 362l-9 -3q31 152 35 168q10 40 30 100q-6 -46 -23.5 -122t-32.5 -143zM524 301q0 68 -22 154.5t-43 166.5l3 6q13 -65 32 -163q15 -77 30 -164zM597 63q12 55 42 145q41 124 47 144l-14 -13q0 -40 -20 -100q-44 -131 -44 -170z
M273 343q16 67 28 141q8 48 20 144l2 -6q16 0 49.5 -3.5t42.5 -3.5q17 0 27 5l-111 -13q-14 -39 -28 -77q-5 -21 -9 -43t-7 -44q-8 -30 -15 -60zM90 619l91 -22l-3 20q-16 -8 -34 -11.5t-36 -3.5q-24 1 -37 1q-17 0 -25 -2l1 12q10 1 25 3.5t18 2.5zM477 69h138l-108 -17
l-8 1l-17 2l-16 -3q-18 57 -29 107q10 -25 19 -46q3 -6 21 -44zM258 275l-4 76q-11 39 -16 60q-17 66 -20 82q6 -62 15 -115.5t25 -102.5zM192 607q6 -19 8.5 -38.5t2.5 -44.5q-4 20 -7.5 43.5t-3.5 39.5zM401 294l-3 42l-53 -171zM333 78l-9 -3l24 52zM55 599l5 3
q12 -71 32 -159q-11 39 -21 79.5t-16 76.5zM102 507l-18 -2q17 -79 37.5 -161t41.5 -155q16 -56 47 -157l12 15l-39 15q-18 71 -35 143q-22 92 -32 153q-14 85 -14 149zM248 53q-8 1 -21 5.5t-24 8.5q12 0 41.5 -2t32.5 -2l34 1q-13 -3 -25 -13l42 -2h-21h-36q-16 3 -23 4z
" />
    <glyph glyph-name="x" unicode="x" horiz-adv-x="561" 
d="M499 73l-118 247q26 -3 37 -31q9 -36 14 -49q14 -36 35 -84q34 -79 36 -83h-4zM381 68l-100 195q-26 -63 -47 -106q-28 -58 -60 -100h-119l153 281l-126 247h13q11 0 32 -2t32 -2q20 0 36 4l86 -176q20 47 44 94q20 39 51 93h111l-132 -258l143 -270q-29 6 -53 6
q-13 0 -30 -2zM398 43l-36 9q-4 9 -8 11q0 9 -6 17.5t-7 11.5l-39 115q19 -37 38 -73q20 -42 29 -78l56 3q16 0 47.5 -4.5t43.5 -5.5q-20 0 -59 -3t-59 -3zM360 603q-31 -67 -66 -132l68 126q18 11 65 20q22 4 68 10l-11 -22l-8 3h-89zM388 359q-2 -11 -3 -20.5t-2 -23.5
l-16 35q41 84 62 125q38 76 67 124q-34 -72 -58 -125q-48 -104 -50 -115zM289 446l-3 -3l-10 4l-76 157q24 -52 40 -81q20 -37 49 -77zM463 204l49 -111l-24 30zM79 587l123 28l-18 -20l-103 -1zM202 331q-41 -58 -45 -64q-17 -28 -25 -41q15 31 27 52q5 8 30 50l-101 236
q40 -74 60 -115q31 -63 54 -118zM186 55q1 5 8.5 16t17.5 24l-5 -19zM54 52q4 39 22.5 78.5t38.5 78.5l3 -26q-3 -4 -35 -52t-32 -51zM181 51q-12 -2 -36 -7t-39 -5q-10 0 -30 4t-31 4l19 7l15 -2q3 0 43.5 -2t57.5 -2zM282 243v-24q-6 -8 -10.5 -15.5t-9.5 -17.5l-8 -31
q-16 -16 -31 -32z" />
    <glyph glyph-name="y" unicode="y" horiz-adv-x="502" 
d="M289 11h-100l34 213l-176 357l9 1q15 0 38 -2.5t26 -2.5q17 0 29 4l126 -249q16 65 23 97q36 153 39 164h103q-76 -291 -151 -582zM321 605q1 -6 -9 -77.5t-22 -144.5l28 170q0 2 5.5 11.5t5.5 16.5l-2 24q62 8 118 8l19 -20q-60 12 -124 12h-19zM233 425q4 -9 19 -32
q6 -10 14 -42l-53 88q-1 2 -7 8t-7 11q-10 33 -20 69.5t-22 61.5l16 4q0 -13 1 -20.5t7.5 -19.5t22.5 -45q13 -28 19 -51q3 -19 10 -32zM95 595q27 -6 51 -6l4 8q-28 0 -58.5 -5.5t-61.5 -14.5q5 10 16.5 16.5t23.5 6.5q5 0 25 -5zM333 117q1 10 5 24t8 27q19 60 39 141
t33 139q28 122 32 138l-33 -199l-22 -46q-27 -66 -36 -100q-13 -49 -13 -103l4 -19zM333 103q-21 -64 -36 -127q0 26 12 64q9 30 24 63zM207 224q0 26 -26 68q-34 55 -38 65l7 -16q18 -27 42 -61q18 -31 18 -96q0 -20 -20 -100q-9 -36 -9 -59l-16 -15l24 119q0 1 6 7.5t8 17
t3 31t1 39.5zM56 562q15 -46 36 -98q8 -19 42 -96q-40 75 -56 116.5t-22 77.5zM173 0q16 -2 45 -7t52 -7q-37 0 -82 -5zM288 0v-4l-45 4h45zM274 382v39l26 78z" />
    <glyph glyph-name="z" unicode="z" horiz-adv-x="469" 
d="M422 61q-64 0 -130 -1t-131 -2h-39l-52 1q-2 12 -3 23t-1 25q0 11 1 31t3 26q15 36 97 155t114 154h-203v103l52 1q42 0 107.5 -2.5t75.5 -2.5h50q22 3 32 4v-115l-205 -299h213v-103zM400 568l8 24q0 -26 -1 -42q-4 -64 -4 -70zM411 110v41q0 12 -5 21l-180 -2
q35 8 55 11q37 7 54 7t46 -2.5t34 -2.5q4 -9 4 -23q0 -11 -3 -35t-3 -37q0 -12 1 -18q-2 5 -2.5 20.5t-0.5 19.5zM54 565q1 3 4.5 11t7.5 16q33 0 96 3t94 3l118 -14q-14 0 -198 7q-53 2 -118 2zM208 188q14 19 27 37t28 35q48 54 97 109q7 10 15.5 31.5t12.5 30.5
q-19 -22 -48 -73q-17 -29 -29 -46q-22 -30 -45 -62.5t-37 -62.5zM172 336q-14 -27 -42 -69l-44 -66l-19 9q52 59 99 123t86 127l-7 1q-25 -39 -30 -47.5t-43 -77.5zM295 48q6 0 80 7q21 2 47 2l1 11l8 -12q-3 1 -17 1q-27 0 -190 -12q-68 -5 -90 -5q-2 0 -22.5 2.5
t-33.5 2.5l-16 17q38 -9 78 -11.5t97 -2.5h58zM67 512q0 3 2 12v20v20l2 -56l-1 -64q-11 13 -11 32q0 6 4 18t4 18zM140 453q-8 0 -29.5 -2t-22.5 -2q-1 4 -3.5 7.5t-8.5 11.5q35 0 62 -3.5t71 -12.5zM57 141q1 6 1 20v33l3 -55q0 -33 -2.5 -63t-8.5 -54v83q3 18 7 36z" />
    <glyph glyph-name="braceleft" unicode="{" horiz-adv-x="428" 
d="M130 244q-30 0 -68 5l2 125l68 5l-3 130q0 107 66.5 164.5t175.5 57.5q-4 -10 -5 -19.5t-1 -22.5q0 -15 3 -45t3 -42q-75 0 -102 -55q-18 -37 -18 -120v-48l-49 -26l3 -50l48 -37q0 -13 -0.5 -26.5t-0.5 -26.5q0 -81 17 -115q27 -53 102 -53q7 -13 7 -31q0 -24 -3 -53.5
t-4 -45.5q-163 0 -211 93q-30 59 -30 236zM364 739q-93 0 -120 -13q-17 -8 -44 -36q-22 -23 -44 -45q23 42 29 52q27 43 44 43q9 0 28 3t28 3q13 0 41 -3.5t38 -3.5zM388 712l-7 31l13 -29q1 -10 1 -20.5v-20.5v-54l-12 -21q0 24 2.5 65t2.5 49zM113 223q-22 0 -34.5 1.5
t-29.5 6.5l-5 153l61 11q0 16 -0.5 32t-0.5 33q0 74 11 111.5t32 64.5q-2 -13 -11 -40t-19 -56q0 -12 2.5 -34.5t2.5 -27.5l-3 -91l-65 -9l4 -137l60 -6q-3 -30 -3 -62q0 -48 5.5 -88t18.5 -78q-15 31 -21.5 74t-6.5 91v27q2 17 2 24zM94 397l-55 -4q0 -41 1 -83l2 -84
l64 -17l-1 -119q0 -13 2 -25.5t5 -25.5q-12 29 -17.5 73t-5.5 83l-57 21l-5 186l65 5v50q0 44 2.5 77t10.5 48zM386 32l4 22q3 -28 6 -54t3 -38t-3 -28t-6 -31q0 9 -2 27t-2 28v74zM274 540l1 -154l-63 -42l4 -35q17 -11 31.5 -25t29.5 -33q0 -59 1.5 -91.5t7.5 -75.5
q0 19 3 46q7 64 7 80l-2 49l-65 57l-4 19l70 39v60l-3 128zM262 -83l119 -19h-60.5t-60.5 -1q-4 0 -8 2.5t-8 4.5l-33 13q-16 10 -34.5 32.5t-25.5 40.5q36 -31 52 -42q38 -28 59 -31zM389 594q0 -3 -8 -10q-2 -2 -9 -7l-22 -3l-47 -9l7 13q23 8 40 12t39 4zM375 62l10 19
l-85 10l19 -23z" />
    <glyph glyph-name="bar" unicode="|" horiz-adv-x="232" 
d="M77 708h87v-790h-87q0 102 2 338t2 250zM61 739q3 0 10 4.5t11 4.5l99 3l-118 -26l-23 17zM143 720l-39 1l72 12l22 -12zM59 487q0 39 2 129t2 95q0 -50 8 -151t8 -151q0 -57 -3 -136q-7 -181 -7 -229q-4 54 -7 148.5t-3 240.5v54zM58 295l-2 -367q-8 21 -12.5 89.5
t-4.5 107.5v210q0 77 3.5 211.5t3.5 173.5q0 -69 7 -266q5 -114 5 -159zM174 -94l14 -14q-35 0 -73 3t-68 13l31 8q21 0 46 -3.5t50 -6.5zM176 700q0 -64 -2 -213t-2 -158q0 -82 3.5 -225.5t3.5 -184.5q0 48 11 205q5 78 5 123q0 73 -2 244.5t-2 182.5z" />
    <glyph glyph-name="braceright" unicode="}" horiz-adv-x="446" 
d="M304 496v-97h23t45 -5q0 -20 -1 -62t-1 -63l-68 -5l2 -130q0 -109 -68 -167q-64 -55 -174 -55q4 9 5.5 18t1.5 24q0 12 -3.5 43t-3.5 44q76 0 103 53q18 35 18 118q0 13 -0.5 26t-0.5 26l50 26l-3 50l-48 37v26t1 27q0 102 -30.5 135t-89.5 33q-7 13 -7 31q0 19 3.5 54
t3.5 45q123 0 182.5 -55t59.5 -177zM70 -96q92 0 119 13q17 7 45 36q22 23 44 45q-23 -42 -29 -52q-27 -43 -44 -43q-9 0 -28 -3t-28 -3q-13 0 -29 2q-40 5 -50 5zM46 -69l7 -31l-14 29q-1 10 -1 22v19v54l12 21q0 -19 -2 -65t-2 -49zM321 420q22 0 34.5 -1.5t29.5 -6.5
l5 -153l-61 -11v-32.5t1 -32.5q0 -74 -11 -111.5t-32 -64.5q2 15 15.5 53.5t13.5 40.5q0 15 -1 24q-4 37 -4 40q0 16 2 52.5t2 38.5l65 9l-4 137l-60 6q3 30 3 62q0 48 -5.5 88t-18.5 78q15 -31 21.5 -74t6.5 -91v-27q-2 -17 -2 -24zM339 246l56 4q0 41 -1 83l-2 84l-64 17
l1 119q0 13 -2.5 25.5t-4.5 25.5q12 -29 17.5 -73t5.5 -83l57 -21l5 -186l-65 -5v-39q0 -49 -2.5 -83.5t-10.5 -52.5zM44 589q-3 28 -6 54t-3 38t3 28t6 31q0 -9 2 -27t2 -28v-49q0 -27 -4 -47zM160 103l-1 154l63 42l-4 35q-17 12 -33 27q-8 7 -29 31q0 67 -1.5 93.5
t-6.5 73.5q0 -19 -3 -46q-7 -64 -7 -80l2 -49l65 -57l4 -19l-71 -39l4 -188zM172 726l-119 19h15h13h12h36t36 1h9q4 0 8 -2.5t8 -4.5l33 -13q16 -10 34.5 -32.5t25.5 -40.5q-47 38 -53 42q-38 28 -58 31zM45 49q0 3 8 10q2 2 9 7l22 3l47 9l-7 -13q-23 -8 -40 -12t-39 -4z
M59 581l-10 -19l85 -10l-19 23z" />
    <glyph glyph-name="asciitilde" unicode="~" horiz-adv-x="655" 
d="M447 569q-41 0 -89 10q-121 25 -148 25q-37 0 -64 -13.5t-45 -43.5l-56 89q25 35 65.5 51t88.5 16q35 0 153 -24q59 -12 93 -12q27 0 55 18q20 13 44 39l56 -88q-32 -32 -71 -49.5t-82 -17.5zM170 586q2 -1 12 -1.5t14 -0.5l-36 -12q-26 -18 -48 -39q5 12 17 29t24 31z
M405 561q8 -2 25 -11.5t22 -11.5q-32 8 -68.5 17t-68.5 19q24 -3 50.5 -6.5t39.5 -6.5zM564 749l-58 -49l-14 12l17 4zM35 647q5 9 12 19.5t9 18.5q38 17 66.5 25t70.5 10l27 2l65 -9l75 -26q-17 -1 -72.5 15.5t-101.5 23.5q-1 0 -13 -2.5t-18 -2.5q-31 -11 -48.5 -19
t-35.5 -20q-4 -3 -13 -13q-21 -20 -23 -22zM65 591q9 -26 29 -57q-23 22 -34.5 38t-18.5 27l-5 29zM300 586l13 -19q-18 8 -46.5 10.5t-61.5 2.5q17 5 34.5 5.5t34.5 0.5h26zM396 680l-21 9q11 1 31.5 -2t49.5 0l36 9l-17 -13l-32 -7zM558 723l3 19l14 -24q16 -25 24.5 -42
t15.5 -36q-9 5 -24 27q-10 15 -19 29zM462 554q22 0 54 16q91 42 99 45l-62 -33l-25 -18l-66 -24v14z" />
    <glyph glyph-name="exclamdown" unicode="&#xa1;" horiz-adv-x="339" 
d="M172 197q36 0 83 4q0 -31 -4 -95.5t-4 -88.5q0 -32 1 -70q5 -95 5 -119q-33 12 -65 12q-19 0 -46.5 -3.5t-52.5 -6.5q0 28 -2.5 85t-2.5 86q0 34 3.5 101t3.5 101q39 -5 55 -5.5t26 -0.5zM261 462l-1 -156q-44 5 -60 5.5t-34 0.5q-35 0 -78 -4q-6 38 -5 75q0 40 6 81z
M163 474l-100 4l186 21l28 -16q-17 0 -42 -2q-59 -7 -72 -7zM274 396q0 13 -3 39t-3 39l13 5q7 -31 10 -77t2 -82q-4 -2 -11 -7.5t-10 -6.5zM57 463l16 -8l-1 -80q0 -16 2 -43.5t2 -32.5l-24 -10zM57 273q54 23 125.5 25.5t118.5 2.5l-32 -21q-10 1 -31 3.5t-31 2.5
q-25 0 -93 -9q-38 -4 -57 -4zM73 -165l1 196q0 29 -2.5 86t-2.5 86q-10 -49 -14.5 -98.5t-4.5 -104.5l2 -165h21zM49 -180h65l127 -3l27 -15q-65 1 -115 5t-104 13zM279 220q7 -41 11 -75t3 -65q0 -43 -7.5 -130t-8.5 -130q-6 20 -9 66.5t-2 90.5v15v12v12q0 18 0.5 34
t0.5 30q1 12 1 25t-1 27q0 26 2 48t10 40zM46 224q28 0 71 2t49 2l94 -1l-25 -12l-180 -6z" />
    <glyph glyph-name="questiondown" unicode="&#xbf;" horiz-adv-x="574" 
d="M242 208q1 4 1.5 14.5t0.5 16.5v31l185 -1v-57q0 -87 -110.5 -119.5t-111.5 -64.5q0 -35 17 -45t55 -10h18t18 -1q29 0 51.5 4.5t39.5 17.5q56 -39 101 -84q-46 -56 -94 -73q-37 -12 -114 -12h-46q-105 1 -146.5 41.5t-41.5 146.5q1 104 52 144q63 25 125 51zM431 494
v-156l-182 1v156zM323 506l-100 3l196 22l27 -16q-18 0 -45 -2q-62 -7 -78 -7zM442 428q0 13 -3 39t-3 39l13 5q7 -31 10 -77t3 -82q-4 -2 -11 -7.5t-10 -6.5zM219 494l16 -8l-1 -70q0 -18 2.5 -49t2.5 -37l-24 -10zM218 311q51 14 116 18.5t138 3.5l-32 -21l-63 2zM406 -4
q-28 -8 -54 -13t-55 -5l-37 2q41 5 65.5 10t51.5 15zM263 273q29 4 49 6t38 2q16 0 43.5 -3t32.5 -3zM226 226l-22 -23l-66 -18l-54 -54l65 75l52 11l29 50zM443 256l12 22l3 -81l-17 -27l-33 -55q-5 -4 -13 -8q-13 -7 -15 -8q-48 -28 -81 -38q-41 -10 -82 -21l28 23
q51 0 113 36t90 78zM367 -186q22 0 82 35q52 32 73 53q-17 28 -47.5 57t-58.5 40q35 0 84 -55q14 -16 35 -42q-65 -61 -78 -70q-43 -30 -152 -29q-41 0 -100 10.5t-82 27.5q43 -13 80.5 -20t75.5 -7h88zM74 -109q4 -8 21 -30q12 -14 23 -29l-47 36l-14 85zM93 166
q-28 -32 -36 -101q-5 -38 -12 -111q0 8 -2.5 49t-1.5 65l20 73zM211 18l52 -24l-28 -3z" />
    <glyph glyph-name="onehalf" unicode="&#xbd;" horiz-adv-x="900" 
d="M643 104q40 3 86 3q15 0 46 -1.5t42 -1.5q2 -13 2 -28q0 -7 -1 -20t-1 -20q-17 0 -58 -1t-43 -1q-27 0 -89 1t-66 1q-1 8 -1.5 16t-0.5 19q0 82 46 118q20 16 85 37q47 15 47 44q0 24 -12 30q-8 5 -35 5t-36 -8.5t-9 -35.5q-13 2 -28 2q-9 0 -30.5 -1t-22.5 -1
q0 114 112 114q90 0 118 -27q25 -24 25 -74q0 -59 -45 -87q-2 -2 -85 -33q-46 -17 -46 -50zM549 301l32 60q15 9 36.5 13.5t41.5 8.5q-57 -18 -76.5 -40.5t-33.5 -79.5v38zM607 254q5 0 15 1.5t15 1.5l15 -1l2 12l7 -23h-36q-55 2 -60 2l-8 7h50zM657 112q22 3 47.5 7.5
t40.5 4.5q11 0 34.5 -3t36.5 -4l-6 -10l-38 4t-36 2zM814 26l-25 -9q-16 0 -40 4q-53 6 -66 6q-16 0 -43 -3q-55 -6 -71 -6l-21 6l-6 24v32q0 20 5 38t16 33q-7 -16 -8.5 -34.5t-1.5 -45.5v-31l5 -15l17 9q10 -2 21.5 -5t19.5 -3q9 0 24 3q29 5 40 5q10 0 54 -7q18 -2 32 -2
zM824 84q0 2 1 12t2 17l9 -15q0 -17 -2 -33.5t-7 -39.5q0 10 -1.5 30t-1.5 29zM816 330q-19 38 -68 42.5t-67 10.5q42 0 72 -6q44 -8 62 -30q10 -18 14.5 -44t4.5 -50l-11 -13q0 9 2.5 26t2.5 24q0 10 -3 19t-9 21zM683 152q19 9 53 19q26 8 54 16q16 23 17 25q11 13 21 21
l-21 -38q-19 -14 -96 -41q-35 -12 -52 -26zM615 206q-9 -5 -24 -20q-8 -7 -23 -21l7 21q13 13 46 32t94 46v15l-30 7l-24 -5l3 11l30 2l31 -8l3 -22l-13 -18q-3 -1 -69 -27q-27 -10 -31 -13zM814 198q3 5 10.5 21t11.5 23l-17 -46l-33 -26l-4 1zM814 355l10 -11
q3 -5 4.5 -12.5l3.5 -17.5zM161 98q96 112 197 250q96 135 177 270q32 -24 46 -36t31 -35q-10 -9 -90 -123q-118 -171 -157 -225q-92 -131 -124 -167q-28 30 -37 38q-20 16 -43 28zM647 562l-117 79l-9 28q38 -23 68 -49t58 -58zM550 618l14 -8q14 -11 35 -27t34 -28l12 -26
q-32 29 -49 44q-25 22 -46 45zM180 119q35 90 94 181q43 65 118 166q103 136 123 163q-34 -85 -88.5 -173.5t-124.5 -183.5q-51 -67 -122 -153zM154 115l8 19q20 52 84 140q40 62 119 164q48 60 95 122l-148 -226q-80 -116 -158 -219zM250 -6q-30 16 -63 46t-61 64
q38 -21 72.5 -45t60.5 -53zM604 520l-344 -493l14 -7q39 61 118 160q107 134 132 167q68 93 95 160zM200 332h-19q-28 3 -31 3h-12l-9 -3l1 163v50v15q-22 -16 -32 -23q-18 -10 -35 -16q0 13 1 27.5t1 30.5q0 15 -2 29q8 12 23 23q3 3 48 28q12 -2 26 -2q12 0 24.5 1t24.5 1
q0 -11 1 -33t1 -32v-151q0 -18 -1 -55t-1 -56h-9zM187 664q6 0 14.5 2t16.5 4q-15 2 -26.5 2.5t-30.5 0.5h-10h-27l18 -9h45zM218 332q5 13 8.5 77.5t3.5 163.5q0 18 -5 42t-7 47q0 -23 1 -62.5t1 -50.5v-50q-4 -68 -4 -86zM112 428q6 22 10 54t4 57v4q-6 -12 -10.5 -26
t-4.5 -30zM118 352q0 8 2 20q6 27 6 33v6l-5 39q-5 -25 -5 -32q-4 -18 -4 -31v-65q18 0 53 -2.5t51 -2.5l7 10h-25h-28q-13 0 -27.5 0.5t-22.5 4.5zM57 603l3 -23v-23q0 -9 -1 -23.5t-1 -18.5l-8 -4q0 9 2 28.5t2 28.5q0 8 -2.5 16.5t-5.5 18.5q3 21 32 38q42 22 44 25l4 -4
q-33 -19 -43 -25q-14 -9 -26 -34zM65 503l31 15l25 29q-32 -20 -61 -39zM232 647q0 -9 -1 -20.5t-2 -22.5l-4 61zM235 676l-69 -3l-8 5z" />
    <glyph glyph-name="onequarter" unicode="&#xbc;" horiz-adv-x="900" 
d="M197 98q96 112 197 250q96 135 177 270q32 -24 46 -36t31 -35q-10 -9 -90 -123q-118 -171 -157 -225q-92 -131 -124 -167q-28 30 -37 38q-20 16 -43 28zM683 562l-117 79l-9 28q38 -23 68 -49t58 -58zM586 618l14 -8q14 -11 35 -27t34 -28l12 -26q-32 29 -49 44
q-25 22 -46 45zM216 119q35 90 94 181q43 65 118 166q103 136 123 163q-34 -85 -88.5 -173.5t-124.5 -183.5q-51 -67 -122 -153zM190 115l8 19q20 52 84 140q40 62 119 164q48 60 95 122l-148 -226q-80 -116 -158 -219zM286 -6q-30 16 -63 46t-61 64q38 -21 72.5 -45
t60.5 -53zM640 520l-344 -493l14 -7q39 61 118 160q107 134 132 167q68 93 95 160zM200 332h-19q-28 3 -31 3h-12l-9 -3l1 163v50v15q-22 -16 -32 -23q-18 -10 -35 -16q0 13 1 27.5t1 30.5q0 15 -2 29q8 12 23 23q3 3 48 28q12 -2 26 -2q12 0 24.5 1t24.5 1q0 -11 1 -33
t1 -32v-151q0 -18 -1 -55t-1 -56h-9zM187 664q6 0 14.5 2t16.5 4q-15 2 -26.5 2.5t-30.5 0.5h-10h-27l18 -9h45zM218 332q5 13 8.5 77.5t3.5 163.5q0 18 -5 42t-7 47q0 -23 1 -62.5t1 -50.5v-50q-4 -68 -4 -86zM112 428q6 22 10 54t4 57v4q-6 -12 -10.5 -26t-4.5 -30z
M118 352q0 8 2 20q6 27 6 33v6l-5 39q-5 -25 -5 -32q-4 -18 -4 -31v-65q18 0 53 -2.5t51 -2.5l7 10h-25h-28q-13 0 -27.5 0.5t-22.5 4.5zM57 603l3 -23v-23q0 -9 -1 -23.5t-1 -18.5l-8 -4q0 9 2 28.5t2 28.5q0 8 -2.5 16.5t-5.5 18.5q3 21 32 38q42 22 44 25l4 -4
q-33 -19 -43 -25q-14 -9 -26 -34zM65 503l31 15l25 29q-32 -20 -61 -39zM232 647q0 -9 -1 -20.5t-2 -22.5l-4 61zM235 676l-69 -3l-8 5zM797 100l1 -31l-1 -42q-19 -2 -42 -2h-20q-14 1 -20 2q0 8 -0.5 24t-0.5 25v12q1 8 1 12q-17 -2 -41.5 -2.5t-28.5 -0.5
q-19 0 -51.5 1.5t-38.5 1.5q-2 22 -2 32v16q0 11 0.5 17t1.5 20q30 39 72 89q30 36 73 87q10 0 29.5 1.5t29.5 1.5q11 0 20 -0.5t18 -2.5v-193q7 -3 20 -3q6 0 13.5 1t11.5 2v-68h-45zM718 228q0 29 -3 58q-20 -35 -41 -63t-48 -55q24 -2 33 -2.5t19 -0.5h9q7 0 14 1l14 2
q3 30 3 60zM694 363l-29 -15q-2 -9 -31 -46q-24 -32 -56 -68t-42 -44q3 -6 5 -23t2 -34v-6q0 -21 -2 -32q4 5 8.5 49t5.5 52q14 20 46 57q27 30 55 62.5t38 47.5zM706 263q2 -12 3.5 -29.5t1.5 -32.5l-8 9l-1 25q-12 -18 -27 -33q-20 -22 -33 -27q19 17 35.5 40t28.5 48z
M677 95l29 -2l1 -15q0 -6 -1.5 -20t-1.5 -21q0 -6 2 -12l-12 18l6 22l-2 16q-56 0 -95.5 3t-49.5 8q28 0 46 1q72 2 78 2zM800 376l7 -13l2 -190l-6 10q0 18 -1.5 57t-1.5 59q0 17 0.5 30t2.5 28l-6 6h-8q-28 0 -54.5 2.5t-30.5 7.5q23 0 50 1t46 2zM836 173h15l-4 -68
l3 -10q3 15 5 33t2 33v21h-26l-13 -11zM805 31l-2 -12l13 6l-7 62l24 -1h21l-13 7q-4 1 -10.5 1h-9.5h-19zM766 18l25 7l6 -11l-9 -6h-7q-26 0 -50 3l-23 9q10 0 33.5 -1t24.5 -1zM535 88q0 12 1.5 32.5t1.5 24.5l-7 30z" />
    <glyph glyph-name="threequarters" unicode="&#xbe;" horiz-adv-x="900" 
d="M216 98q96 112 197 250q96 135 177 270q32 -24 46 -36t31 -35q-10 -9 -90 -123q-118 -171 -157 -225q-92 -131 -124 -167q-28 30 -37 38q-20 16 -43 28zM702 562l-117 79l-9 28q38 -23 68 -49t58 -58zM605 618l14 -8q14 -11 35 -27t34 -28l12 -26q-32 29 -49 44
q-25 22 -46 45zM235 119q35 90 94 181q43 65 118 166q103 136 123 163q-34 -85 -88.5 -173.5t-124.5 -183.5q-51 -67 -122 -153zM209 115l8 19q20 52 84 140q40 62 119 164q48 60 95 122l-148 -226q-80 -116 -158 -219zM305 -6q-30 16 -63 46t-61 64q38 -21 72.5 -45
t60.5 -53zM659 520l-344 -493l14 -7q39 61 118 160q107 134 132 167q68 93 95 160zM797 100l1 -31l-1 -42q-19 -2 -42 -2h-20q-14 1 -20 2q0 8 -0.5 24t-0.5 25v12q1 8 1 12q-17 -2 -41.5 -2.5t-28.5 -0.5q-19 0 -51.5 1.5t-38.5 1.5q-2 22 -2 32v16q0 11 0.5 17t1.5 20
q30 39 72 89q30 36 73 87q10 0 29.5 1.5t29.5 1.5q11 0 20 -0.5t18 -2.5v-193q7 -3 20 -3q6 0 13.5 1t11.5 2v-68h-45zM718 228q0 29 -3 58q-20 -35 -41 -63t-48 -55q24 -2 33 -2.5t19 -0.5h9q7 0 14 1l14 2q3 30 3 60zM694 363l-29 -15q-2 -9 -31 -46q-24 -32 -56 -68
t-42 -44q3 -6 5 -23t2 -34v-6q0 -21 -2 -32q4 5 8.5 49t5.5 52q14 20 46 57q27 30 55 62.5t38 47.5zM706 263q2 -12 3.5 -29.5t1.5 -32.5l-8 9l-1 25q-12 -18 -27 -33q-20 -22 -33 -27q19 17 35.5 40t28.5 48zM677 95l29 -2l1 -15q0 -6 -1.5 -20t-1.5 -21q0 -6 2 -12l-12 18
l6 22l-2 16q-56 0 -95.5 3t-49.5 8q28 0 46 1q72 2 78 2zM800 376l7 -13l2 -190l-6 10q0 18 -1.5 57t-1.5 59q0 17 0.5 30t2.5 28l-6 6h-8q-28 0 -54.5 2.5t-30.5 7.5q23 0 50 1t46 2zM836 173h15l-4 -68l3 -10q3 15 5 33t2 33v21h-26l-13 -11zM805 31l-2 -12l13 6l-7 62
l24 -1h21l-13 7q-4 1 -10.5 1h-9.5h-19zM766 18l25 7l6 -11l-9 -6h-7q-26 0 -50 3l-23 9q10 0 33.5 -1t24.5 -1zM535 88q0 12 1.5 32.5t1.5 24.5l-7 30zM130 440q0 -16 3 -23t10 -7h16h16q44 0 59.5 10.5t15.5 29.5q0 25 -11 32.5t-33 7.5q-4 0 -14.5 -0.5t-16.5 -0.5
q-7 0 -11 -0.5t-9 -3.5l-2 66q9 0 24 -1t21 -1q19 0 27 7q11 9 11 31q0 14 -5 22.5t-18 8.5h-56q-12 0 -15 -7t-3 -20v-7l-65 -1v35q0 33 20.5 50.5t54.5 17.5h21.5t21.5 1q74 0 99 -24q21 -23 21 -68q0 -28 -5 -40q-6 -17 -28 -29q23 -5 31 -33q6 -17 6 -49q0 -51 -12 -72
q-16 -29 -63 -29l-99 2q-1 -1 -4 -1t-6 -1q-28 0 -45.5 16t-17.5 44l1 37l60 4v-4zM310 505l2 -6l4 -13v23l-18 16zM167 476l4 6q1 -2 31.5 -2.5t31.5 -2.5zM307 678l-10 -8q4 -4 11.5 -15t11.5 -19q-4 16 -5 21q-5 14 -8 21zM320 580q-2 -6 -2 -11l-1 -15l-8 -7q1 1 4 5.5
t3 5.5v3l2 10v9q0 5 -2 11q1 -2 2.5 -5.5t1.5 -5.5zM310 633l10 -18v21l-5 -6zM323 604q-1 -4 -3 -8v10v9zM236 693q-23 0 -38 1t-26 1h-17t-21 -2q-14 -8 -21 -10q-24 -11 -26 -12q14 14 27 22q16 10 33 10q36 0 65.5 -2.5t77.5 -7.5q1 0 3.5 -4t3.5 -11q-9 5 -16 8
q-11 7 -15 7h-30zM329 440q0 -4 -0.5 -9.5t-2 -13t-6.5 -16.5q-10 -20 -11 -24l-5 -25q15 22 20 36.5t5 40.5q0 15 -2 29q-3 20 -5 29q4 -7 5.5 -12.5t1.5 -14.5v-10v-10zM331 374q-5 -11 -8 -17.5t-9 -14.5h-11q3 1 9 7.5t7 10t8 21.5q4 14 8 24zM227 327l48 11
q-4 -1 -13 -1h-13h-8zM300 357l-2 -14l-23 -2q6 1 13 7zM64 360l9 -15h17q0 2 -10.5 11.5t-11.5 13.5q-3 16 -4 33t-1 34v-44zM203 340l-4 -2l-9 -1q-22 -3 -38 -4t-26 -1q27 -2 36 -2.5t20 -0.5q8 -1 17 -2q3 0 12 3.5t14 6.5zM103 336l1 5l76 -3q-17 0 -45 -1t-32 -1z
M148 612l-2 -9q25 2 36 2.5t17 0.5l29 -7l-6 11q-2 -1 -5.5 -1h-4.5l-23 2l-14 -1zM231 424q-16 -4 -28.5 -6.5t-25.5 -2.5q-7 0 -12.5 0.5t-22.5 2.5q19 2 43.5 4t45.5 2zM67 590v-12q11 0 22.5 -0.5t22.5 -0.5q17 0 34 2v14l6 -17q-14 -5 -27.5 -6t-38.5 -1l-24 2
q0 7 -0.5 15.5t-0.5 12.5v17q0 8 1 15t3 15l15 17q-7 -14 -10 -32.5t-3 -40.5zM152 479h7l9 -8l-20 1l-8 8q0 21 1.5 41t5.5 29q1 -2 1 -35t4 -36zM71 443h23q10 0 18 1.5t20 4.5l-13 5q-11 0 -28 -2t-27 -4zM228 573l-8 -13q-17 -3 -33 -5h-30l-6 5h17q5 0 12.5 0.5
t15.5 1.5l25 12l9 17z" />
    <glyph glyph-name="uni00B2" unicode="&#xb2;" horiz-adv-x="390" 
d="M147 425q40 3 86 3q15 0 46 -1.5t42 -1.5q2 -13 2 -28q0 -7 -1 -20t-1 -20q-17 0 -58 -1t-43 -1q-27 0 -89 1t-66 1q-1 8 -1.5 16t-0.5 19q0 82 46 118q20 16 85 37q47 15 47 44q0 24 -12 30q-8 5 -35 5t-36 -8.5t-9 -35.5q-13 2 -28 2q-9 0 -30.5 -1t-22.5 -1
q0 114 112 114q90 0 118 -27q25 -24 25 -74q0 -59 -45 -87q-2 -2 -85 -33q-46 -17 -46 -50zM53 622l32 60q15 9 36.5 13.5t41.5 8.5q-57 -18 -76.5 -40.5t-33.5 -79.5v38zM111 575q5 0 15 1.5t15 1.5l15 -1l2 12l7 -23h-36q-55 2 -60 2l-8 7h50zM161 433q22 3 47.5 7.5
t40.5 4.5q11 0 34.5 -3t36.5 -4l-6 -10l-38 4t-36 2zM318 347l-25 -9q-16 0 -40 4q-53 6 -66 6q-16 0 -43 -3q-55 -6 -71 -6l-21 6l-6 24v32q0 20 5 38t16 33q-7 -16 -8.5 -34.5t-1.5 -45.5v-31l5 -15l17 9q10 -2 21.5 -5t19.5 -3q9 0 24 3q29 5 40 5q10 0 54 -7
q18 -2 32 -2zM328 405q0 2 1 12t2 17l9 -15q0 -17 -2 -33.5t-7 -39.5q0 10 -1.5 30t-1.5 29zM320 651q-19 38 -68 42.5t-67 10.5q42 0 72 -6q44 -8 62 -30q10 -18 14.5 -44t4.5 -50l-11 -13q0 9 2.5 26t2.5 24q0 10 -3 19t-9 21zM187 473q19 9 53 19q26 8 54 16q16 23 17 25
q11 13 21 21l-21 -38q-19 -14 -96 -41q-35 -12 -52 -26zM119 527q-9 -5 -24 -20q-8 -7 -23 -21l7 21q13 13 46 32t94 46v15l-30 7l-24 -5l3 11l30 2l31 -8l3 -22l-13 -18q-3 -1 -69 -27q-27 -10 -31 -13zM318 519q3 5 10.5 21t11.5 23l-17 -46l-33 -26l-4 1zM318 676l10 -11
q3 -5 4.5 -12.5l3.5 -17.5z" />
    <glyph glyph-name="uni00B3" unicode="&#xb3;" horiz-adv-x="390" 
d="M130 440q0 -16 3 -23t10 -7h16h16q44 0 59.5 10.5t15.5 29.5q0 25 -11 32.5t-33 7.5q-4 0 -14.5 -0.5t-16.5 -0.5q-7 0 -11 -0.5t-9 -3.5l-2 66q9 0 24 -1t21 -1q19 0 27 7q11 9 11 31q0 14 -5 22.5t-18 8.5h-56q-12 0 -15 -7t-3 -20v-7l-65 -1v35q0 33 20.5 50.5
t54.5 17.5h21.5t21.5 1q74 0 99 -24q21 -23 21 -68q0 -28 -5 -40q-6 -17 -28 -29q23 -5 31 -33q6 -17 6 -49q0 -51 -12 -72q-16 -29 -63 -29l-99 2q-1 -1 -4 -1t-6 -1q-28 0 -45.5 16t-17.5 44l1 37l60 4v-4zM310 505l2 -6l4 -13v23l-18 16zM167 476l4 6q1 -2 31.5 -2.5
t31.5 -2.5zM307 678l-10 -8q4 -4 11.5 -15t11.5 -19q-4 16 -5 21q-5 14 -8 21zM320 580q-2 -6 -2 -11l-1 -15l-8 -7q1 1 4 5.5t3 5.5v3l2 10v9q0 5 -2 11q1 -2 2.5 -5.5t1.5 -5.5zM310 633l10 -18v21l-5 -6zM323 604q-1 -4 -3 -8v10v9zM236 693q-23 0 -38 1t-26 1h-17
t-21 -2q-14 -8 -21 -10q-24 -11 -26 -12q14 14 27 22q16 10 33 10q36 0 65.5 -2.5t77.5 -7.5q1 0 3.5 -4t3.5 -11q-9 5 -16 8q-11 7 -15 7h-30zM329 440q0 -4 -0.5 -9.5t-2 -13t-6.5 -16.5q-10 -20 -11 -24l-5 -25q15 22 20 36.5t5 40.5q0 15 -2 29q-3 20 -5 29
q4 -7 5.5 -12.5t1.5 -14.5v-10v-10zM331 374q-5 -11 -8 -17.5t-9 -14.5h-11q3 1 9 7.5t7 10t8 21.5q4 14 8 24zM227 327l48 11q-4 -1 -13 -1h-13h-8zM300 357l-2 -14l-23 -2q6 1 13 7zM64 360l9 -15h17q0 2 -10.5 11.5t-11.5 13.5q-3 16 -4 33t-1 34v-44zM203 340l-4 -2
l-9 -1q-22 -3 -38 -4t-26 -1q27 -2 36 -2.5t20 -0.5q8 -1 17 -2q3 0 12 3.5t14 6.5zM103 336l1 5l76 -3q-17 0 -45 -1t-32 -1zM148 612l-2 -9q25 2 36 2.5t17 0.5l29 -7l-6 11q-2 -1 -5.5 -1h-4.5l-23 2l-14 -1zM231 424q-16 -4 -28.5 -6.5t-25.5 -2.5q-7 0 -12.5 0.5
t-22.5 2.5q19 2 43.5 4t45.5 2zM67 590v-12q11 0 22.5 -0.5t22.5 -0.5q17 0 34 2v14l6 -17q-14 -5 -27.5 -6t-38.5 -1l-24 2q0 7 -0.5 15.5t-0.5 12.5v17q0 8 1 15t3 15l15 17q-7 -14 -10 -32.5t-3 -40.5zM152 479h7l9 -8l-20 1l-8 8q0 21 1.5 41t5.5 29q1 -2 1 -35t4 -36z
M71 443h23q10 0 18 1.5t20 4.5l-13 5q-11 0 -28 -2t-27 -4zM228 573l-8 -13q-17 -3 -33 -5h-30l-6 5h17q5 0 12.5 0.5t15.5 1.5l25 12l9 17z" />
    <glyph glyph-name="Thorn" unicode="&#xde;" horiz-adv-x="581" 
d="M221 133l-2 21l199 7q-66 -8 -110 -13t-87 -15zM303 419q42 0 59.5 -13.5t17.5 -47.5q0 -36 -15.5 -49t-58.5 -13h-88v123h85zM455 547q13 -11 28.5 -28t27.5 -30q-33 23 -66 39.5t-74 28.5zM504 511q10 -6 23.5 -43t13.5 -51q0 -7 -2 -21t-2 -19q0 -10 4 -27t4 -25
q0 -15 -17 -54q-13 -27 -25 -54q3 9 17.5 49t20.5 46q-2 14 -6.5 85t-17.5 108zM259 577q3 0 56 -7h27.5t38.5 -1h-1q-4 0 -11 -3.5t-10 -2.5q-6 0 -24 3.5t-45.5 0.5t-36.5 -8l1 19zM502 221q-38 -34 -45 -38q-26 -20 -54 -29q10 0 21.5 1t19.5 3q27 35 40 54q39 53 39 63
q0 5 -5 16l3 9l23 -12l-13 -16q-5 -7 -14.5 -27t-14.5 -24zM47 343q0 -17 2.5 -101t2.5 -133q0 -11 5 -33.5t5 -33.5l-28 1q12 123 13.5 143t1.5 68zM211 26q0 7 5 25q9 32 9 43q4 -15 8 -29.5t4 -27.5q0 -2 -4 -16.5t-12 -35.5zM211 135l15 5l-11 -41q-4 16 -4 36zM36 38
l-13 -9q32 258 32 533h-12q0 -38 4 -111t4 -110v-160q0 -31 -4 -90.5t-4 -89.5zM68 -4q27 -3 79.5 -8.5t86.5 -5.5l-15 -14l-3 16l-93 1q-12 1 -23.5 1h-22.5q-15 0 -27 -0.5t-25 -4.5l12 45zM226 304q1 7 1 21q-1 15 -2 32.5t-1 33.5v4q6 -28 12 -49t16 -40zM335 408
l28 -18l6 -44l-22 45l-110 22zM292 307l6 13l58 -5zM214 551v85q-50 6 -91 6q-3 0 -25 -0.5t-37 -3.5v-30v-31q-4 -13 3 -182q2 -49 2 -108q0 -13 -7 -178q-2 -47 -2 -105q51 -5 92 -5q3 0 25 1t36 4v160q121 0 169 7q75 11 108 49q37 44 37 139q0 104 -52 148t-173 44h-85z
M60 616q0 -7 -5 -25q-9 -32 -12 -21q-1 -7 -5 7.5t-4 27.5q0 2 4 16.5t13 35.5zM204 644q-27 4 -79.5 10t-86.5 6l15 14l3 -16l93 -2q12 -1 23.5 -1t22.5 -1q15 0 27 0.5t25 4.5l-13 -45z" />
    <glyph glyph-name="thorn" unicode="&#xfe;" horiz-adv-x="398" 
d="M163 183l-1 22l125 5q-42 -6 -69 -12t-55 -15zM207 465h-52v-121h55q28 0 37 14t9 47q0 32 -10 46t-39 14zM295 603l38 -55q-33 51 -140 59zM155 44q0 10 4 35.5t5 31.5q0 -10 4 -27.5t4 -27.5q0 -9 -4 -24.5t-7 -28.5l-4 22t-2 19zM155 151l9 5l-6 -40zM36 50l7 -7
q2 56 0.5 163.5t-2.5 204t2 173.5h7l-21 -568zM49 6q41 -5 65 -8t51 -7l-9 -12l-3 15l-59 2h-14q-7 0 -23 -1t-23 -4l6 45zM166 361q0 15 -1 45t-1 43q6 -35 9 -51t9 -36zM230 453l14 -25q3 -12 4 -21.5t1 -25.5l-12 10l-8 48l-52 17zM237 371l4 -10l-57 -8zM157 594l48 1
q83 0 114 -51q27 -43 27 -137q0 -127 -41 -163q-37 -30 -156 -30v-200q-6 -1 -17 -2.5t-21 -1.5l-58 4v581v104v38.5t0.5 33t0.5 24t10.5 9t21 0t68.5 0.5zM48 752q0 -16 -3 -54t-4 -47q0 14 -2 41t-1 41q0 14 2 38t5 42q0 -15 1.5 -32t1.5 -29zM46 608l-8 -5l6 39zM164 807
q-36 6 -91.5 8t51.5 4h14q8 -1 23.5 0t16.5 0l-12 -50zM173 700q0 -16 -3 -54t-4 -48q0 14 -2.5 41t-1.5 41q0 14 2.5 38t5.5 42q0 -15 1.5 -32t1.5 -28zM371 327q-37 -68 -57 -93.5t-42 -13.5l21 6q28 26 35 42q5 11 9 20q6 24 13 37q9 19 5 36q3 54 -4 103.5t-14 90.5
l26 -55q9 -97 5 -129q4 -14 -5 -38z" />
    <glyph glyph-name="Yacute" unicode="&#xdd;" horiz-adv-x="727" 
d="M444 253q4 -29 6 -69t2 -77v-12v-12q0 -45 -8 -80h-156v250l-222 356q24 -3 45 -5t43 -2q37 0 72 7l140 -232q30 64 69 126q31 49 84 118h161zM481 634q3 -14 -8 -40q-3 -7 -17 -37q7 -1 23 21.5t16 31.5l-4 24q52 5 81.5 6.5t103.5 1.5l29 -21q-51 8 -96 10.5t-111 2.5
h-17zM359 437q8 0 36 41t39 41q-25 -37 -37 -55q-23 -34 -35 -57q-18 22 -52 103t-34 102l-26 -5q17 -34 31 -57q8 -13 36 -54l-1 4q5 -14 20 -37t23 -26zM53 627q16 0 79.5 -5.5t88.5 -5.5l7 10q-92 -11 -204 -11zM444 126q26 104 95 238q61 113 123 226q-12 -33 -23 -66
q-24 -67 -41 -108q-6 -14 -76 -85q-55 -56 -55 -121v-10q0 -15 1 -38.5t3 -36.5zM455 5q0 25 4 50.5t11 51.5q-4 -31 -7 -72t-3 -75q-5 19 -5 45zM281 234q0 12 -29 67q-25 47 -38 70q24 -41 54 -89q17 -35 17 -93q0 -67 -1.5 -105.5t-9.5 -73.5l-26 -17q8 44 16 89
q17 97 17 152zM48 590l47 -36q13 -15 48 -83q22 -44 45 -88q-42 71 -65 106q-38 58 -75 101zM263 -18q38 -5 77 -10.5t75 -5.5q-9 0 -55.5 -2.5t-73.5 -2.5zM443 -17l-1 -7l-70 7h71zM389 714l-68 17l87 131q19 -7 44 -14q28 -7 44.5 -9.5t25.5 -4.5q-34 -25 -69.5 -56.5
t-63.5 -63.5zM346 818q-6 -7 -15.5 -23t-15.5 -23q-8 -8 -24.5 -22.5t-23.5 -22.5l33 11l52 55q11 14 24 36q2 7 17 38zM539 844l-17 -6l-68 15l-55 14l5 14q34 -9 68 -18.5t67 -18.5zM401 718l10 -15l105 125q-25 -29 -45.5 -48.5t-69.5 -61.5zM367 711l33 -8l-61 8l-44 19
z" />
    <glyph glyph-name="yacute" unicode="&#xfd;" horiz-adv-x="472" 
d="M279 11h-100l34 213l-176 357l9 1q15 0 38 -2.5t26 -2.5q17 0 29 4l126 -249q16 65 23 97q36 153 39 164h103q-76 -291 -151 -582zM311 605q1 -6 -9 -77.5t-22 -144.5l28 170q0 2 5.5 11.5t5.5 16.5l-2 24q62 8 118 8l19 -20q-60 12 -124 12h-19zM223 425q4 -9 19 -32
q6 -10 14 -42l-53 88q-1 2 -7 8t-7 11q-10 33 -20 69.5t-22 61.5l16 4q0 -13 1 -20.5t7.5 -19.5t22.5 -45q13 -28 19 -51q3 -19 10 -32zM85 595q27 -6 51 -6l4 8q-28 0 -58.5 -5.5t-61.5 -14.5q5 10 16.5 16.5t23.5 6.5q5 0 25 -5zM323 117q1 10 5 24t8 27q19 60 39 141
t33 139q28 122 32 138l-33 -199l-22 -46q-27 -66 -36 -100q-13 -49 -13 -103l4 -19zM323 103q-21 -64 -36 -127q0 26 12 64q9 30 24 63zM197 224q0 26 -26 68q-34 55 -38 65l7 -16q18 -27 42 -61q18 -31 18 -96q0 -20 -20 -100q-9 -36 -9 -59l-16 -15l24 119q0 1 6 7.5t8 17
t3 31t1 39.5zM46 562q15 -46 36 -98q8 -19 42 -96q-40 75 -56 116.5t-22 77.5zM163 0q16 -2 45 -7t52 -7q-37 0 -82 -5zM278 0v-4l-45 4h45zM264 382v39l26 78zM251 653l-68 17l87 131q19 -7 44 -14q28 -7 44.5 -9.5t25.5 -4.5q-34 -25 -69.5 -56.5t-63.5 -63.5zM208 757
q-6 -7 -15.5 -23t-15.5 -23q-8 -8 -24.5 -22.5t-23.5 -22.5l33 11l52 55q11 14 24 36q2 7 17 38zM401 783l-17 -6l-68 15l-55 14l5 14q34 -9 68 -18.5t67 -18.5zM263 657l10 -15l105 125q-25 -29 -45.5 -48.5t-69.5 -61.5zM229 650l33 -8l-61 8l-44 19z" />
    <glyph glyph-name="Eth" unicode="&#xd0;" horiz-adv-x="798" 
d="M163 16l-9 -8q0 -1 1 -2l-27 -2q9 59 13 112q1 22 2 46v-2q0 -16 3 -72q2 -51 8 -78q0 72 6 194q1 23 2 45h-9q-4 0 -9 1v-10v10q-46 1 -97 1l2 14q11 -1 44.5 -5t50.5 -4v8q-24 1 -42 2q-31 3 -41 9h83v4q-90 2 -98 2l-2 52q0 12 0.5 23.5t3.5 25.5h95v7h-82l-12 13
q6 0 94 1l-1 109l24 -78q-5 -17 -9 -30h11v-15h-15q-1 -4 -2 -7h17v-5q1 3 1 5h8v7h-8q0 8 1 15h7v16q0 52 3 113t8 118l69 3q42 0 108.5 -2.5t76.5 -2.5q188 0 241 -46q60 -52 60 -238v-74q0 -189 -72 -247q-54 -44 -214 -44h-94q-19 0 -38 1h-12l-125 3l2 54q0 55 -4 135
q-2 29 -3 55l-14 1l2 -241zM511 382v-105h-140v-2q72 -1 96 -2q42 -1 49 -4q-45 0 -145 -2q0 -3 -1 -7q28 2 44 2l89 -2q-42 -9 -77 -12q-22 -1 -57 -2v-12q-1 6 -1 12h-16q0 -8 -1 -14q-1 -34 -7 -99h135q51 0 77 32q17 21 25 58l1 1v2q6 32 6 74v56q0 72 -20 112
q-28 55 -92 55h-132q6 -42 7 -98q1 -12 1 -22q8 -1 17 -1q0 11 1 22q4 47 12 93l2 -22q0 -28 -4 -94q9 -1 19 -2q75 -6 112 -6l-132 -2v-9h132zM453 674q64 0 124 -8q2 0 3 -1q-79 3 -129 3q-72 0 -143.5 0.5t-142.5 0.5l52 16q6 0 18 -3t17 -3q14 0 70 7q24 3 41 3
q12 0 43 -7.5t47 -7.5zM763 213q0 19 2 39.5t7 25.5l2 -82q1 -41 1 -81v-39l-27 5q3 9 11 29q1 4 11 50q-3 10 -5 19.5t-2 14.5v19zM582 226l-12 121q-1 -1 -1.5 -17.5t-0.5 -27.5v-48q0 -18 -23 -58q-18 -29 -35 -58l71 85q0 1 1 3zM27 389l11 10l-3 -82q0 -16 0.5 -29.5
t3.5 -29.5l-13 -5q0 13 -2 28q-5 38 -5 47q0 11 2.5 28t5.5 33zM178 -7q4 0 70.5 -2t95.5 -2q-37 -5 -83 -8t-128 -3zM172 440q6 114 6 206h-11l1 -242h2zM513 400l20 -1v-135l-13 -11l2 126zM755 535q1 -15 2.5 -28.5t1.5 -31.5v-103q0 -143 -12 -218q7 51 7 122v123
q0 29 -2.5 82.5t-4.5 62.5zM388 144l7 16l100 -10l-7 -10zM771 556l-94 82q14 -5 29 -9.5t26 -10.5q19 -31 39 -62zM593 -8q-22 -7 -46 -10l-149 -23l61 19q6 2 27.5 3t24.5 1q33 4 72 11l28 5zM743 132q-15 -73 -54 -120l24 -9l30 124q2 10 3 21q-1 -8 -3 -16zM512 508
l41 -40q-11 8 -16 12q-14 10 -20.5 13.5t-45.5 9.5q-37 7 -66 11zM760 52q-4 -7 -20 -32q-26 -43 -38 -53l27 48q14 26 21 51zM697 642l-24 21q-12 0 -92 2h-1q59 -8 117 -23zM390 -18h40q-7 -2 -16 -4q-10 -2 -17 -2h-95q16 4 38 5t50 1zM670 14q-5 -1 -59 -16q26 3 54 8z
M366 150q4 20 4 45q0 19 -1 38v1q-3 -51 -3 -84zM163 264h-19v-8h18q1 4 1 8zM368 391h-16v-9h16v9zM169 264v-8h13v8h-2h-11zM367 260v7h-5q-5 0 -10 -1v-7q8 0 15 1zM163 279q-11 1 -19 0v-4h19v4zM169 275h12q1 3 0 4q-7 1 -12 0v-4zM367 275v2q-7 1 -15 0v-2q9 -1 15 0z
M688 -21l-6 -2l11 13zM144 220v-11q-1 -22 -1 -47q1 27 1 58zM169 382v7h-1v-7h1z" />
    <glyph glyph-name="AE" unicode="&#xc6;" horiz-adv-x="941" 
d="M261 635h-21t-15 -1q-1 -5 -16 -13q-10 -5 -20 -8h56q27 0 87.5 2t64.5 2l1 14h-18q-13 0 -25.5 -0.5t-25.5 -0.5q-14 0 -39 2.5t-29 2.5zM178 586l15 8q-22 -78 -47 -165q-28 -97 -49 -165q-9 -29 -52 -166q29 123 63 245q10 37 70 243zM242 147l-12 -32q54 23 61 26
q25 11 132 11l4 -10q-17 3 -68 4q-24 4 -43 4zM22 22l18 -17l76 347q-21 -88 -42 -175q-33 -131 -52 -155zM156 563l6 4q-17 -64 -37.5 -136t-44.5 -148q15 71 31 142q22 89 45 138zM427 124q8 1 22.5 -56t22.5 -57q19 0 18.5 0t22.5 1q29 0 46.5 -1t34.5 -6
q-11 -7 -36.5 -9t-113.5 1q-3 -1 -3.5 3t-0.5 14v15q0 14 -4 39.5t-9 55.5zM219 107q4 -13 4 -32q0 -12 -1 -26t-1 -15l3 -31h-41q-30 0 -88 2t-62 2q93 0 173 8q3 10 4 27t1 19q4 2 6 22.5t2 23.5zM371 369l-32 55l34 -93zM402 270l-18 -5l-1 19v6l1 10zM260 262h114l-2 9
l-96 -1l60 189zM907 148q-2 -5 -8 -33q0 -8 2 -27.5t2 -20.5q-9 -69 -16.5 -12.5t-7.5 87.5zM771 487l8 15l-30 81l-10 18zM815 372l-16 6q11 -30 16 -54.5t6 -50.5l23 3q-13 34 -19.5 49t-19.5 42zM688 481l-76 -14l117 -4l30 13q-19 3 -71 5zM723 619q-155 2 -196 0
q84 -4 135.5 -7.5t60.5 7.5zM686 420q16 0 24 -2l12 -3l65 -28q-11 0 -23 0.5t-27 3.5l-60 29q-8 1 -20 1.5t-24 0.5q7 -2 13.5 -2h13.5h26zM610 396l-3 18q42 -4 84 -17q-20 0 -40.5 -0.5t-40.5 -0.5zM765 181l1 -27q19 9 38 9q62 -11 21.5 3.5t-60.5 14.5zM721 176
q6 0 15 -2.5t20 -5.5l-81 -13l-1 4v11q15 2 28 4t19 2zM839 8q40 0 81 -6l-1 24q-67 -19 -247 -28q-126 -6 -10 2t177 8zM680 634l-45 -2q-157 -7 -169 -7l-50 3q80 8 163.5 10.5t100.5 -4.5zM809 256l-7 -10l-189 -3l-4 11zM816 267q-70 1 -121 0l-113 -2l38 -118h97h143
l20 -125q-26 0 -56 -1t-59 -2q-82 0 -164 1q-58 0 -116 1l-41 140h-219l-38 -140h-134l155 582h105.5t115.5 0.5t112 0.5h95.5h66.5t25 -1q0 -2 4.5 -20t9.5 -39l14 -56l-245 1l34 -108h242zM336 491l-92 -234h167zM543 475l-16 3q14 -24 22 -44.5t12 -43.5l23 6
q-16 27 -25 39.5t-25 33.5zM620 237l-16 3q14 -24 22 -44.5t12 -43.5l23 6q-16 27 -25 39.5t-25 33.5zM600 484q6 0 15 -2.5t20 -5.5l-81 -13l-1 4v11q15 2 28 4t19 2z" />
    <glyph glyph-name="Oslash" unicode="&#xd8;" horiz-adv-x="887" 
d="M760 211q0 -17 -2 -57.5t-2 -43.5q-27 -39 -65 -82q20 28 32 48q24 38 24 53q0 53 -2 97q-7 152 -7 163q0 13 -3 31q-7 43 -7 53q0 16 4 35l8 38q8 -78 14 -170.5t6 -164.5zM224 586q16 11 33 23q25 16 34 16q14 0 47.5 -1t52.5 -1q36 0 61 2.5t50 10.5q-18 4 -32 7
t-25 3q-36 0 -79 -6t-84 -11q-29 -21 -67 -57q-30 -29 -63 -63q6 21 18.5 35t53.5 42zM602 19q-5 -2 -40.5 -3t-48.5 -4l52 -29l140 91q-15 -9 -50 -28q-29 -16 -53 -27zM424 3q8 -5 18 -8.5t15 -5.5l6 2q9 0 25.5 -2.5t31.5 -5.5zM118 511q35 25 70 55q42 35 66 62
q-18 -5 -34 -10t-17 -6q-43 -37 -62 -73.5t-19 -90.5q0 -10 4 -32t4 -33l-3 -210q-3 28 -8 65q-10 74 -10 110q0 82 9 163zM708 729q5 -2 15 -4.5t15 -5.5l101 -77l-140 73l-10 33zM776 644l-39 34l81 -50l12 -29zM159 -81l5 -22q-37 30 -71.5 64t-57.5 65l36 -17
q22 -19 44 -42t44 -48zM269 32q-70 -79 -94 -104q28 28 100 97zM750 527q32 34 38 39l5 36q-22 -26 -59 -62zM573 372v13l-12 -13v-8l-3 -27l-5 26l-182 -196l9 -12l-16 5l-12 -13q22 -5 52 -5h53q67 0 91.5 29.5t24.5 98.5v102zM318 422q0 -15 3 -45t3 -46v-48v-5l19 20
q96 102 146 155q-11 -2 -21 -2h-77l-33 24l149 -2l11 11q-24 8 -61 8h-53q-66 0 -90 -26t-24 -92v-105v-26l15 16q-5 33 -5 82v32q0 28 6.5 51.5t25.5 39.5zM546 304q0 -43 -6 -87l13 -33l2 134l-10 19zM455 155l73 16l-53 3q-9 0 -24 -3t-28 -5zM701 689l86 -73l-64 -69
l-4 -41q-3 13 -5 19q-2 5 -3 9l-16 -17q34 -55 34 -141v-112q0 -135 -59 -192t-194 -57h-89q-82 0 -137 23l-6 -7l-28 7q11 -6 23 -12l-80 -87l-88 72q32 33 79 83v1q-13 32 -28 89q15 -30 42 -75l2 2q-32 57 -32 153v112q0 123 64 182t188 59h80q33 0 63 -4q8 -4 68 -17
q2 -1 4 -1l12 -5l2 2q16 -4 33 -8l-25 14l-2 1zM369 -7q19 -2 36 -4q11 -1 19 -3q-35 13 -87 25q-56 12 -93 20l-5 -5q63 -27 130 -33zM546 631q-9 3 -22.5 4.5t-25.5 3.5l31 -26q40 -6 72 -18l14 -3l6 7q-45 22 -75 32zM431 -17q-4 2 -7 3q4 -1 7 -3z" />
    <glyph glyph-name="plusminus" unicode="&#xb1;" horiz-adv-x="456" 
d="M273 359v-107h-94v107h-108v93h45h47h16v108q10 0 31 -1t32 -1h12q7 0 19 2v-108q7 0 34 -1t41 -1h14h10q6 2 8 2v-93h-107zM76 463l98 24l3 -27zM172 503l-8 -6l8 90v-84zM182 582l100 19l1 -144l-2 115l-97 -2zM383 464l-82 -3l-2 18zM392 450l7 6l-9 -103zM381 345
l-96 -6l20 -115l-131 5l7 16l100 2l-2 102zM172 244l-10 -9l-4 110l10 4zM142 349l13 -111l-26 95l-53 12zM64 350l-11 -4v101l7 13zM151 487l-87 -16l-1 15zM305 329l10 -6l-7 -58zM302 492l-13 -3l3 86zM397 162v-73q-59 0 -194.5 1t-143.5 1l-2 37q0 8 0.5 16.5t1.5 17.5
h338zM60 79q8 -1 32.5 -3t37.5 -2h99q17 0 49.5 1.5t47.5 1.5l66 -2q-32 -5 -56.5 -7t-71.5 -2h-18h-20q-53 1 -89.5 2.5t-77.5 1.5zM400 81q-33 0 -111 -1t-84 -1q-10 0 -22 -0.5t-26 -0.5q-35 0 -57.5 1.5t-30.5 7.5h128q138 0 168 -1.5t35 -4.5zM399 175l14 -1v-96
l-10 -7l2 88zM69 167l-9 10q5 0 75 1t100 1q27 0 81 -4.5t81 -4.5zM45 167l8 7l-2 -58q0 -10 0.5 -19.5t1.5 -22.5l-9 -3q0 9 -1 20q-4 26 -4 33q0 8 2 19.5t4 23.5z" />
    <glyph glyph-name="divide" unicode="&#xf7;" horiz-adv-x="597" 
d="M78 208v88q28 0 224.5 -1t210.5 -1l4 -45v-10v-20q-5 -8 -8 -11h-431zM490 298h-68h-65q-204 0 -240 2t-47 5q38 0 138 2q262 6 297 6zM75 192h-32l3 110h19l-5 -91zM78 198q39 0 128.5 -5.5t148.5 -5.5q35 0 77 1.5t76 1.5l-18 12zM543 202l-18 -10l5 72v13v21
q-5 10 -6 15l22 -8q3 -13 6.5 -30.5t3.5 -20.5q0 -10 -5 -24.5t-8 -27.5zM354 413q0 -29 -20.5 -49.5t-48.5 -20.5q-30 0 -50.5 20t-20.5 50q0 29 32 50q29 19 59 19q25 0 38 -24q11 -19 11 -45zM214 373l27 -22l-28 10l-6 55zM285 343l-35 -5l-23 11zM363 406l-6 53l15 -55
l-20 -33q-10 -9 -30 -21q-18 -10 -34 -19q32 20 44 31q19 18 31 44zM303 498l41 -15l8 -18zM322 496l-28 -9l-11 9h39zM274 493q-28 -11 -35 -16q-13 -7 -30 -24l5 -15q9 20 24 33q12 11 36 22zM366 371q-22 -12 -44 -25l-9 -15zM289 483q-12 -4 -33 -14q-25 -11 -28 -16
l-16 -27v-7l-3 11l27 35q6 5 23 14q12 7 25 13zM354 78q0 -29 -20.5 -49.5t-48.5 -20.5q-30 0 -50.5 20.5t-20.5 49.5t32 50q29 19 59 19q25 0 38 -23q11 -19 11 -46zM214 39l27 -23l-28 10l-6 56zM285 8l-35 -5l-23 11zM363 71l-6 53l15 -55l-20 -33q-10 -9 -30 -21
q-18 -10 -34 -19q32 20 44 31q19 18 31 44zM303 163l41 -15l8 -18zM322 161l-28 -9l-11 10zM274 158q-28 -11 -35 -15q-13 -8 -30 -25l5 -15q9 21 24 33q12 11 36 22zM366 36q-22 -12 -44 -25l-9 -14zM289 148q-12 -4 -33 -14q-25 -11 -28 -16l-16 -27v-7l-3 12l27 34
q6 5 23 14q12 7 25 13z" />
    <glyph glyph-name="oslash" unicode="&#xf8;" horiz-adv-x="571" 
d="M495 242q0 -15 -1 -50t-1 -39q-19 -33 -42 -69q12 23 20 40q16 33 16 47q0 45 -2 83q-5 130 -5 141q0 10 -1 27q-5 37 -5 46q0 14 2.5 30t5.5 33q5 -67 9 -147t4 -142zM149 566q10 10 21 18q16 14 22 14q9 0 31 -1t35 -1q23 0 38.5 2t31.5 10q-12 3 -21 5.5t-17 2.5
q-22 0 -50 -5.5t-54 -9.5q-19 -18 -43 -47q-20 -25 -40 -55q3 18 11 30t35 37zM393 77q-3 -1 -26 -2.5t-32 -3.5l34 -26l91 77q-10 -7 -33 -24q-19 -12 -34 -21zM279 62q5 -4 11 -7l8 -4l5 1q6 0 16.5 -2t20.5 -5zM80 501q23 22 45 47q28 31 43 52q-11 -4 -21.5 -8t-11.5 -5
q-27 -31 -39.5 -63t-12.5 -78q0 -9 2.5 -28t2.5 -29l-2 -180q-1 24 -5 56q-6 65 -6 94q0 71 5 142zM462 689q2 -3 8.5 -5t9.5 -4l66 -68l-90 64l-7 29zM505 615l-26 28l53 -43l8 -23zM107 -10l3 -19q-24 25 -46 55t-37 56l24 -14q13 -17 27.5 -36.5t28.5 -41.5zM178 88
q-45 -69 -61 -91q18 25 65 85zM488 514q21 31 25 34l3 31q-14 -22 -38 -53zM374 380v11l-8 -11v-7l-1 -23l-4 22l-117 -168q4 -8 7 -11l-11 4l-8 -11q14 -5 34 -5h32q45 0 60.5 26t15.5 86v87zM209 423q0 -13 2 -39t2 -40v-40v-5l13 18q61 87 93 133q-6 -2 -13 -2h-48
l-23 21l96 -1q4 4 7 9q-16 8 -40 8h-32q-44 0 -59.5 -23t-15.5 -81v-88v-23l10 13q-3 30 -3 70v28q0 24 4 44.5t17 34.5zM357 323q0 -37 -4 -75l8 -30l2 117l-7 15zM298 193l47 14l-34 2q-6 0 -15 -2t-18 -5zM457 654l55 -64l-41 -58l-3 -36q-1 12 -3 17q-1 4 -2 7l-9 -13
q20 -49 20 -124v-95q0 -117 -37.5 -166t-124.5 -49h-57q-54 0 -90 20l-3 -6q-10 4 -18 6q7 -5 14 -11l-51 -75l-56 63q20 27 51 70v1q-9 27 -19 77q10 -27 27 -65l1 2q-20 50 -20 133v95q0 107 41 158t122 51h51q21 0 40 -4q6 -4 45 -13q1 -1 2 -1l8 -5l1 3l22 -8l-16 12
l-2 1zM243 55q13 -3 23 -4q8 -1 13 -3q-23 11 -58 22q-36 10 -59 17l-4 -5q41 -23 85 -27zM357 603q-6 2 -15 4t-17 3l20 -22q26 -5 47 -14l9 -2l4 5q-28 18 -48 26zM283 45q-2 3 -4 3q3 0 4 -3z" />
    <glyph glyph-name="Acircumflex" unicode="&#xc2;" horiz-adv-x="686" 
d="M457 21l-36 140h-178l-38 -140h-129l155 582h200l155 -582h-129zM331 493l-64 -236h128zM284 632h-21t-15 -1q-1 -5 -16 -13q-10 -5 -20 -8h56q27 0 87.5 2t64.5 2l1 14h-18q-13 0 -25.5 -0.5t-25.5 -0.5q-14 0 -39 2.5t-29 2.5zM439 618l25 -12q13 -62 19 -93
q12 -56 24 -93q-24 58 -38 98q-19 54 -30 100zM588 97q-45 173 -50 195q-10 42 -23 120l-21 -8q31 -73 41 -102q24 -70 24 -164q1 -14 2 -27l4 9zM588 82q2 -14 4 -23.5t8.5 -24.5t9.5 -23l23 -4q-3 4 -24 35q-13 19 -21 40zM201 586l15 8q-22 -78 -47 -165
q-28 -97 -49 -165q-9 -29 -52 -166q29 123 63 245q10 37 70 243zM260 156l-12 -32q54 23 61 26q30 11 94 11l4 -10q-17 3 -25 4q-24 4 -43 4zM45 22l18 -17l76 347q-21 -88 -42 -175q-33 -131 -52 -155zM179 563l6 4q-17 -64 -37.5 -136t-44.5 -148q15 71 31 142
q22 89 45 138zM407 124q8 1 22.5 -56t22.5 -57h40t44 1q29 0 46.5 -1t34.5 -6q-11 -7 -36.5 -9t-44.5 -2l-112 3q-3 -1 -3.5 3t-0.5 14v15q0 14 -4 39.5t-9 55.5zM237 107q4 -13 4 -32q0 -12 -1 -26t-1 -15l3 -31h-41q-25 0 -83 2t-62 2q93 0 168 8q3 10 4 27t1 19
q4 2 6 22.5t2 23.5zM369 370l-27 55l24 -93zM381 270l-12 -5l-1 19v6l1 11zM278 262h80l-2 9l-67 -1l42 191zM241 807l170 2l95 -95l-124 -2l-58 54l-54 -53l-118 -1zM236 814l66 2l-81 5l-74 -98zM271 703l49 46q-14 -19 -37 -55l-74 -4l-52 13h114zM380 703q-15 9 -24 15
q-17 11 -21 15l-8 20zM507 701l-89 3l-23 -10zM413 821l-60 -4l-38 6zM500 729l-55 74l-21 10z" />
    <glyph glyph-name="Atilde" unicode="&#xc3;" horiz-adv-x="683" 
d="M459 21l-36 140h-178l-38 -140h-129l155 582h200l155 -582h-129zM333 493l-64 -236h128zM286 632h-21t-15 -1q-1 -5 -16 -13q-10 -5 -20 -8h56q27 0 87.5 2t64.5 2l1 14h-18q-13 0 -25.5 -0.5t-25.5 -0.5q-14 0 -39 2.5t-29 2.5zM441 618l25 -12q13 -62 19 -93
q12 -56 24 -93q-24 58 -38 98q-19 54 -30 100zM590 97q-45 173 -50 195q-10 42 -23 120l-21 -8q31 -73 41 -102q24 -70 24 -164q1 -14 2 -27l4 9zM590 82q2 -14 4 -23.5t8.5 -24.5t9.5 -23l23 -4q-3 4 -24 35q-13 19 -21 40zM203 586l15 8q-22 -78 -47 -165
q-28 -97 -49 -165q-9 -29 -52 -166q29 123 63 245q10 37 70 243zM262 156l-12 -32q54 23 61 26q30 11 94 11l4 -10q-17 3 -25 4q-24 4 -43 4zM47 22l18 -17l76 347q-21 -88 -42 -175q-33 -131 -52 -155zM181 563l6 4q-17 -64 -37.5 -136t-44.5 -148q15 71 31 142
q22 89 45 138zM409 124q8 1 22.5 -56t22.5 -57h40t44 1q29 0 46.5 -1t34.5 -6q-11 -7 -36.5 -9t-44.5 -2l-112 3q-3 -1 -3.5 3t-0.5 14v15q0 14 -4 39.5t-9 55.5zM239 107q4 -13 4 -32q0 -12 -1 -26t-1 -15l3 -31h-41q-25 0 -83 2t-62 2q93 0 168 8q3 10 4 27t1 19
q4 2 6 22.5t2 23.5zM371 370l-27 55l24 -93zM383 270l-12 -5l-1 19v6l1 11zM280 262h80l-2 9l-67 -1l42 191zM381 711q-22 0 -64 8t-63 8q-37 0 -58 -29l-60 10q19 36 47 55.5t69 19.5q24 0 71 -8t71 -8q20 0 37.5 7.5t25.5 24.5l60 -12q-21 -37 -56.5 -56.5t-79.5 -19.5z
M244 714q1 0 7 -2.5t8 -3.5h-24q-20 -6 -37 -15q5 7 16 15t20 14zM374 704q5 -1 20 0.5t16 -0.5q-26 -10 -50 -4t-44 13q15 -2 32 -4.5t26 -4.5zM455 803l-18 -18l-9 2l15 9zM141 732l6.5 13t4.5 14q23 13 41 20t45 11l18 2h42l50 -12q-11 -2 -47.5 5t-67.5 8q-1 0 -8 -2.5
t-11 -2.5q-19 -9 -30 -15.5t-22 -15.5q-2 -2 -7 -9q-30 -50 -14 -16zM159 701q15 -7 36 -9q-19 -3 -30.5 -2t-17.5 2l-15 10zM307 716l7 -12q-10 6 -28.5 9t-40.5 5q12 3 23.5 2t22.5 -2zM370 772l-14 6q8 1 21 -1t32 0l23 6l-11 -9l-21 -4zM466 802l-6 7l16 -2
q17 -3 27.5 -5.5t22.5 -6.5q-6 -1 -22 0q-10 2 -20 3zM415 710q14 0 35 10q60 38 70 61l-16 -28l-44 -33q-24 -12 -45 -19v9z" />
    <glyph glyph-name="Agrave" unicode="&#xc0;" horiz-adv-x="663" 
d="M449 21l-36 140h-178l-38 -140h-129l155 582h200l155 -582h-129zM323 493l-64 -236h128zM276 632q4 0 29 -2.5t39 -2.5q13 0 25.5 0.5t25.5 0.5h18l-1 -14q-4 0 -64.5 -2t-87.5 -2h-56q10 3 20 8q15 8 16 13q6 1 15 1h21zM431 618l25 -12q13 -62 19 -93q12 -56 24 -93
q-24 58 -38 98q-19 54 -30 100zM557 120l-4 -9q-1 13 -2 27q0 94 -24 164q-10 29 -41 102l21 8q13 -78 23 -120q5 -22 50 -195zM580 82q8 -21 21 -40q21 -31 24 -35l-23 4q-3 8 -9.5 23t-8.5 24.5t-4 23.5zM193 586l15 8q-22 -78 -47 -165q-28 -97 -49 -165q-9 -29 -52 -166
q29 123 63 245q10 37 70 243zM331 159q19 0 43 -4q8 -1 25 -4l-4 10q-64 0 -94 -11q-7 -3 -61 -26l12 32zM37 22q19 24 52 155q21 87 42 175l-76 -347l-18 17v0zM171 563l6 4q-17 -64 -37.5 -136t-44.5 -148q15 71 31 142q22 89 45 138zM399 124q8 1 22.5 -56t22.5 -57h40
t44 1q29 0 46.5 -1t34.5 -6q-11 -7 -36.5 -9t-44.5 -2l-112 3q-3 -1 -3.5 3t-0.5 14v15q0 14 -4 39.5t-9 55.5zM229 107q4 -13 4 -32q0 -12 -1 -26t-1 -15l3 -31h-41q-25 0 -83 2t-62 2q93 0 168 8q3 10 4 27t1 19q4 2 6 22.5t2 23.5zM361 370l-27 55l24 -93zM373 270
l-12 -5l-1 19v6l1 11zM323 461l-42 -191l67 1l2 -9h-80zM312 714q-28 32 -63.5 63.5t-69.5 56.5q9 2 25.5 4.5t44.5 9.5q25 7 44 14l87 -131l-68 -17v0zM355 818q6 -7 15.5 -23t15.5 -23q8 -8 24.5 -22.5t23.5 -22.5l-33 11l-52 55q-11 14 -24 36q-2 7 -17 38zM162 844
q33 9 67 18.5t68 18.5l5 -14l-55 -14l-68 -15l-17 6v0zM300 718l-10 -15l-105 125q25 -29 45.5 -48.5t69.5 -61.5zM406 730l-44 -19l-61 -8l33 8z" />
    <glyph glyph-name="Aacute" unicode="&#xc1;" horiz-adv-x="671" 
d="M452 21l-36 140h-178l-38 -140h-129l155 582h200l155 -582h-129zM326 493l-64 -236h128zM279 632q4 0 29 -2.5t39 -2.5q13 0 25.5 0.5t25.5 0.5h18l-1 -14q-4 0 -64.5 -2t-87.5 -2h-56q10 3 20 8q15 8 16 13q6 1 15 1h21zM434 618l25 -12q13 -62 19 -93q12 -56 24 -93
q-24 58 -38 98q-19 54 -30 100zM560 120l-4 -9q-1 13 -2 27q0 94 -24 164q-10 29 -41 102l21 8q13 -78 23 -120q5 -22 50 -195zM583 82q8 -21 21 -40q21 -31 24 -35l-23 4q-3 8 -9.5 23t-8.5 24.5t-4 23.5zM196 586l15 8q-22 -78 -47 -165q-28 -97 -49 -165q-9 -29 -52 -166
q29 123 63 245q10 37 70 243zM334 159q19 0 43 -4q8 -1 25 -4l-4 10q-64 0 -94 -11q-7 -3 -61 -26l12 32zM40 22q19 24 52 155q21 87 42 175l-76 -347zM174 563l6 4q-17 -64 -37.5 -136t-44.5 -148q15 71 31 142q22 89 45 138zM402 124q8 1 22.5 -56t22.5 -57h40t44 1
q29 0 46.5 -1t34.5 -6q-11 -7 -36.5 -9t-44.5 -2l-112 3q-3 -1 -3.5 3t-0.5 14v15q0 14 -4 39.5t-9 55.5zM232 107q4 -13 4 -32q0 -12 -1 -26t-1 -15l3 -31h-41q-25 0 -83 2t-62 2q93 0 168 8q3 10 4 27t1 19q4 2 6 22.5t2 23.5zM364 370l-27 55l24 -93zM376 270l-12 -5
l-1 19v6l1 11zM326 461l-42 -191l67 1l2 -9h-80zM365 714l-68 17l87 131q19 -7 44 -14q28 -7 44.5 -9.5t25.5 -4.5q-34 -25 -69.5 -56.5t-63.5 -63.5zM322 818q-6 -7 -15.5 -23t-15.5 -23q-8 -8 -24.5 -22.5t-23.5 -22.5l33 11l52 55q11 14 24 36q2 7 17 38zM515 844l-17 -6
l-68 15l-55 14l5 14q34 -9 68 -18.5t67 -18.5zM377 718l10 -15l105 125q-25 -29 -45.5 -48.5t-69.5 -61.5zM343 711l33 -8l-61 8l-44 19z" />
    <glyph glyph-name="Adieresis" unicode="&#xc4;" horiz-adv-x="683" 
d="M457 21l-36 140h-178l-38 -140h-129l155 582h200l155 -582h-129zM331 493l-64 -236h128zM284 632h-21t-15 -1q-1 -5 -16 -13q-10 -5 -20 -8h56q27 0 87.5 2t64.5 2l1 14h-18q-13 0 -25.5 -0.5t-25.5 -0.5q-14 0 -39 2.5t-29 2.5zM439 618l25 -12q13 -62 19 -93
q12 -56 24 -93q-24 58 -38 98q-19 54 -30 100zM588 97q-45 173 -50 195q-10 42 -23 120l-21 -8q31 -73 41 -102q24 -70 24 -164q1 -14 2 -27l4 9zM588 82q2 -14 4 -23.5t8.5 -24.5t9.5 -23l23 -4q-3 4 -24 35q-13 19 -21 40zM201 586l15 8q-22 -78 -47 -165
q-28 -97 -49 -165q-9 -29 -52 -166q29 123 63 245q10 37 70 243zM260 156l-12 -32q54 23 61 26q30 11 94 11l4 -10q-17 3 -25 4q-24 4 -43 4zM45 22l18 -17l76 347q-21 -88 -42 -175q-33 -131 -52 -155zM179 563l6 4q-17 -64 -37.5 -136t-44.5 -148q15 71 31 142
q22 89 45 138zM407 124q8 1 22.5 -56t22.5 -57h40t44 1q29 0 46.5 -1t34.5 -6q-11 -7 -36.5 -9t-44.5 -2l-112 3q-3 -1 -3.5 3t-0.5 14v15q0 14 -4 39.5t-9 55.5zM237 107q4 -13 4 -32q0 -12 -1 -26t-1 -15l3 -31h-41q-25 0 -83 2t-62 2q93 0 168 8q3 10 4 27t1 19
q4 2 6 22.5t2 23.5zM369 370l-27 55l24 -93zM381 270l-12 -5l-1 19v6l1 11zM278 262h80l-2 9l-67 -1l42 191zM177 700v91q25 -3 34.5 -3h20.5q23 0 51 3q2 -10 2.5 -25.5t0.5 -16.5q0 -9 -0.5 -17t-2.5 -32h-106zM240 693l58 -1l-113 -14l-17 10q11 0 27 1q36 4 45 4z
M169 738q0 -7 2 -22.5t2 -22.5l-8 -3q-4 18 -6 45t-2 48q3 1 7 4t6 4zM302 700l-9 5v47q0 9 -1.5 25t-1.5 19l14 6zM246 797q-15 0 -46 -1.5t-47 -1.5l19 12q32 0 64.5 -0.5t64.5 -0.5q-8 0 -27 -4t-28 -4zM385 700v91q26 -3 35.5 -3h19.5q23 0 52 3q1 -10 1.5 -25.5
t0.5 -16.5q0 -9 -0.5 -17t-1.5 -32h-107zM448 693l59 -1l-114 -14l-17 10q11 0 27 1q36 4 45 4zM378 738q0 -7 1.5 -22.5t1.5 -22.5l-8 -3q-4 18 -5.5 45t-1.5 48q2 1 6 4t6 4v-53zM510 700l-9 5v47q0 9 -1.5 25t-1.5 19l14 6zM454 797q-15 0 -46 -1.5t-47 -1.5l19 12
q32 0 64.5 -0.5t64.5 -0.5q-8 0 -27 -4t-28 -4z" />
    <glyph glyph-name="Aring" unicode="&#xc5;" horiz-adv-x="678" 
d="M454 21l-36 140h-178l-38 -140h-129l155 582h200l155 -582h-129zM328 493l-64 -236h128zM281 632h-21t-15 -1q-1 -5 -16 -13q-10 -5 -20 -8h56q27 0 87.5 2t64.5 2l1 14h-18q-13 0 -25.5 -0.5t-25.5 -0.5q-14 0 -39 2.5t-29 2.5zM436 618l25 -12q13 -62 19 -93
q12 -56 24 -93q-24 58 -38 98q-19 54 -30 100zM585 97q-45 173 -50 195q-10 42 -23 120l-21 -8q31 -73 41 -102q24 -70 24 -164q1 -14 2 -27l4 9zM585 82q2 -14 4 -23.5t8.5 -24.5t9.5 -23l23 -4q-3 4 -24 35q-13 19 -21 40zM198 586l15 8q-22 -78 -47 -165
q-28 -97 -49 -165q-9 -29 -52 -166q29 123 63 245q10 37 70 243zM257 156l-12 -32q54 23 61 26q30 11 94 11l4 -10q-17 3 -25 4q-24 4 -43 4zM42 22l18 -17l76 347q-21 -88 -42 -175q-33 -131 -52 -155zM176 563l6 4q-17 -64 -37.5 -136t-44.5 -148q15 71 31 142
q22 89 45 138zM404 124q8 1 22.5 -56t22.5 -57h40t44 1q29 0 46.5 -1t34.5 -6q-11 -7 -36.5 -9t-44.5 -2l-112 3q-3 -1 -3.5 3t-0.5 14v15q0 14 -4 39.5t-9 55.5zM234 107q4 -13 4 -32q0 -12 -1 -26t-1 -15l3 -31h-41q-25 0 -83 2t-62 2q93 0 168 8q3 10 4 27t1 19
q4 2 6 22.5t2 23.5zM366 370l-27 55l24 -93zM378 270l-12 -5l-1 19v6l1 11zM275 262h80l-2 9l-67 -1l42 191zM232 804q0 21 3 27.5t19 19.5q-5 -6 -9 -12q-6 -8 -6 -13q0 -15 2.5 -45.5t2.5 -44.5q0 -5 -1.5 -9.5t-2.5 -9.5q-8 44 -8 87zM413 792v-32q0 -29 -16 -43
q-19 -18 -57 -18h-20q-37 0 -55 14q-21 15 -21 64q0 30 3 41q5 20 22 28q19 10 58 10q47 0 67 -16q19 -15 19 -48zM329 729q22 0 30 7t8 23q0 6 0.5 16t0.5 21.5t-11 20.5q-10 8 -29 8q-28 0 -35 -16q-5 -8 -5 -32v-9q0 -24 10 -32q10 -7 31 -7zM332 690l-27 3q-12 3 -41 -4
q-10 5 -19 8l1 17q2 -5 3 -7t3 -7l53 -4l18 -14zM374 686l3 10l-28 1q-2 1 -15 -11h40zM391 709q3 3 10 11q5 4 7 6q-2 -3 -3.5 -5.5t-4.5 -6.5l-13 -9l-11 -2l-5 -2zM281 854q-4 -1 -15 -7q-6 -2 -16 -7q11 5 18.5 10l16.5 11l27 -3q-4 -1 -16.5 -2t-14.5 -2zM304 863
q2 0 8.5 -1t7.5 -1h3q4 -1 6 -3zM419 768v-10q0 -9 -1 -15.5t-5 -12.5l2 84q0 -7 3 -29q1 -12 1 -17zM377 696l19 11q9 7 17 15q0 -1 -9 -10q-7 -8 -12 -12zM383 851q-13 2 -29.5 5.5t-26.5 6.5q4 -2 18 -2t18 -2zM389 850q3 -2 7 -3t5 -1q3 -2 9 -16q3 -7 6 -18
q-9 15 -12 19q-7 10 -15 19zM298 778q0 -3 0.5 -10.5t0.5 -10.5q-1 5 -3 9.5t-2 8.5l1 37l8 -1q-3 -9 -4 -17t-1 -16zM298 742q-3 2 -4 8t-1 12v9zM359 748q0 5 -1 13.5t-1 10.5q0 17 -1 24q-3 6 -4 13q-2 0 -6 4t-4 5l7 -2q7 -7 10 -13t3 -12q0 -5 1 -17t1 -13
q0 -8 -1.5 -13t-6.5 -10zM327 734h-9q-11 1 -15 2l5 3q2 0 6 -0.5t7 -0.5h9l23 4l-6 -7q-6 -1 -13 -1h-7zM336 820q-8 -1 -15.5 -2.5t-10.5 -3.5l-7 1l7.5 4.5t10.5 1.5z" />
    <glyph glyph-name="Ccedilla" unicode="&#xc7;" horiz-adv-x="711" 
d="M457 686q84 -15 155 -34q14 -22 24.5 -47t10.5 -44l-35 67l-79 31q-32 4 -47.5 4h-36.5h-85q23 3 48 8q36 8 45 15zM694 394q-11 0 -48 10q-18 5 -30 5q-6 0 -13.5 -1.5t-18.5 -5.5q-38 4 -60 7t-24 7l100 3h33t35 -3l-2 176q5 -47 13 -94.5t21 -103.5h-6zM681 97l-27 5
l7 13q1 2 1 20v30q0 20 5 41.5t11 42.5l3 -113v-39zM170 659q3 1 14.5 7t15.5 6l3 -4q5 0 15.5 5.5t15.5 7.5t37 3.5t61 1.5l-82 -15zM360 672l-21 -8l-42 3q29 9 59 18l52 3q-12 -3 -21.5 -5.5t-26.5 -10.5zM233 364q0 12 2.5 22.5t7.5 24.5v-11q0 -3 7 -47q2 -13 2 -28
v-122l-19 91l4 13q0 2 -2 25t-2 32zM249 483l18 14q-8 -18 -8 -36v-7l-15 -30zM259 181q4 -1 22 -7q24 -6 37 -6l73 15q6 1 22 4h35l31 54q-8 -23 -10 -32q-5 -19 -5 -32l2 -5l3 1q-93 -9 -186 -17zM680 72q-15 -14 -36.5 -28t-38.5 -20q9 8 28 24q11 10 25 26zM574 -3
l-33 -1l60 24q-7 -5 -14 -10.5t-13 -12.5zM27 472l-3 99l35 50q22 5 36 17q21 23 43 47q7 7 39 10t87 5q-22 -5 -45 -10.5t-43 -11.5q-39 -14 -83 -49q-53 -42 -57 -76zM182 -24q-96 68 -124 172q-22 83 -22 187q5 -35 15 -101.5t26 -110.5q3 -9 10 -28t14 -30l52 -57z
M36 353v63q0 9 11 60t29 124q6 4 39.5 26.5t34.5 30.5l21 -18q-14 -2 -41 -19q-19 -12 -37 -27q-4 -21 -10.5 -42t-14.5 -37q0 -1 -7 -10q-3 -5 -4 -9zM35 208q7 -12 13 -56q2 -19 6 -23l11 -14l-1 -4l4 -8q10 -14 13.5 -37.5t23.5 -47.5l54 -36l-57 21q-38 53 -52 97
q-17 55 -41 151zM607 236q-15 0 -41.5 2.5t-56.5 5.5q15 8 79 11.5t65 3.5l-14 -15zM407 500l63 -23l6 -24q-48 22 -97 34.5t-98 12.5h126zM241 -47l2 -3q8 -7 18 -10.5t65 5.5l21 -7q-23 3 -75 -4q-18 3 -25 6q-13 7 -13 8t31 31l24 21l13 6q-9 -8 -21.5 -19t-39.5 -34z
M365 -9q25 2 49 1t40 -8l32 -17q11 -12 13 -25.5t0 -21.5t-12 -22q13 36 0 56q-9 21 -54 30q-12 2 -20 2.5t-15 0.5h-24l-33 -7zM460 -117q11 4 24 16l-6 -14l-67 -23h-145l-61 9q-14 8 -10 23q11 13 28 19q2 0 34 -3l10 -7q-25 6 -27.5 5.5t-23.5 -1.5q-9 -7 -17 -18
q-3 -14 19 -15q35 -5 61 -9h71q24 0 61 3q42 13 49 15zM288 -96q-6 0 -15.5 3.5t-11.5 6.5l24 -6h55l17 7l5 7q-1 8 -6.5 13t-14.5 8l23 -6l4 -20l-9 -8l-17 -5h-54zM328 -23q10 0 31 3t32 3q49 0 75 -17q22 -14 22 -39q0 -35 -62 -49q-37 -8 -92 -8q-66 0 -134 14l19 20
q21 -3 49 -5.5t39 -2.5q25 0 40 3q29 6 29 21q0 16 -13 22t-32 6q-17 0 -32.5 -3t-24.5 -5l-28 12l54 49q-152 5 -202 86q-40 65 -40 252q0 165 40 230q53 86 204 86h104q144 0 193 -41q56 -47 56 -186q-17 3 -31 3q-15 0 -45 -3t-46 -3l-39 3q0 55 -35 74q-24 13 -81 13
h-41q-73 0 -100 -41q-21 -32 -21 -102q0 -26 1.5 -68t1.5 -43q0 -88 39 -108q23 -12 124 -12q48 0 66 5q46 13 46 80q10 3 25.5 6t25.5 3q15 0 45 -5t46 -5q12 0 19 1q0 -145 -61 -189q-49 -36 -203 -36h-31z" />
    <glyph glyph-name="Eacute" unicode="&#xc9;" horiz-adv-x="604" 
d="M418 12q-82 0 -164 1l-164 2q0 36 -3 111t-3 113q0 60 3 179t3 179h417l10 -116h-271q4 -20 4 -45q0 -15 -1.5 -33.5t-2.5 -28.5h270q-1 -13 -1.5 -22.5t-0.5 -16.5q0 -12 1 -38t1 -39l-67 3q-50 0 -101 -1l-102 -2q2 -17 4 -36t2 -35q0 -28 -6 -55q24 4 58.5 6t65.5 2
q27 0 87.5 -4t78.5 -4v-117q-29 0 -59 -1t-59 -2zM569 146q-2 -5 -5 -14t-3 -19q0 -8 2 -27.5t2 -20.5l-2 -68q-9 38 -15.5 75t-6.5 68zM529 546l7 -12l18 -53l-12 -8zM517 597l1 3l11 -54q-1 10 -5 25.5t-7 25.5zM534 366q6 -34 7.5 -52t1.5 -60l-27 4q9 30 12.5 58t3.5 64
l16 -12zM341 482q52 -6 78 -8q79 -8 84 -10h-238zM542 456l1 -10l-50 18zM477 588q-11 5 -62 11.5t-135 15.5q41 0 123 -1t123 -1zM92 602l-2 -3l-1 8l195 -10zM539 604l30 -4l-11 15q-3 -11 -15 -43q-6 -18 -9 -26l-2 -6zM339 408q16 0 24 -2l12 -3l123 -28h-40h-18
q-11 0 -23 0.5t-27 3.5l-60 29q-8 1 -20 1.5t-24 0.5q7 -2 13.5 -2h13.5h26zM263 389l-3 18q42 -4 84 -17q-20 0 -40.5 -0.5t-40.5 -0.5zM409 162q40 0 83.5 -13t82.5 -35q-6 7 -11 14t-9 15l-66 3q-39 0 -77 -8zM331 166q8 0 20.5 -3.5t27.5 -7.5l-112 -18l-1 5v16
q20 3 38 5.5t27 2.5zM52 335l3 43q0 88 -2 140.5t-13 86.5l27 1q-5 -22 -7 -38q-5 -34 -5 -63q0 -48 5.5 -87.5t18.5 -79.5zM54 18l11 8l10 -9q0 53 3 159t3 159q0 41 -3 124t-3 124h14q0 -149 -8 -284.5t-27 -280.5zM492 1q40 0 81 -6l-1 24q-67 -19 -247 -28
q-126 -6 -256 -6l-51 3q72 0 177 4q236 9 297 9zM38 427q16 -40 24 -107.5t8 -198.5q-1 -26 -1 -49.5v-45.5l11 2l-11 -12q0 83 -10.5 195.5t-20.5 215.5zM388 616q-55 0 -100 -2q-157 -7 -169 -7l-50 3q80 8 163.5 10.5t199.5 2.5h120l-36 4q-20 0 -80 -7q-34 -4 -48 -4z
M530 249l-10 -9l-252 -3l-6 10zM314 714l-68 17l87 131q19 -7 44 -14q28 -7 44.5 -9.5t25.5 -4.5q-34 -25 -69.5 -56.5t-63.5 -63.5zM271 818q-6 -7 -15.5 -23t-15.5 -23q-8 -8 -24.5 -22.5t-23.5 -22.5l33 11l52 55q11 14 24 36q2 7 17 38zM464 844l-17 -6l-68 15l-55 14
l5 14q34 -9 68 -18.5t67 -18.5zM326 718l10 -15l105 125q-25 -29 -45.5 -48.5t-69.5 -61.5zM292 711l33 -8l-61 8l-44 19z" />
    <glyph glyph-name="Edieresis" unicode="&#xcb;" horiz-adv-x="604" 
d="M410 12q-82 0 -164 1l-164 2q0 36 -3 111t-3 113q0 60 3 179t3 179h417l10 -116h-271q4 -20 4 -45q0 -15 -1.5 -33.5t-2.5 -28.5h270q-1 -13 -1.5 -22.5t-0.5 -16.5q0 -12 1 -38t1 -39l-67 3q-50 0 -101 -1l-102 -2q2 -17 4 -36t2 -35q0 -28 -6 -55q24 4 58.5 6t65.5 2
q27 0 87.5 -4t78.5 -4v-117q-29 0 -59 -1t-59 -2zM561 146q-2 -5 -5 -14t-3 -19q0 -8 2 -27.5t2 -20.5l-2 -68q-9 38 -15.5 75t-6.5 68zM534 473l12 8l-18 53l-7 12zM509 597l1 3l11 -54q-1 10 -5 25.5t-7 25.5zM540 368l-16 12q0 -36 -3.5 -64t-12.5 -58l27 -4
q0 42 -1.5 60t-7.5 52zM333 482l-76 -18h238q-5 2 -84 10q-26 2 -78 8zM534 456l1 -10l-50 18zM469 588l49 25q-41 0 -123 1t-123 1q84 -9 135 -15.5t62 -11.5zM84 602l-2 -3l-1 8l195 -10zM531 604l30 -4l-11 15q-3 -11 -15 -43q-6 -18 -9 -26l-2 -6zM331 408q16 0 24 -2
l12 -3l123 -28h-40h-18q-11 0 -23 0.5t-27 3.5l-60 29q-8 1 -20 1.5t-24 0.5q7 -2 13.5 -2h13.5h26zM255 389l-3 18q42 -4 84 -17q-20 0 -40.5 -0.5t-40.5 -0.5zM401 162l3 -24q38 8 77 8l66 -3q4 -8 9 -15t11 -14q-39 22 -82.5 35t-83.5 13zM323 166q8 0 20.5 -3.5
t27.5 -7.5l-112 -18l-1 5v16q20 3 38 5.5t27 2.5zM71 338q-13 40 -18.5 79.5t-5.5 87.5q0 29 5 63q2 16 7 38l-27 -1q11 -34 13 -86.5t2 -140.5l-3 -43zM46 18l11 8l10 -9q0 53 3 159t3 159q0 41 -3 124t-3 124h14q0 -149 -8 -284.5t-27 -280.5zM484 1q40 0 81 -6l-1 24
q-67 -19 -247 -28q-126 -6 -256 -6l-51 3q72 0 177 4q236 9 297 9zM30 427q10 -103 20.5 -215.5t10.5 -195.5l11 12l-11 -2v45.5t1 49.5q0 131 -8 198.5t-24 107.5zM380 616q-55 0 -100 -2q-157 -7 -169 -7l-50 3q80 8 163.5 10.5t199.5 2.5h120l-36 4q-20 0 -80 -7
q-34 -4 -48 -4zM522 249l-10 -9l-252 -3l-6 10zM133 700v91q25 -3 34.5 -3h20.5q23 0 51 3q2 -10 2.5 -25.5t0.5 -16.5q0 -9 -0.5 -17t-2.5 -32h-106zM196 693l58 -1l-113 -14l-17 10q11 0 27 1q36 4 45 4zM125 738q0 -7 2 -22.5t2 -22.5l-8 -3q-4 18 -6 45t-2 48q3 1 7 4
t6 4zM258 700l-9 5v47q0 9 -1.5 25t-1.5 19l14 6zM202 797q-15 0 -46 -1.5t-47 -1.5l19 12q32 0 64.5 -0.5t64.5 -0.5q-8 0 -27 -4t-28 -4zM341 700v91q26 -3 35.5 -3h19.5q23 0 52 3q1 -10 1.5 -25.5t0.5 -16.5q0 -9 -0.5 -17t-1.5 -32h-107zM404 693l59 -1l-114 -14
l-17 10q11 0 27 1q36 4 45 4zM334 738q0 -7 1.5 -22.5t1.5 -22.5l-8 -3q-4 18 -5.5 45t-1.5 48q2 1 6 4t6 4v-53zM466 700l-9 5v47q0 9 -1.5 25t-1.5 19l14 6zM410 797q-15 0 -46 -1.5t-47 -1.5l19 12q32 0 64.5 -0.5t64.5 -0.5q-8 0 -27 -4t-28 -4z" />
    <glyph glyph-name="Egrave" unicode="&#xc8;" horiz-adv-x="607" 
d="M415 12q-82 0 -164 1l-164 2q0 36 -3 111t-3 113q0 60 3 179t3 179h417l10 -116h-271q4 -20 4 -45q0 -15 -1.5 -33.5t-2.5 -28.5h270q-1 -13 -1.5 -22.5t-0.5 -16.5q0 -12 1 -38t1 -39l-67 3q-50 0 -101 -1l-102 -2q2 -17 4 -36t2 -35q0 -28 -6 -55q24 4 58.5 6t65.5 2
q27 0 87.5 -4t78.5 -4v-117q-29 0 -59 -1t-59 -2zM566 146q-2 -5 -5 -14t-3 -19q0 -8 2 -27.5t2 -20.5l-2 -68q-9 38 -15.5 75t-6.5 68zM526 546l7 -12l18 -53l-12 -8zM514 597l1 3l11 -54q-1 10 -5 25.5t-7 25.5zM531 366q6 -34 7.5 -52t1.5 -60l-27 4q9 30 12.5 58t3.5 64
l16 -12zM338 482q52 -6 78 -8q79 -8 84 -10h-238l76 18v0zM539 456l1 -10l-50 18zM474 588q-11 5 -62 11.5t-135 15.5q41 0 123 -1t123 -1l-49 -25v0zM89 602l-2 -3l-1 8l195 -10zM536 604l30 -4l-11 15q-3 -11 -15 -43q-6 -18 -9 -26l-2 -6zM336 408q16 0 24 -2l12 -3
l123 -28h-40h-18q-11 0 -23 0.5t-27 3.5l-60 29q-8 1 -20 1.5t-24 0.5q7 -2 13.5 -2h13.5h26zM260 389l-3 18q42 -4 84 -17q-20 0 -40.5 -0.5t-40.5 -0.5zM406 162q40 0 83.5 -13t82.5 -35q-6 7 -11 14t-9 15l-66 3q-39 0 -77 -8l-3 24v0zM328 166q8 0 20.5 -3.5t27.5 -7.5
l-112 -18l-1 5v16q20 3 38 5.5t27 2.5zM49 335l3 43q0 88 -2 140.5t-13 86.5l27 1q-5 -22 -7 -38q-5 -34 -5 -63q0 -48 5.5 -87.5t18.5 -79.5zM51 18l11 8l10 -9q0 53 3 159t3 159q0 41 -3 124t-3 124h14q0 -149 -8 -284.5t-27 -280.5zM489 1q40 0 81 -6l-1 24
q-67 -19 -247 -28q-126 -6 -256 -6l-51 3q72 0 177 4q236 9 297 9zM35 427q16 -40 24 -107.5t8 -198.5q-1 -26 -1 -49.5v-45.5l11 2l-11 -12q0 83 -10.5 195.5t-20.5 215.5zM385 616q-55 0 -100 -2q-157 -7 -169 -7l-50 3q80 8 163.5 10.5t199.5 2.5h120l-36 4q-20 0 -80 -7
q-34 -4 -48 -4zM527 249l-10 -9l-252 -3l-6 10zM304 714q-28 32 -63.5 63.5t-69.5 56.5q9 2 25.5 4.5t44.5 9.5q25 7 44 14l87 -131l-68 -17v0zM347 818q6 -7 15.5 -23t15.5 -23q8 -8 24.5 -22.5t23.5 -22.5l-33 11l-52 55q-11 14 -24 36q-2 7 -17 38zM154 844q33 9 67 18.5
t68 18.5l5 -14l-55 -14l-68 -15l-17 6v0zM292 718l-10 -15l-105 125q25 -29 45.5 -48.5t69.5 -61.5zM398 730l-44 -19l-61 -8l33 8z" />
    <glyph glyph-name="periodcentered" unicode="&#xb7;" horiz-adv-x="405" 
d="M90 167v196q56 -5 76 -5.5t42 -0.5q51 0 111 6q4 -21 5 -53.5t1 -36.5q0 -20 -0.5 -36.5t-5.5 -69.5h-229zM226 154l125 -4l-244 -29l-35 20q22 0 56 4q78 9 98 9zM74 250q0 -16 4 -48.5t4 -49.5l-17 -6q-8 39 -12 96.5t-4 103.5q5 2 14 9t12 8zM359 169l-20 10l1 100
q0 20 -3 54.5t-3 40.5l30 13zM239 377q-33 0 -99.5 -4t-100.5 -4l40 27q69 0 138.5 -0.5t140.5 -0.5q-19 0 -59 -9t-60 -9z" />
    <glyph glyph-name="paragraph" unicode="&#xb6;" horiz-adv-x="673" 
d="M532 680h65v-902h-65q0 50 3.5 256.5t3.5 231.5l-3 256zM320 350v-572q17 -4 41 -4q15 0 34 1.5t29 2.5v927h-176q-61 0 -119 -41q-63 -45 -63 -104q0 -121 71 -170q58 -40 183 -40zM303 314l1 25l-161 8q54 -9 87 -15t73 -18zM122 691l-46 -69q43 52 49 58q26 26 65 42z
M458 726l-3 -27q-3 2 -37 9q-63 14 -79 14q-15 0 -45 -4t-45 -4q-7 0 -21 6t-22 6q29 -3 62.5 -4t75.5 -1q26 0 42 1q66 4 72 4zM40 476l12 153l1 -129q0 -10 37 -86q29 -60 41 -81q13 -4 32 -4q-35 17 -70 64q-9 13 -53 83zM438 326q0 -45 6 -251t6 -251l-22 -1v9
q0 11 4 36.5t4 33.5l4 529zM313 -186q0 -9 -3 -23t-5 -26q-5 20 -9 37t-4 26q0 13 2 24q7 39 7 42q1 -3 6.5 -36.5t5.5 -43.5zM313 -58l-10 347l7 -383q2 12 2.5 21.5t0.5 14.5zM449 -225q0 40 -2 86q-5 350 -5 379v189q0 45 3.5 136t3.5 123h-10q0 -188 5.5 -337t20.5 -543
l-11 10zM440 -195l9 -54q-11 3 -28 4t-32 1h-19l-55 -2l-3 -18l-12 16l115 17zM516 708q5 0 11 3.5t10 3.5l77 2l-96 -22l-22 15zM576 690l-17 1q8 4 22 6.5t27 4.5l22 -11zM514 505q0 30 2 101.5t2 76.5q0 -41 8 -123t8 -124q0 -65 -2 -117q-7 -416 -7 -429q-6 53 -8.5 235
t-2.5 253v127zM513 335l-2 -548q-9 36 -12.5 76.5t-3.5 321.5v186q0 55 3.5 167t3.5 152q0 -55 7 -221q4 -95 4 -134zM606 -233l13 -12q-58 0 -116 14l30 7q15 0 39 -4t34 -5zM605 365q0 -59 3 -293t3 -293q0 46 8 257t8 257v50t1 66q0 111 -4 184t-15 80q0 -53 -2 -176.5
t-2 -131.5z" />
    <glyph glyph-name="germandbls" unicode="&#xdf;" horiz-adv-x="673" 
d="M585 290l10 18l-44 32q9 -12 19 -24q14 -19 15 -26zM233 241l11 10l1 -8q0 -31 -11 -149q-6 -57 -6 -91zM548 625l-1 3l-22 -14q30 -29 55 -64q-16 37 -32 75zM574 394l-8 -17q-3 -6 -5 -9l-11 -9q9 12 12 19q3 5 6 31t4 32q4 -18 4.5 -29t-2.5 -18zM556 543l21 -35l3 42
l-14 -12zM585 489l-8 -17v36zM86 632q14 18 46.5 25.5t64.5 4.5q52 13 130 3q152 15 200 -42l-13 -1q-48 35 -97.5 31.5t-112.5 -3.5q-30 0 -65 0.5t-74 -10.5q-31 -3 -49.5 -11t-29.5 3zM606 186q1 -8 1.5 -18t-0.5 -25t-12 -55q-11 -21 -12 -30l-5 -47q33 87 35 94
q-1 33 -4 60t-5.5 53.5t-9.5 54.5q8 -8 13 -21.5t6 -28.5q1 -9 -3.5 -18.5t-3.5 -18.5zM631 55l-6 -9q-2 -4 -4 -10q-5 -22 -6 -23l-13 -19h-6q7 9 11.5 22t11.5 46q1 8 7.5 21t14.5 30zM418 -40l80 26h-40.5t-40.5 -1zM563 15l-13 -18l-52 -5q9 4 27.5 10.5t37.5 12.5z
M49 -2q0 157 -6 315t26 319l17 -18q-27 -45 -34 -173t-14 -248.5t-7 -193.5l9 8zM383 -14l4 -18l-57 7zM38 -21l1 10h182q-71 -5 -123 -7.5t-60 -2.5zM289 503l-55 3l-3 -27l55 13q21 0 49 -4t54 -7l-6 18l-9 5l-13 -1l-37 2zM377 146l4 -8l-42 -2q-15 0 -21 1.5t-16 2.5
q-1 4 21.5 5t53.5 1zM230 418l3 -154l8 163l1 40l-11 3zM393 254l34 -36l-8 -61l-24 -16l15 45l-14 53l-97 23zM64 269q0 190 11 287q2 70 134 79q35 0 64 2q100 7 107 7q96 0 137.5 -38.5t41.5 -134.5v-20q0 -53 -13 -76t-39 -34q53 -7 72 -56q13 -33 13 -98
q0 -104 -35 -145q-39 -45 -141 -45q-50 0 -113 3l1 123l23 -1q53 0 76 11q34 17 34 66q0 50 -36 67q-23 11 -79 11l-17 -1v126q37 -2 47 -2q27 0 39.5 14.5t12.5 42.5q0 27 -12.5 42.5t-39.5 15.5l-99 1q-8 0 -21 -1.5t-15 -13.5q10 -266 2 -304q-4 -54 -2.5 -109t6.5 -86
q-72 0 -101.5 -1t-59.5 -4q0 55 2 100q7 156 0 172zM364 416l31 18l-7 30l-22 8l13 -22l-12 -27l-63 -11zM290 360l2 -84l7 89l1 21l-9 2zM288 90l2 -84l7 89l1 21l-9 2z" />
    <glyph glyph-name="Uacute" unicode="&#xda;" horiz-adv-x="755" 
d="M437 12h-89q-125 0 -178 40q-62 47 -62 167v375h155q0 -40 -2 -72q-7 -113 -7 -122q0 -35 2 -63q7 -98 7 -105q0 -85 46 -98q21 -6 85 -6q73 0 101 33q23 27 23 86q0 21 -5.5 83t-5.5 81q0 34 3 103t3 104h155v-399q0 -124 -54 -168q-48 -39 -177 -39zM557 634l86 4z
M648 32q8 10 15 25q12 26 28 38q0 60 -16 299q-7 104 -7 178q0 12 3 36t3 36l19 -40q-8 -52 -9.5 -88.5t-1.5 -116.5v-68v-61q0 -81 -4 -136.5t-17 -116.5zM53 591q0 8 26.5 12.5t63.5 4.5q6 0 89 -7q24 -2 52 -2q-33 8 -52.5 9.5t-104.5 1.5l-48 -33h-7q-19 -2 -19 14z
M489 163l-12 -9l23 294l-4 -294zM314 149l-37 26q-5 48 -7 120t-2 137v154q0 -172 12.5 -294.5t33.5 -142.5zM618 9q-6 5 -10.5 10.5t-7.5 11.5l28 -1zM666 23l-3 6l13 -6h-10zM579 12l2 -6l-153 8q24 0 74.5 -1t76.5 -1zM67 402q0 28 2 51q7 81 7 88q8 -56 8 -105
q0 -35 -3 -72q-9 -110 -9 -122q0 37 -1 60q-4 91 -4 100zM163 19q-7 5 -25 34l-22 38q-22 35 -25 55t-3 80q0 44 9 222q4 79 4 132l-7 -2q0 -67 -4 -201t-4 -200q0 -6 6.5 -23t4.5 -27q43 -52 52 -61q17 -18 34 -30zM487 -12q-20 6 -54.5 6.5t-69.5 0.5q-39 0 -71 1.5
t-53 4.5q57 0 125 -3t123 -10zM183 7v5l32 -6zM326 144l2 7l136 3l9 -11zM606 0l-5 -13l-149 13h154zM404 714l-68 17l87 131q19 -7 44 -14q28 -7 44.5 -9.5t25.5 -4.5q-34 -25 -69.5 -56.5t-63.5 -63.5zM361 818q-6 -7 -15.5 -23t-15.5 -23q-8 -8 -24.5 -22.5t-23.5 -22.5
l33 11l52 55q11 14 24 36q2 7 17 38zM554 844l-17 -6l-68 15l-55 14l5 14q34 -9 68 -18.5t67 -18.5zM416 718l10 -15l105 125q-25 -29 -45.5 -48.5t-69.5 -61.5zM382 711l33 -8l-61 8l-44 19z" />
    <glyph glyph-name="Ucircumflex" unicode="&#xdb;" horiz-adv-x="768" 
d="M437 12h-89q-125 0 -178 40q-62 47 -62 167v375h155q0 -40 -2 -72q-7 -113 -7 -122q0 -35 2 -63q7 -98 7 -105q0 -85 46 -98q21 -6 85 -6q73 0 101 33q23 27 23 86q0 21 -5.5 83t-5.5 81q0 34 3 103t3 104h155v-399q0 -124 -54 -168q-48 -39 -177 -39zM643 638l-86 -4z
M661 17q13 61 17 116.5t4 136.5v61v68q0 80 1.5 116.5t9.5 88.5l-19 40q0 -12 -3 -36t-3 -36q0 -74 7 -178q16 -239 16 -299q-16 -12 -28 -38q-7 -15 -15 -25zM53 591q0 -16 19 -14h7l48 33q85 0 104.5 -1.5t52.5 -9.5q-28 0 -52 2q-83 7 -89 7q-37 0 -63.5 -4.5
t-26.5 -12.5zM496 154l4 294l-23 -294l12 9zM314 149l-37 26q-5 48 -7 120t-2 137v154q0 -172 12.5 -294.5t33.5 -142.5zM618 9l10 21l-28 1q3 -6 7.5 -11.5t10.5 -10.5zM666 23l-3 6l13 -6h-10zM579 12l2 -6l-153 8q24 0 74.5 -1t76.5 -1zM67 402q0 28 2 51q7 81 7 88
q8 -56 8 -105q0 -35 -3 -72q-9 -110 -9 -122q0 37 -1 60q-4 91 -4 100zM183 36q-17 12 -34 30q-9 9 -52 61q2 10 -4.5 27t-6.5 23q0 66 4 200t4 201l7 2q0 -53 -4 -132q-9 -178 -9 -222q0 -60 3 -80t25 -55l22 -38q18 -29 25 -34zM487 -12q-55 7 -123 10t-125 3
q21 -3 53 -4.5t71 -1.5q35 0 69.5 -0.5t54.5 -6.5zM183 7v5l32 -6zM473 143l-9 11l-136 -3l-2 -7zM606 0l-5 -13l-149 13h154zM305 807l170 2l95 -95l-124 -2l-58 54l-54 -53l-118 -1zM300 814l66 2l-81 5l-74 -98zM335 703l49 46q-14 -19 -37 -55l-74 -4l-52 13h114z
M444 703q-15 9 -24 15q-17 11 -21 15l-8 20zM571 701l-89 3l-23 -10zM477 821l-60 -4l-38 6zM564 729l-55 74l-21 10z" />
    <glyph glyph-name="Ugrave" unicode="&#xd9;" horiz-adv-x="752" 
d="M435 12h-89q-125 0 -178 40q-62 47 -62 167v375h155q0 -40 -2 -72q-7 -113 -7 -122q0 -35 2 -63q7 -98 7 -105q0 -85 46 -98q21 -6 85 -6q73 0 101 33q23 27 23 86q0 21 -5.5 83t-5.5 81q0 34 3 103t3 104h155v-399q0 -124 -54 -168q-48 -39 -177 -39zM555 634l86 4z
M646 32q8 10 15 25q12 26 28 38q0 60 -16 299q-7 104 -7 178q0 12 3 36t3 36l19 -40q-8 -52 -9.5 -88.5t-1.5 -116.5v-68v-61q0 -81 -4 -136.5t-17 -116.5zM51 591q0 8 26.5 12.5t63.5 4.5q6 0 89 -7q24 -2 52 -2q-33 8 -52.5 9.5t-104.5 1.5l-48 -33h-7q-19 -2 -19 14z
M487 163l-12 -9l23 294l-4 -294zM312 149l-37 26q-5 48 -7 120t-2 137v154q0 -172 12.5 -294.5t33.5 -142.5zM616 9q-6 5 -10.5 10.5t-7.5 11.5l28 -1l-10 -21v0zM664 23l-3 6l13 -6h-10zM577 12l2 -6l-153 8q24 0 74.5 -1t76.5 -1zM65 402q0 28 2 51q7 81 7 88
q8 -56 8 -105q0 -35 -3 -72q-9 -110 -9 -122q0 37 -1 60q-4 91 -4 100zM161 19q-7 5 -25 34l-22 38q-22 35 -25 55t-3 80q0 44 9 222q4 79 4 132l-7 -2q0 -67 -4 -201t-4 -200q0 -6 6.5 -23t4.5 -27q43 -52 52 -61q17 -18 34 -30zM485 -12q-20 6 -54.5 6.5t-69.5 0.5
q-39 0 -71 1.5t-53 4.5q57 0 125 -3t123 -10zM181 7v5l32 -6zM324 144l2 7l136 3l9 -11zM604 0l-5 -13l-149 13h154zM357 714q-28 32 -63.5 63.5t-69.5 56.5q9 2 25.5 4.5t44.5 9.5q25 7 44 14l87 -131l-68 -17v0zM400 818q6 -7 15.5 -23t15.5 -23q8 -8 24.5 -22.5
t23.5 -22.5l-33 11l-52 55q-11 14 -24 36q-2 7 -17 38zM207 844q33 9 67 18.5t68 18.5l5 -14l-55 -14l-68 -15l-17 6v0zM345 718l-10 -15l-105 125q25 -29 45.5 -48.5t69.5 -61.5zM451 730l-44 -19l-61 -8l33 8z" />
    <glyph glyph-name="Udieresis" unicode="&#xdc;" horiz-adv-x="757" 
d="M435 12h-89q-125 0 -178 40q-62 47 -62 167v375h155q0 -40 -2 -72q-7 -113 -7 -122q0 -35 2 -63q7 -98 7 -105q0 -85 46 -98q21 -6 85 -6q73 0 101 33q23 27 23 86q0 21 -5.5 83t-5.5 81q0 34 3 103t3 104h155v-399q0 -124 -54 -168q-48 -39 -177 -39zM641 638l-86 -4z
M659 17q13 61 17 116.5t4 136.5v61v68q0 80 1.5 116.5t9.5 88.5l-19 40q0 -12 -3 -36t-3 -36q0 -74 7 -178q16 -239 16 -299q-16 -12 -28 -38q-7 -15 -15 -25zM51 591q0 -16 19 -14h7l48 33q85 0 104.5 -1.5t52.5 -9.5q-28 0 -52 2q-83 7 -89 7q-37 0 -63.5 -4.5
t-26.5 -12.5zM494 154l4 294l-23 -294l12 9zM312 149l-37 26q-5 48 -7 120t-2 137v154q0 -172 12.5 -294.5t33.5 -142.5zM616 9l10 21l-28 1q3 -6 7.5 -11.5t10.5 -10.5zM664 23l-3 6l13 -6h-10zM577 12l2 -6l-153 8q24 0 74.5 -1t76.5 -1zM65 402q0 28 2 51q7 81 7 88
q8 -56 8 -105q0 -35 -3 -72q-9 -110 -9 -122q0 37 -1 60q-4 91 -4 100zM181 36q-17 12 -34 30q-9 9 -52 61q2 10 -4.5 27t-6.5 23q0 66 4 200t4 201l7 2q0 -53 -4 -132q-9 -178 -9 -222q0 -60 3 -80t25 -55l22 -38q18 -29 25 -34zM485 -12q-55 7 -123 10t-125 3
q21 -3 53 -4.5t71 -1.5q35 0 69.5 -0.5t54.5 -6.5zM181 7v5l32 -6zM471 143l-9 11l-136 -3l-2 -7zM604 0l-5 -13l-149 13h154zM221 700v91q25 -3 34.5 -3h20.5q23 0 51 3q2 -10 2.5 -25.5t0.5 -16.5q0 -9 -0.5 -17t-2.5 -32h-106zM284 693l58 -1l-113 -14l-17 10q11 0 27 1
q36 4 45 4zM213 738q0 -7 2 -22.5t2 -22.5l-8 -3q-4 18 -6 45t-2 48q3 1 7 4t6 4zM346 700l-9 5v47q0 9 -1.5 25t-1.5 19l14 6zM290 797q-15 0 -46 -1.5t-47 -1.5l19 12q32 0 64.5 -0.5t64.5 -0.5q-8 0 -27 -4t-28 -4zM429 700v91q26 -3 35.5 -3h19.5q23 0 52 3
q1 -10 1.5 -25.5t0.5 -16.5q0 -9 -0.5 -17t-1.5 -32h-107zM492 693l59 -1l-114 -14l-17 10q11 0 27 1q36 4 45 4zM422 738q0 -7 1.5 -22.5t1.5 -22.5l-8 -3q-4 18 -5.5 45t-1.5 48q2 1 6 4t6 4v-53zM554 700l-9 5v47q0 9 -1.5 25t-1.5 19l14 6zM498 797q-15 0 -46 -1.5
t-47 -1.5l19 12q32 0 64.5 -0.5t64.5 -0.5q-8 0 -27 -4t-28 -4z" />
    <glyph glyph-name="cent" unicode="&#xa2;" horiz-adv-x="645" 
d="M376 -2v-52h-114q-6 15 -6 26t6 26q-126 0 -167 61q-32 48 -32 181q0 126 35 177q43 63 164 63q-4 18 -4 28q0 12 4 32l68 2h22t24 -2v-60q75 0 133 -43q63 -47 63 -120q-33 -6 -66 -6q-16 0 -35 2t-39 4q0 31 -12 41.5t-44 10.5q-7 -59 -7 -125q0 -30 1.5 -64.5
t5.5 -75.5h7q28 0 41 15.5t13 43.5q18 2 37.5 4t34.5 2q31 0 63 -6q0 -93 -52 -131q-46 -34 -144 -34zM255 244q0 66 7 125h-13q-29 0 -39 -27q-4 -11 -7.5 -45t-6.5 -61q0 -12 2.5 -29.5t5 -42t6.5 -35.5q10 -25 39 -25h13q-3 35 -5 69.5t-2 70.5zM236 491l8 32v33l-28 -59
l-78 -14l-46 -44q24 19 66 34t78 18zM48 157l39 -110l58 -37l-74 34l-34 133q0 40 13 118q10 60 21 121q0 -38 -7 -97q-16 -136 -16 -162zM236 -26l3 14l-75 3zM363 -64l28 9l-138 -6zM394 -19l116 23q34 35 58.5 82t24.5 91l17 -9l-41 -109q-49 -39 -97 -77l-75 -20z
M377 154l11 -26l9 213l-9 -69q-11 -83 -11 -118zM590 314l-129 -26l-41 23zM613 186l-161 -10l-26 10h187zM536 441l-61 53l-81 9l110 -38l89 -135q-17 38 -26 57q-16 33 -31 54zM377 556h-98l-14 13zM250 353l-10 -9l7 -219zM129 487q-16 -11 -25 -17q-17 -12 -24 -18
l-26 -37z" />
    <glyph glyph-name="sterling" unicode="&#xa3;" horiz-adv-x="602" 
d="M396 391q-13 36 -41.5 53.5t-68.5 17.5q-24 0 -38.5 -21t-14.5 -48q0 -23 10 -46l32 -72q35 -7 77 -7q25 0 55 3t47 4q-6 -21 -6 -44q0 -25 6 -49h-173q0 -34 -4.5 -62t-18.5 -51q41 -4 95 -4q30 0 98.5 2t73.5 2q-4 -30 -4.5 -43t-0.5 -20q0 -29 5 -66h-459q3 23 3 46
q0 27 -3 54q46 15 67 53t21 89h-79q-10 21 -10 49q0 24 10 44q9 -2 17 -3t19 -1q8 0 18 1.5t15 2.5q-16 32 -31 66.5t-15 68.5q0 99 64 137q49 29 156 29q53 0 99 -21q56 -26 65 -72q-54 -40 -86 -92zM64 -84q88 11 157.5 14.5t173.5 3.5l122 -18h-453zM525 69l31 -109
q0 -8 -3 -20.5t-5 -23.5zM275 74l34 10l245 -3l-14 -14zM371 165h84q0 46 1.5 67.5t9.5 50.5v-130l-167 -1l-13 20q17 0 47 -3.5t38 -3.5zM240 374l6 47l40 29l61 -23l-61 4l-30 -33l16 -91zM424 284q-15 -2 -34 -3.5t-26 -1.5l-41 11zM498 499l-49 62l-52 22l55 -3l49 -52
l-4 -66q-20 -21 -45.5 -42t-48.5 -33q30 26 53 53t42 59zM378 593q-45 0 -100 -6.5t-105 -16.5l24 17zM98 410l20 -83l-41 91l26 113l33 30q-18 -23 -28 -68t-10 -83zM64 291l-12 -51q0 -12 3 -37t3 -38q-8 44 -12.5 71.5t-4.5 34.5l10 35l65 -15h-52zM146 168l-7 -61
l-54 -49l55 82l-49 25zM57 -52l-9 81l9 20v-101z" />
    <glyph glyph-name="logicalnot" unicode="&#xac;" horiz-adv-x="676" 
d="M591 445q-35 0 -118 2t-89 2q-54 0 -178.5 -2t-131.5 -2q-4 -10 -5 -19.5t-1 -22.5q0 -12 2 -28.5t4 -29.5h413l-3 -99v-26.5t3 -28.5h104v254zM100 348q-16 0 -26 -0.5t-41 -3.5l-1 -5q2 0 26 -1t31 -1l386 -1l-3 -18q-153 30 -314 30h-58zM472 308l3 11q-29 0 -87 3
t-88 3zM474 291l1 -21v-93l-13 32v32q0 14 5 26q8 14 12 23zM51 457h75h111l-187 9v-16l3 -89zM594 461q-30 -4 -87.5 -6t-121.5 -2q-59 0 -136 1.5t-166 2.5l-1 -6q72 0 163.5 5t193 10t154.5 5l-6 -6zM611 211q0 -3 -3 -11t-3 -12l21 12q0 14 -3.5 49.5t-3.5 53.5
q-3 -10 -5.5 -40.5t-2.5 -51.5zM615 381v-115l3 -33l-19 -18q0 60 3.5 104.5t13.5 97.5zM616 452l-11 17l1 -80zM459 470l-60 3q35 7 70 13q18 0 55 -1t55 -1zM383 470l2 9l2 -2l-26 -4l-65 -3h87zM614 175q-62 9 -65 9q-35 4 -66 4l6 -12h73q11 0 19 1q32 4 35 4z" />
    <glyph glyph-name="guillemotleft" unicode="&#xab;" horiz-adv-x="558" 
d="M76 289l-13 103l161 57l5 -59l-91 -52l99 -35l6 -64zM224 229l-171 44l3 52l7 -42zM251 308l-83 30q34 -8 96 -22l12 -47l-18 -33zM242 378q-15 -10 -23 -16q-17 -11 -24 -14l-34 -5zM256 388l-17 14l-2 57zM41 395l10 -38l-7 -24zM55 403l15 14l120 37zM315 289l-13 103
l161 57l5 -59l-91 -52l99 -35l6 -64zM463 229l-171 44l3 52l7 -42zM490 308l-83 30q34 -8 96 -22l12 -47l-18 -33zM481 378q-15 -10 -23 -16q-17 -11 -24 -14l-34 -5zM495 388l-17 14l-2 57zM280 395l10 -38l-7 -24zM294 403l15 14l120 37z" />
    <glyph glyph-name="guillemotright" unicode="&#xbb;" horiz-adv-x="553" 
d="M475 286l13 103l-161 57l-5 -59l91 -52l-99 -35l-6 -64zM488 280l7 42l3 -52l-171 -44zM300 305l83 30q-34 -8 -96 -22l-12 -47l18 -33zM309 375q15 -10 23 -16q17 -11 24 -14l34 -5zM314 456l-2 -57l-17 -14zM510 392l-10 -38l7 -24zM361 451l120 -37l15 -14zM236 286
l13 103l-161 57l-5 -59l91 -52l-99 -35l-6 -64zM249 280l7 42l3 -52l-171 -44zM61 305l83 30q-34 -8 -96 -22l-12 -47l18 -33zM70 375q15 -10 23 -16q17 -11 24 -14l34 -5zM75 456l-2 -57l-17 -14zM271 392l-10 -38l7 -24zM122 451l120 -37l15 -14z" />
    <glyph glyph-name="uni00B9" unicode="&#xb9;" horiz-adv-x="319" 
d="M210 357h-19q-28 3 -31 3h-12l-9 -3l1 163v50v15q-22 -16 -32 -23q-18 -10 -35 -16q0 13 1 27.5t1 30.5q0 15 -2 29q8 12 23 23q3 3 48 28q12 -2 26 -2q12 0 24.5 1t24.5 1q0 -11 1 -33t1 -32v-151q0 -18 -1 -55t-1 -56h-9zM197 689q6 0 14.5 2t16.5 4q-15 2 -26.5 2.5
t-30.5 0.5h-10h-27l18 -9h45zM228 357q5 13 8.5 77.5t3.5 163.5q0 18 -5 42t-7 47q0 -23 1 -62.5t1 -50.5v-50q-4 -68 -4 -86zM122 453q6 22 10 54t4 57v4q-6 -12 -10.5 -26t-4.5 -30zM128 377q0 8 2 20q6 27 6 33v6l-5 39q-5 -25 -5 -32q-4 -18 -4 -31v-65q18 0 53 -2.5
t51 -2.5l7 10h-25h-28q-13 0 -27.5 0.5t-22.5 4.5zM67 628l3 -23v-23q0 -9 -1 -23.5t-1 -18.5l-8 -4q0 9 2 28.5t2 28.5q0 8 -2.5 16.5t-5.5 18.5q3 21 32 38q42 22 44 25l4 -4q-33 -19 -43 -25q-14 -9 -26 -34zM75 528l31 15l25 29q-32 -20 -61 -39zM242 672q0 -9 -1 -20.5
t-2 -22.5l-4 61zM245 701l-69 -3l-8 5z" />
    <glyph glyph-name="ccedilla" unicode="&#xe7;" horiz-adv-x="493" 
d="M413 588q-16 5 -47 14t-53 14q-4 -5 -28 -12q-14 -4 -31 -7q67 0 100 -1.5t73 -10.5l4 -43zM447 381q-15 0 -23.5 1.5t-30.5 6.5q-2 3 -25 7.5t-24 7.5q24 0 50.5 -4t52.5 -8l-2 140q4 -43 8 -72t11 -64l-4 -14zM440 148l11 30l-6 32l10 56l2 -122zM312 451l-3 -3z
M160 592l53 12l-64 4l-40 -25zM234 604l9 19l30 9zM184 361q-4 -12 -8 -30q-7 -26 -6 -29l12 -73l7 96l-4 79q-2 -8 -2 -12q0 -16 1 -31zM183 432v8v10l9 6q0 -30 -7 -52q-1 7 -1.5 15.5t-0.5 12.5zM211 188q-2 6 -13.5 10.5t-12.5 10.5l28 -10q9 2 51.5 4t64.5 13l-24 -25
h-11l-69 2zM456 124l-14 2q-8 -12 -17 -22q-14 -14 -20 -21zM389 64h-21q14 5 19 8q12 8 18 11q-8 -10 -16 -19zM78 553l-1 -5q-13 -20 -25 -39q-6 -11 -18 -65q3 30 7 61q3 9 30 42l-2 9q11 16 17 24q20 29 23 35q-16 -21 -21 -29q-10 -17 -10 -33zM109 90l14 14
q-28 37 -55 74q-29 45 -29 135q0 24 1 71.5t1 71.5q17 28 42 62q20 27 47 60l-13 14q-2 -6 -54 -107q-25 -49 -25 -111q0 -93 12.5 -146.5t58.5 -137.5zM49 189q3 -22 7.5 -28t4.5 -12q0 -3 -2.5 -9t-2.5 -8q0 -9 21 -34q15 -16 18 -20v26l-42 36q-10 32 -18.5 61t-12.5 59
q8 -18 16 -34t11 -37zM277 464l12 -7q-13 -2 -31 -3.5t-25 -1.5l-36 16zM429 251l4 9l-92 -3zM155 19l2 -3q8 -7 18 -10.5t65 5.5l21 -7q-23 3 -75 -4q-18 3 -25 6q-13 7 -13 8t31 31l24 21l13 6q-9 -8 -21.5 -19t-39.5 -34zM279 57q25 2 49 1t40 -8l32 -17q11 -12 13 -25.5
t0 -21.5t-12 -22q13 36 0 56q-9 21 -54 30q-12 2 -20 2.5t-15 0.5h-24l-33 -7zM374 -51q11 4 24 16l-6 -14l-67 -23h-145l-61 9q-14 8 -10 23q11 13 28 19q2 0 34 -3l10 -7q-25 6 -27.5 5.5t-23.5 -1.5q-9 -7 -17 -18q-3 -14 19 -15q35 -5 61 -9h71q24 0 61 3q42 13 49 15z
M202 -30q-6 0 -15.5 3.5t-11.5 6.5l24 -6h55l17 7l5 7q-1 8 -6.5 13t-14.5 8l23 -6l4 -20l-9 -8l-17 -5h-54zM244 43q10 0 31 3t32 3q49 0 75 -17q22 -14 22 -39q0 -35 -62 -49q-37 -8 -92 -8q-66 0 -134 14l19 20q21 -3 49 -5.5t39 -2.5q25 0 40 3q29 6 29 21q0 16 -13 22
t-32 6q-17 0 -32.5 -3t-24.5 -5l-28 12l55 50q-108 3 -140 81q-19 46 -19 189q0 126 19 173q33 80 137 80h67q99 0 131 -42q28 -37 28 -140q-16 2 -22 2q-9 0 -27 -2t-29 -2l-25 2q0 49 -27 62q-17 8 -73 8q-48 0 -66 -35q-14 -27 -14 -82q0 -17 1 -41t3 -52q0 -62 21 -77
q17 -12 83 -12q41 0 56.5 13.5t15.5 54.5q18 7 33 7q10 0 29 -4t29 -4q8 0 12 1q0 -108 -30 -142q-32 -37 -133 -38z" />
    <glyph glyph-name="eacute" unicode="&#xe9;" horiz-adv-x="413" 
d="M276 75q-34 0 -104 1t-105 1q0 34 -2 113.5t-2 85.5q0 55 2 182.5t2 135.5h260v-103h-161q2 -8 2 -16.5v-16.5q0 -10 -1 -31t-1 -31h174q-1 -10 -1 -21.5v-17.5v-32t1 -32l-44 3q-32 0 -80.5 -1.5t-49.5 -1.5q1 -17 2.5 -31.5t1.5 -35.5q0 -8 -0.5 -18t-3.5 -27
q14 3 36.5 4t42.5 1q27 0 54 -1t53 -4v-104q-12 0 -37 -1t-39 -1zM373 193q-5 -17 -5 -31l3 -44l-2 -57q-5 31 -9 64t-4 63zM341 549q6 -12 8.5 -23t7.5 -35l-8 -7zM327 594l7 4l7 -49zM351 389q5 -48 5 -87v-12l-16 3q6 32 7.5 50t1.5 59l11 -12zM226 492q13 -5 47 -7
t50 -9h-146zM362 469l1 -9l-32 16zM308 586q-5 4 -57 13q-32 5 -63 11q25 0 76 -1t76 -1zM67 598l-1 5l125 -9zM348 601l19 -4l-7 13l-17 -67q0 26 5 58zM226 419q10 0 23 -5l79 -24l-69 4q-17 11 -34 23q-8 4 -33 4q5 -2 17 -2h17zM178 410l-3 16q17 -3 25.5 -5.5
t28.5 -10.5h-51zM284 209q27 0 54.5 -12.5t51.5 -30.5q-2 4 -8 13q-2 4 -5 14l-37 2q-12 0 -28.5 -2t-25.5 -5zM220 211q6 0 21 -6q2 -1 8 -3h23q-15 1 -46 -5q-6 -1 -47 -11v18q7 1 21 4t20 3zM42 362q0 13 0.5 28.5t0.5 32.5v12v13v15q0 36 -2 79t-6 60h16
q-6 -43 -7 -56.5t-1 -33.5q0 -36 4 -76.5t12 -71.5zM43 79l8 8l6 -9v504h9q0 -137 -5 -253t-18 -250zM278 66q32 0 53 -1.5t45 -5.5l-1 22q-20 -13 -139 -22t-183 -9l-32 3q124 13 257 13zM35 443q13 -38 16.5 -105.5t3.5 -160.5v-91l7 2l-7 -10q0 38 -14 230q-6 82 -6 135z
M257 612q-35 -4 -81.5 -6t-90.5 -2l-32 2q25 4 51 8q28 3 70.5 4t48.5 1q33 0 66 -0.5t67 -0.5l-24 4q-11 0 -27 -3q-38 -7 -48 -7zM295 287q5 0 10.5 -1t24.5 -4l-137 -12l-10 12q26 0 42 1q64 4 70 4zM238 653l-68 17l87 131q19 -7 44 -14q28 -7 44.5 -9.5t25.5 -4.5
q-34 -25 -69.5 -56.5t-63.5 -63.5zM195 757q-6 -7 -15.5 -23t-15.5 -23q-8 -8 -24.5 -22.5t-23.5 -22.5l33 11l52 55q11 14 24 36q2 7 17 38zM388 783l-17 -6l-68 15l-55 14l5 14q34 -9 68 -18.5t67 -18.5zM250 657l10 -15l105 125q-25 -29 -45.5 -48.5t-69.5 -61.5z
M216 650l33 -8l-61 8l-44 19z" />
    <glyph glyph-name="egrave" unicode="&#xe8;" horiz-adv-x="408" 
d="M273 75q-34 0 -104 1t-105 1q0 34 -2 113.5t-2 85.5q0 55 2 182.5t2 135.5h260v-103h-161q2 -8 2 -16.5v-16.5q0 -10 -1 -31t-1 -31h174q-1 -10 -1 -21.5v-17.5v-32t1 -32l-44 3q-32 0 -80.5 -1.5t-49.5 -1.5q1 -17 2.5 -31.5t1.5 -35.5q0 -8 -0.5 -18t-3.5 -27
q14 3 36.5 4t42.5 1q27 0 54 -1t53 -4v-104q-12 0 -37 -1t-39 -1zM370 193q-5 -17 -5 -31l3 -44l-2 -57q-5 31 -9 64t-4 63zM338 549q6 -12 8.5 -23t7.5 -35l-8 -7zM324 594l7 4l7 -49zM348 389q5 -48 5 -87v-12l-16 3q6 32 7.5 50t1.5 59l11 -12zM223 492q13 -5 47 -7
t50 -9h-146l49 16v0zM359 469l1 -9l-32 16zM305 586q-5 4 -57 13q-32 5 -63 11q25 0 76 -1t76 -1l-32 -22v0zM64 598l-1 5l125 -9zM345 601l19 -4l-7 13l-17 -67q0 26 5 58zM223 419q10 0 23 -5l79 -24l-69 4q-17 11 -34 23q-8 4 -33 4q5 -2 17 -2h17zM175 410l-3 16
q17 -3 25.5 -5.5t28.5 -10.5h-51zM281 209q27 0 54.5 -12.5t51.5 -30.5q-2 4 -8 13q-2 4 -5 14l-37 2q-12 0 -28.5 -2t-25.5 -5l-2 21v0zM217 211q6 0 21 -6q2 -1 8 -3h23q-15 1 -46 -5q-6 -1 -47 -11v18q7 1 21 4t20 3zM39 362q0 13 0.5 28.5t0.5 32.5v12v13v15q0 36 -2 79
t-6 60h16q-6 -43 -7 -56.5t-1 -33.5q0 -36 4 -76.5t12 -71.5zM40 79l8 8l6 -9v504h9q0 -137 -5 -253t-18 -250zM275 66q32 0 53 -1.5t45 -5.5l-1 22q-20 -13 -139 -22t-183 -9l-32 3q124 13 257 13zM32 443q13 -38 16.5 -105.5t3.5 -160.5v-91l7 2l-7 -10q0 38 -14 230
q-6 82 -6 135zM254 612q-35 -4 -81.5 -6t-90.5 -2l-32 2q25 4 51 8q28 3 70.5 4t48.5 1q33 0 66 -0.5t67 -0.5l-24 4q-11 0 -27 -3q-38 -7 -48 -7zM292 287q5 0 10.5 -1t24.5 -4l-137 -12l-10 12q26 0 42 1q64 4 70 4zM222 653q-28 32 -63.5 63.5t-69.5 56.5q9 2 25.5 4.5
t44.5 9.5q25 7 44 14l87 -131l-68 -17v0zM265 757q6 -7 15.5 -23t15.5 -23q8 -8 24.5 -22.5t23.5 -22.5l-33 11l-52 55q-11 14 -24 36q-2 7 -17 38zM72 783q33 9 67 18.5t68 18.5l5 -14l-55 -14l-68 -15l-17 6v0zM210 657l-10 -15l-105 125q25 -29 45.5 -48.5t69.5 -61.5z
M316 669l-44 -19l-61 -8l33 8z" />
    <glyph glyph-name="ecircumflex" unicode="&#xea;" horiz-adv-x="416" 
d="M276 75q-34 0 -104 1t-105 1q0 34 -2 113.5t-2 85.5q0 55 2 182.5t2 135.5h260v-103h-161q2 -8 2 -16.5v-16.5q0 -10 -1 -31t-1 -31h174q-1 -10 -1 -21.5v-17.5v-32t1 -32l-44 3q-32 0 -80.5 -1.5t-49.5 -1.5q1 -17 2.5 -31.5t1.5 -35.5q0 -8 -0.5 -18t-3.5 -27
q14 3 36.5 4t42.5 1q27 0 54 -1t53 -4v-104q-12 0 -37 -1t-39 -1zM373 193q-5 -17 -5 -31l3 -44l-2 -57q-5 31 -9 64t-4 63zM349 484l8 7q-5 24 -7.5 35t-8.5 23zM327 594l7 4l7 -49zM360 390l-11 12q0 -41 -1.5 -59t-7.5 -50l16 -3v12q0 39 -5 87zM226 492l-49 -16h146
q-16 7 -50 9t-47 7zM362 469l1 -9l-32 16zM308 586l32 22q-25 0 -76 1t-76 1q31 -6 63 -11q52 -9 57 -13zM67 598l-1 5l125 -9zM348 601l19 -4l-7 13l-17 -67q0 26 5 58zM226 419q10 0 23 -5l79 -24l-69 4q-17 11 -34 23q-8 4 -33 4q5 -2 17 -2h17zM178 410l-3 16
q17 -3 25.5 -5.5t28.5 -10.5h-51zM284 209l2 -21q9 3 25.5 5t28.5 2l37 -2q3 -10 5 -14q6 -9 8 -13q-24 18 -51.5 30.5t-54.5 12.5zM220 211q6 0 21 -6q2 -1 8 -3h23q-15 1 -46 -5q-6 -1 -47 -11v18q7 1 21 4t20 3zM59 364q-8 31 -12 71.5t-4 76.5q0 20 1 33.5t7 56.5h-16
q4 -17 6 -60t2 -79v-15v-13v-12q0 -17 -0.5 -32.5t-0.5 -28.5zM43 79l8 8l6 -9v504h9q0 -137 -5 -253t-18 -250zM278 66q32 0 53 -1.5t45 -5.5l-1 22q-20 -13 -139 -22t-183 -9l-32 3q124 13 257 13zM35 443q0 -53 6 -135q14 -192 14 -230l7 10l-7 -2v91q0 93 -3.5 160.5
t-16.5 105.5zM257 612q-35 -4 -81.5 -6t-90.5 -2l-32 2q25 4 51 8q28 3 70.5 4t48.5 1q33 0 66 -0.5t67 -0.5l-24 4q-11 0 -27 -3q-38 -7 -48 -7zM295 287q5 0 10.5 -1t24.5 -4l-137 -12l-10 12q26 0 42 1q64 4 70 4zM122 761l170 2l95 -95l-124 -2l-58 54l-54 -53l-118 -1z
M117 768l66 2l-81 5l-74 -98zM152 657l49 46q-14 -19 -37 -55l-74 -4l-52 13h114zM261 657q-15 9 -24 15q-17 11 -21 15l-8 20zM388 655l-89 3l-23 -10zM294 775l-60 -4l-38 6zM381 683l-55 74l-21 10z" />
    <glyph glyph-name="edieresis" unicode="&#xeb;" horiz-adv-x="423" 
d="M278 75q-34 0 -104 1t-105 1q0 34 -2 113.5t-2 85.5q0 55 2 182.5t2 135.5h260v-103h-161q2 -8 2 -16.5v-16.5q0 -10 -1 -31t-1 -31h174q-1 -10 -1 -21.5v-17.5v-32t1 -32l-44 3q-32 0 -80.5 -1.5t-49.5 -1.5q1 -17 2.5 -31.5t1.5 -35.5q0 -8 -0.5 -18t-3.5 -27
q14 3 36.5 4t42.5 1q27 0 54 -1t53 -4v-104q-12 0 -37 -1t-39 -1zM375 193q-5 -17 -5 -31l3 -44l-2 -57q-5 31 -9 64t-4 63zM351 484l8 7q-5 24 -7.5 35t-8.5 23zM329 594l7 4l7 -49zM362 390l-11 12q0 -41 -1.5 -59t-7.5 -50l16 -3v12q0 39 -5 87zM228 492l-49 -16h146
q-16 7 -50 9t-47 7zM364 469l1 -9l-32 16zM310 586l32 22q-25 0 -76 1t-76 1q31 -6 63 -11q52 -9 57 -13zM69 598l-1 5l125 -9zM350 601l19 -4l-7 13l-17 -67q0 26 5 58zM228 419q10 0 23 -5l79 -24l-69 4q-17 11 -34 23q-8 4 -33 4q5 -2 17 -2h17zM180 410l-3 16
q17 -3 25.5 -5.5t28.5 -10.5h-51zM286 209l2 -21q9 3 25.5 5t28.5 2l37 -2q3 -10 5 -14q6 -9 8 -13q-24 18 -51.5 30.5t-54.5 12.5zM222 211q6 0 21 -6q2 -1 8 -3h23q-15 1 -46 -5q-6 -1 -47 -11v18q7 1 21 4t20 3zM61 364q-8 31 -12 71.5t-4 76.5q0 20 1 33.5t7 56.5h-16
q4 -17 6 -60t2 -79v-15v-13v-12q0 -17 -0.5 -32.5t-0.5 -28.5zM45 79l8 8l6 -9v504h9q0 -137 -5 -253t-18 -250zM280 66q32 0 53 -1.5t45 -5.5l-1 22q-20 -13 -139 -22t-183 -9l-32 3q124 13 257 13zM37 443q0 -53 6 -135q14 -192 14 -230l7 10l-7 -2v91q0 93 -3.5 160.5
t-16.5 105.5zM259 612q-35 -4 -81.5 -6t-90.5 -2l-32 2q25 4 51 8q28 3 70.5 4t48.5 1q33 0 66 -0.5t67 -0.5l-24 4q-11 0 -27 -3q-38 -7 -48 -7zM297 287q5 0 10.5 -1t24.5 -4l-137 -12l-10 12q26 0 42 1q64 4 70 4zM45 679v91q25 -3 34.5 -3h20.5q23 0 51 3
q2 -10 2.5 -25.5t0.5 -16.5q0 -9 -0.5 -17t-2.5 -32h-106zM108 672l58 -1l-113 -14l-17 10q11 0 27 1q36 4 45 4zM37 717q0 -7 2 -22.5t2 -22.5l-8 -3q-4 18 -6 45t-2 48q3 1 7 4t6 4zM170 679l-9 5v47q0 9 -1.5 25t-1.5 19l14 6zM114 776q-15 0 -46 -1.5t-47 -1.5l19 12
q32 0 64.5 -0.5t64.5 -0.5q-8 0 -27 -4t-28 -4zM253 679v91q26 -3 35.5 -3h19.5q23 0 52 3q1 -10 1.5 -25.5t0.5 -16.5q0 -9 -0.5 -17t-1.5 -32h-107zM316 672l59 -1l-114 -14l-17 10q11 0 27 1q36 4 45 4zM246 717q0 -7 1.5 -22.5t1.5 -22.5l-8 -3q-4 18 -5.5 45t-1.5 48
q2 1 6 4t6 4v-53zM378 679l-9 5v47q0 9 -1.5 25t-1.5 19l14 6zM322 776q-15 0 -46 -1.5t-47 -1.5l19 12q32 0 64.5 -0.5t64.5 -0.5q-8 0 -27 -4t-28 -4z" />
    <glyph glyph-name="iacute" unicode="&#xed;" horiz-adv-x="314" 
d="M193 77h-108q0 84 1.5 257.5t1.5 259.5l55 1h24t26 -5v-513zM68 551q0 34 2 42.5t2 15.5q0 -49 3 -99q11 -16 11 -33q0 -47 -5 -140.5t-5 -140.5q0 59 -4 177t-4 178zM68 273l-3 -187q-8 35 -11 91t-3 99v63q0 82 3.5 158.5t3.5 118.5q0 -99 2 -45q8 -278 8 -298zM201 66
l11 -13l-153 14q18 1 44.5 4t34.5 3q16 0 31 -3t32 -5zM213 598q0 -21 4 -120q1 -59 1 -152q0 -40 -6.5 -123.5t-6.5 -123.5q0 55 -3 162t-3 160q0 10 2 78t2 125zM112 612l35 -2l23 2h25l-3 -11h-39h-38q-16 3 -23 6l-6 5h26zM177 653l-68 17l87 131q19 -7 44 -14
q28 -7 44.5 -9.5t25.5 -4.5q-34 -25 -69.5 -56.5t-63.5 -63.5zM134 757q-6 -7 -15.5 -23t-15.5 -23q-8 -8 -24.5 -22.5t-23.5 -22.5l33 11l52 55q11 14 24 36q2 7 17 38zM327 783l-17 -6l-68 15l-55 14l5 14q34 -9 68 -18.5t67 -18.5zM189 657l10 -15l105 125
q-25 -29 -45.5 -48.5t-69.5 -61.5zM155 650l33 -8l-61 8l-44 19z" />
    <glyph glyph-name="igrave" unicode="&#xec;" horiz-adv-x="299" 
d="M211 77h-108q0 84 1.5 257.5t1.5 259.5l55 1h24t26 -5v-513zM86 551q0 34 2 42.5t2 15.5q0 -49 3 -99q11 -16 11 -33q0 -47 -5 -140.5t-5 -140.5q0 59 -4 177t-4 178zM86 273l-3 -187q-8 35 -11 91t-3 99v63q0 82 3.5 158.5t3.5 118.5q0 -99 2 -45q8 -278 8 -298zM219 66
l11 -13l-153 14q18 1 44.5 4t34.5 3q16 0 31 -3t32 -5zM231 598q0 -21 4 -120q1 -59 1 -152q0 -40 -6.5 -123.5t-6.5 -123.5q0 55 -3 162t-3 160q0 10 2 78t2 125zM130 612l35 -2l23 2h25l-3 -11h-39h-38q-16 3 -23 6l-6 5h26zM151 653q-28 32 -63.5 63.5t-69.5 56.5
q9 2 25.5 4.5t44.5 9.5q25 7 44 14l87 -131l-68 -17v0zM194 757q6 -7 15.5 -23t15.5 -23q8 -8 24.5 -22.5t23.5 -22.5l-33 11l-52 55q-11 14 -24 36q-2 7 -17 38zM1 783q33 9 67 18.5t68 18.5l5 -14l-55 -14l-68 -15l-17 6v0zM139 657l-10 -15l-105 125q25 -29 45.5 -48.5
t69.5 -61.5zM245 669l-44 -19l-61 -8l33 8z" />
    <glyph glyph-name="icircumflex" unicode="&#xee;" horiz-adv-x="380" 
d="M239 77h-108q0 84 1.5 257.5t1.5 259.5l55 1h24t26 -5v-513zM114 551q0 34 2 42.5t2 15.5q0 -49 3 -99q11 -16 11 -33q0 -47 -5 -140.5t-5 -140.5q0 59 -4 177t-4 178zM114 273l-3 -187q-8 35 -11 91t-3 99v63q0 82 3.5 158.5t3.5 118.5q0 -99 2 -45q8 -278 8 -298z
M247 66l11 -13l-153 14q18 1 44.5 4t34.5 3q16 0 31 -3t32 -5zM249 604q0 -57 -2 -125t-2 -78q0 -53 3 -160t3 -162q0 40 6.5 123.5t6.5 123.5q0 93 -1 152q-4 99 -4 120zM158 612l35 -2l23 2h25l-3 -11h-39h-38q-16 3 -23 6l-6 5h26zM103 761l170 2l95 -95l-124 -2l-58 54
l-54 -53l-118 -1zM98 768l66 2l-81 5l-74 -98zM133 657l49 46q-14 -19 -37 -55l-74 -4l-52 13h114zM242 657q-15 9 -24 15q-17 11 -21 15l-8 20zM369 655l-89 3l-23 -10zM275 775l-60 -4l-38 6zM362 683l-55 74l-21 10z" />
    <glyph glyph-name="idieresis" unicode="&#xef;" horiz-adv-x="405" 
d="M251 77h-108q0 84 1.5 257.5t1.5 259.5l55 1h24t26 -5v-513zM126 551q0 34 2 42.5t2 15.5q0 -49 3 -99q11 -16 11 -33q0 -47 -5 -140.5t-5 -140.5q0 59 -4 177t-4 178zM126 273l-3 -187q-8 35 -11 91t-3 99v63q0 82 3.5 158.5t3.5 118.5q0 -99 2 -45q8 -278 8 -298z
M259 66l11 -13l-153 14q18 1 44.5 4t34.5 3q16 0 31 -3t32 -5zM261 604q0 -57 -2 -125t-2 -78q0 -53 3 -160t3 -162q0 40 6.5 123.5t6.5 123.5q0 93 -1 152q-4 99 -4 120zM170 612l35 -2l23 2h25l-3 -11h-39h-38q-16 3 -23 6l-6 5h26zM46 679v91q25 -3 34.5 -3h20.5
q23 0 51 3q2 -10 2.5 -25.5t0.5 -16.5q0 -9 -0.5 -17t-2.5 -32h-106zM109 672l58 -1l-113 -14l-17 10q11 0 27 1q36 4 45 4zM38 717q0 -7 2 -22.5t2 -22.5l-8 -3q-4 18 -6 45t-2 48q3 1 7 4t6 4zM171 679l-9 5v47q0 9 -1.5 25t-1.5 19l14 6zM115 776q-15 0 -46 -1.5
t-47 -1.5l19 12q32 0 64.5 -0.5t64.5 -0.5q-8 0 -27 -4t-28 -4zM254 679v91q26 -3 35.5 -3h19.5q23 0 52 3q1 -10 1.5 -25.5t0.5 -16.5q0 -9 -0.5 -17t-1.5 -32h-107zM317 672l59 -1l-114 -14l-17 10q11 0 27 1q36 4 45 4zM247 717q0 -7 1.5 -22.5t1.5 -22.5l-8 -3
q-4 18 -5.5 45t-1.5 48q2 1 6 4t6 4v-53zM379 679l-9 5v47q0 9 -1.5 25t-1.5 19l14 6zM323 776q-15 0 -46 -1.5t-47 -1.5l19 12q32 0 64.5 -0.5t64.5 -0.5q-8 0 -27 -4t-28 -4z" />
    <glyph glyph-name="ntilde" unicode="&#xf1;" horiz-adv-x="513" 
d="M393 63q-13 0 -27.5 1t-27.5 4v338q0 19 -25.5 31.5t-47.5 12.5q-30 0 -54.5 -11t-50.5 -33v-338h-99v517q26 3 33.5 3.5t24.5 0.5l47 -3v-42q27 20 63 28.5t75 8.5q67 0 112 -45t45 -113l1 -355q-38 -5 -69 -5zM189 409l55 5q29 6 59 12q-9 2 -13 3q-17 4 -24 4
q-5 0 -28.5 -9t-27.5 -10l3 1l-39 -14zM361 603l-7 -11l86 -63q5 -3 14 -45t17 -50q0 37 -2 61t-11 37zM474 57v347q0 -71 2 -129q7 -202 7 -217l-32 -10q-19 0 -44.5 3.5t-48.5 7.5zM57 616l18 -22q10 2 24 5t50 9zM189 598v-4l-8 -32l-22 45q15 -5 30 -9zM334 386l-21 27
q1 -8 4 -27.5t3 -29.5v-81q0 -29 -4 -88t-4 -89v-38l18 4q-5 5 -7 36.5t-2 64.5v40q0 12 -1 41.5t-1 45.5q0 32 2.5 52t12.5 42zM53 74q0 102 -2 185q-7 289 -7 310q0 7 2 21t2 22q1 -15 3 -32.5t2 -28.5q0 -65 -3 -130q-9 -196 -9 -218q0 -29 4 -63t8 -66zM176 62l-1 143
h-18v-4q0 -19 11 -19q6 0 12 18q1 2 6 26l-2 -4v22q0 11 -0.5 21.5t-3.5 14.5l-7 101v-39q0 -92 -2.5 -149.5t-12.5 -128.5zM53 609l-17 -19q0 -58 4 -143q9 -191 9 -239h-8v125q0 110 2.5 165t9.5 111zM50 50l2 16h7q25 0 51.5 -4t54.5 -11zM266 596l-25 -1l-23 -11l-12 -6
l39 2h31q13 0 26 -1t26 -4l8 11l-26 10h-44zM290 665q-22 0 -64 8t-63 8q-37 0 -58 -29l-60 10q19 36 47 55.5t69 19.5q24 0 71 -8t71 -8q20 0 37.5 7.5t25.5 24.5l60 -12q-21 -37 -56.5 -56.5t-79.5 -19.5zM153 668q1 0 7 -2.5t8 -3.5h-24q-20 -6 -37 -15q5 7 16 15t20 14z
M283 658q5 -1 20 0.5t16 -0.5q-26 -10 -50 -4t-44 13q15 -2 32 -4.5t26 -4.5zM364 757l-18 -18l-9 2l15 9zM50 686l6.5 13t4.5 14q23 13 41 20t45 11l18 2h42l50 -12q-11 -2 -47.5 5t-67.5 8q-1 0 -8 -2.5t-11 -2.5q-19 -9 -30 -15.5t-22 -15.5q-2 -2 -7 -9q-30 -50 -14 -16
zM68 655q15 -7 36 -9q-19 -3 -30.5 -2t-17.5 2l-15 10zM216 670l7 -12q-10 6 -28.5 9t-40.5 5q12 3 23.5 2t22.5 -2zM279 726l-14 6q8 1 21 -1t32 0l23 6l-11 -9l-21 -4zM375 756l-6 7l16 -2q17 -3 27.5 -5.5t22.5 -6.5q-6 -1 -22 0q-10 2 -20 3zM324 664q14 0 35 10
q60 38 70 61l-16 -28l-44 -33q-24 -12 -45 -19v9z" />
    <glyph glyph-name="oacute" unicode="&#xf3;" 
d="M458 245q0 -74 -6 -93.5t-45 -69.5q13 27 27 55q9 22 9 35q0 55 -3 110q-9 165 -9 183q0 13 2.5 31t5.5 34q10 -84 14.5 -147t4.5 -138zM271 70h-57q-93 0 -131 67q-30 53 -30 154v88q0 96 32 149q40 66 129 66h51q91 0 133 -64q36 -55 36 -151v-88q0 -107 -27 -155
q-37 -66 -136 -66zM334 376q0 55 -10 75q-16 31 -65 31h-33q-37 0 -55 -19t-18 -86v-81q0 -56 9 -77q16 -36 64 -36h33q48 0 64 35q11 24 11 79v79zM322 615l-30 7l20 -23l125 -39l-3 -56q-5 22 -5 23q-3 12 -9 23q-3 2 -69 45q-26 17 -29 20zM58 499q28 41 50 69
q17 21 33 37q33 6 67 13q18 3 38 3l36 -9q-18 -7 -37 -9.5t-43 -2.5q-15 0 -28.5 0.5t-26.5 0.5q-7 0 -40 -30q-20 -18 -33 -31zM352 73q14 8 34 24q11 8 32 25q-19 -20 -42.5 -38.5t-46.5 -34.5l-34 17q7 3 30 4t27 3zM300 49l-37 7l-4 -2l-21 13zM44 509q29 30 56 63
q20 25 31 41l-33 -14q-34 -52 -40 -65q-12 -28 -12 -81q0 -10 2.5 -30.5t2.5 -26.5l-1 -175q-2 19 -7 69.5t-5 74.5q0 23 3 71t3 73zM106 82q5 -6 34.5 -20t36.5 -14q9 0 23 1l28 2q8 0 14 -2q-29 0 -82 14t-82 29q-11 23 -20 59q-4 17 -13 61q16 -42 27 -68q19 -44 34 -62z
M317 345q3 -12 4 -34t1 -44v-46l-8 29q0 11 2 33t2 33zM313 435q13 -47 13 -90zM161 417q7 -64 13.5 -100.5t19.5 -83.5q-5 -15 -9 -29l15 2q-24 39 -33.5 74t-9.5 84l21 94zM248 470l39 -8l10 -14l-36 10l-39 -2l-17 4zM270 201l29 14l-7 -14l-46 -11l-27 11h51zM251 653
l-68 17l87 131q19 -7 44 -14q28 -7 44.5 -9.5t25.5 -4.5q-34 -25 -69.5 -56.5t-63.5 -63.5zM208 757q-6 -7 -15.5 -23t-15.5 -23q-8 -8 -24.5 -22.5t-23.5 -22.5l33 11l52 55q11 14 24 36q2 7 17 38zM401 783l-17 -6l-68 15l-55 14l5 14q34 -9 68 -18.5t67 -18.5zM263 657
l10 -15l105 125q-25 -29 -45.5 -48.5t-69.5 -61.5zM229 650l33 -8l-61 8l-44 19z" />
    <glyph glyph-name="ograve" unicode="&#xf2;" horiz-adv-x="492" 
d="M458 245q0 -74 -6 -93.5t-45 -69.5q13 27 27 55q9 22 9 35q0 55 -3 110q-9 165 -9 183q0 13 2.5 31t5.5 34q10 -84 14.5 -147t4.5 -138zM271 70h-57q-93 0 -131 67q-30 53 -30 154v88q0 96 32 149q40 66 129 66h51q91 0 133 -64q36 -55 36 -151v-88q0 -107 -27 -155
q-37 -66 -136 -66zM334 376q0 55 -10 75q-16 31 -65 31h-33q-37 0 -55 -19t-18 -86v-81q0 -56 9 -77q16 -36 64 -36h33q48 0 64 35q11 24 11 79v79zM322 615l-30 7l20 -23l125 -39l-3 -56q-5 22 -5 23q-3 12 -9 23q-3 2 -69 45q-26 17 -29 20zM58 499q28 41 50 69
q17 21 33 37q33 6 67 13q18 3 74 -6q-18 -7 -37 -9.5t-43 -2.5q-15 0 -28.5 0.5t-26.5 0.5q-7 0 -40 -30q-20 -18 -33 -31zM352 73q14 8 34 24q11 8 32 25q-19 -20 -42.5 -38.5t-46.5 -34.5l-34 17q7 3 30 4t27 3zM300 49l-37 7l-4 -2l-21 13zM44 509q29 30 56 63
q20 25 31 41l-33 -14q-34 -52 -40 -65q-12 -28 -12 -81q0 -10 2.5 -30.5t2.5 -26.5l-1 -175q-2 19 -7 69.5t-5 74.5q0 23 3 71t3 73zM106 82q5 -6 34.5 -20t36.5 -14q9 0 23 1l28 2q8 0 14 -2q-29 0 -82 14t-82 29q-11 23 -20 59q-4 17 -13 61q16 -42 27 -68q19 -44 34 -62z
M317 345q3 -12 4 -34t1 -44v-46l-8 29q0 11 2 33t2 33zM313 435q13 -47 13 -90zM161 417q7 -64 13.5 -100.5t19.5 -83.5q-5 -15 -9 -29l15 2q-24 39 -33.5 74t-9.5 84l21 94zM248 470l39 -8l10 -14l-36 10l-39 -2l-17 4zM270 201l29 14l-7 -14l-46 -11l-27 11h51zM234 653
q-28 32 -63.5 63.5t-69.5 56.5q9 2 25.5 4.5t44.5 9.5q25 7 44 14l87 -131l-68 -17v0zM277 757q6 -7 15.5 -23t15.5 -23q8 -8 24.5 -22.5t23.5 -22.5l-33 11l-52 55q-11 14 -24 36q-2 7 -17 38zM84 783q33 9 67 18.5t68 18.5l5 -14l-55 -14l-68 -15l-17 6v0zM222 657
l-10 -15l-105 125q25 -29 45.5 -48.5t69.5 -61.5zM328 669l-44 -19l-61 -8l33 8z" />
    <glyph glyph-name="ocircumflex" unicode="&#xf4;" 
d="M458 245q0 -74 -6 -93.5t-45 -69.5q13 27 27 55q9 22 9 35q0 55 -3 110q-9 165 -9 183q0 13 2.5 31t5.5 34q10 -84 14.5 -147t4.5 -138zM271 70h-57q-93 0 -131 67q-30 53 -30 154v88q0 96 32 149q40 66 129 66h51q91 0 133 -64q36 -55 36 -151v-88q0 -107 -27 -155
q-37 -66 -136 -66zM334 376q0 55 -10 75q-16 31 -65 31h-33q-37 0 -55 -19t-18 -86v-81q0 -56 9 -77q16 -36 64 -36h33q48 0 64 35q11 24 11 79v79zM322 615l-30 7l20 -23l125 -39l-3 -56q-5 22 -5 23q-3 12 -9 23q-3 2 -69 45q-26 17 -29 20zM74 540q13 13 33 31
q33 30 40 30q13 0 26.5 -0.5t28.5 -0.5q24 0 43 2.5t37 9.5l-36 9q-20 0 -38 -3q-34 -7 -67 -13q-16 -16 -33 -37q-22 -28 -50 -69zM352 73q-4 -2 -27 -3t-30 -4l34 -17q23 16 46.5 34.5t42.5 38.5q-21 -17 -32 -25q-20 -16 -34 -24zM238 67l21 -13l4 2l37 -7zM44 509
q29 30 56 63q20 25 31 41l-33 -14q-34 -52 -40 -65q-12 -28 -12 -81q0 -10 2.5 -30.5t2.5 -26.5l-1 -175q-2 19 -7 69.5t-5 74.5q0 23 3 71t3 73zM106 82q5 -6 34.5 -20t36.5 -14q9 0 23 1l28 2q8 0 14 -2q-29 0 -82 14t-82 29q-11 23 -20 59q-4 17 -13 61q16 -42 27 -68
q19 -44 34 -62zM318 316q0 -11 -2 -33t-2 -33l8 -29v46q0 22 -1 44t-4 34zM313 435q13 -47 13 -90zM161 417q7 -64 13.5 -100.5t19.5 -83.5q-5 -15 -9 -29l15 2q-24 39 -33.5 74t-9.5 84l21 94zM248 470l39 -8l10 -14l-36 10l-39 -2l-17 4zM270 201l29 14l-7 -14l-46 -11
l-27 11h51zM165 761l170 2l95 -95l-124 -2l-58 54l-54 -53l-118 -1zM160 768l66 2l-81 5l-74 -98zM195 657l49 46q-14 -19 -37 -55l-74 -4l-52 13h114zM304 657q-15 9 -24 15q-17 11 -21 15l-8 20zM431 655l-89 3l-23 -10zM337 775l-60 -4l-38 6zM424 683l-55 74l-21 10z
" />
    <glyph glyph-name="odieresis" unicode="&#xf6;" horiz-adv-x="500" 
d="M458 245q0 -74 -6 -93.5t-45 -69.5q13 27 27 55q9 22 9 35q0 55 -3 110q-9 165 -9 183q0 13 2.5 31t5.5 34q10 -84 14.5 -147t4.5 -138zM271 70h-57q-93 0 -131 67q-30 53 -30 154v88q0 96 32 149q40 66 129 66h51q91 0 133 -64q36 -55 36 -151v-88q0 -107 -27 -155
q-37 -66 -136 -66zM334 376q0 55 -10 75q-16 31 -65 31h-33q-37 0 -55 -19t-18 -86v-81q0 -56 9 -77q16 -36 64 -36h33q48 0 64 35q11 24 11 79v79zM322 615l-30 7l20 -23l125 -39l-3 -56q-5 22 -5 23q-3 12 -9 23q-3 2 -69 45q-26 17 -29 20zM74 540q13 13 33 31
q33 30 40 30q13 0 26.5 -0.5t28.5 -0.5q24 0 43 2.5t37 9.5l-36 9q-20 0 -38 -3q-34 -7 -67 -13q-16 -16 -33 -37q-22 -28 -50 -69zM352 73q-4 -2 -27 -3t-30 -4l34 -17q23 16 46.5 34.5t42.5 38.5q-21 -17 -32 -25q-20 -16 -34 -24zM238 67l21 -13l4 2l37 -7zM44 509
q29 30 56 63q20 25 31 41l-33 -14q-34 -52 -40 -65q-12 -28 -12 -81q0 -10 2.5 -30.5t2.5 -26.5l-1 -175q-2 19 -7 69.5t-5 74.5q0 23 3 71t3 73zM106 82q5 -6 34.5 -20t36.5 -14q9 0 23 1l28 2q8 0 14 -2q-29 0 -82 14t-82 29q-11 23 -20 59q-4 17 -13 61q16 -42 27 -68
q19 -44 34 -62zM318 316q0 -11 -2 -33t-2 -33l8 -29v46q0 22 -1 44t-4 34zM313 435q13 -47 13 -90zM161 417q7 -64 13.5 -100.5t19.5 -83.5q-5 -15 -9 -29l15 2q-24 39 -33.5 74t-9.5 84l21 94zM248 470l39 -8l10 -14l-36 10l-39 -2l-17 4zM270 201l29 14l-7 -14l-46 -11
l-27 11h51zM88 679v91q25 -3 34.5 -3h20.5q23 0 51 3q2 -10 2.5 -25.5t0.5 -16.5q0 -9 -0.5 -17t-2.5 -32h-106zM151 672l58 -1l-113 -14l-17 10q11 0 27 1q36 4 45 4zM80 717q0 -7 2 -22.5t2 -22.5l-8 -3q-4 18 -6 45t-2 48q3 1 7 4t6 4zM213 679l-9 5v47q0 9 -1.5 25
t-1.5 19l14 6zM157 776q-15 0 -46 -1.5t-47 -1.5l19 12q32 0 64.5 -0.5t64.5 -0.5q-8 0 -27 -4t-28 -4zM296 679v91q26 -3 35.5 -3h19.5q23 0 52 3q1 -10 1.5 -25.5t0.5 -16.5q0 -9 -0.5 -17t-1.5 -32h-107zM359 672l59 -1l-114 -14l-17 10q11 0 27 1q36 4 45 4zM289 717
q0 -7 1.5 -22.5t1.5 -22.5l-8 -3q-4 18 -5.5 45t-1.5 48q2 1 6 4t6 4v-53zM421 679l-9 5v47q0 9 -1.5 25t-1.5 19l14 6zM365 776q-15 0 -46 -1.5t-47 -1.5l19 12q32 0 64.5 -0.5t64.5 -0.5q-8 0 -27 -4t-28 -4z" />
    <glyph glyph-name="otilde" unicode="&#xf5;" 
d="M458 245q0 -74 -6 -93.5t-45 -69.5q13 27 27 55q9 22 9 35q0 55 -3 110q-9 165 -9 183q0 13 2.5 31t5.5 34q10 -84 14.5 -147t4.5 -138zM271 70h-57q-93 0 -131 67q-30 53 -30 154v88q0 96 32 149q40 66 129 66h51q91 0 133 -64q36 -55 36 -151v-88q0 -107 -27 -155
q-37 -66 -136 -66zM334 376q0 55 -10 75q-16 31 -65 31h-33q-37 0 -55 -19t-18 -86v-81q0 -56 9 -77q16 -36 64 -36h33q48 0 64 35q11 24 11 79v79zM322 615l-30 7l20 -23l125 -39l-3 -56q-5 22 -5 23q-3 12 -9 23q-3 2 -69 45q-26 17 -29 20zM74 540q13 13 33 31
q33 30 40 30q13 0 26.5 -0.5t28.5 -0.5q24 0 43 2.5t37 9.5l-36 9q-20 0 -38 -3q-34 -7 -67 -13q-16 -16 -33 -37q-22 -28 -50 -69zM352 73q-4 -2 -27 -3t-30 -4l34 -17q23 16 46.5 34.5t42.5 38.5q-21 -17 -32 -25q-20 -16 -34 -24zM238 67l21 -13l4 2l37 -7zM44 509
q29 30 56 63q20 25 31 41l-33 -14q-34 -52 -40 -65q-12 -28 -12 -81q0 -10 2.5 -30.5t2.5 -26.5l-1 -175q-2 19 -7 69.5t-5 74.5q0 23 3 71t3 73zM106 82q5 -6 34.5 -20t36.5 -14q9 0 23 1l28 2q8 0 14 -2q-29 0 -82 14t-82 29q-11 23 -20 59q-4 17 -13 61q16 -42 27 -68
q19 -44 34 -62zM318 316q0 -11 -2 -33t-2 -33l8 -29v46q0 22 -1 44t-4 34zM313 435q13 -47 13 -90zM161 417q7 -64 13.5 -100.5t19.5 -83.5q-5 -15 -9 -29l15 2q-24 39 -33.5 74t-9.5 84l21 94zM248 470l39 -8l10 -14l-36 10l-39 -2l-17 4zM270 201l29 14l-7 -14l-46 -11
l-27 11h51zM297 665q-22 0 -64 8t-63 8q-37 0 -58 -29l-60 10q19 36 47 55.5t69 19.5q24 0 71 -8t71 -8q20 0 37.5 7.5t25.5 24.5l60 -12q-21 -37 -56.5 -56.5t-79.5 -19.5zM160 668q1 0 7 -2.5t8 -3.5h-24q-20 -6 -37 -15q5 7 16 15t20 14zM290 658q5 -1 20 0.5t16 -0.5
q-26 -10 -50 -4t-44 13q15 -2 32 -4.5t26 -4.5zM371 757l-18 -18l-9 2l15 9zM57 686l6.5 13t4.5 14q23 13 41 20t45 11l18 2h42l50 -12q-11 -2 -47.5 5t-67.5 8q-1 0 -8 -2.5t-11 -2.5q-19 -9 -30 -15.5t-22 -15.5q-2 -2 -7 -9q-30 -50 -14 -16zM75 655q15 -7 36 -9
q-19 -3 -30.5 -2t-17.5 2l-15 10zM223 670l7 -12q-10 6 -28.5 9t-40.5 5q12 3 23.5 2t22.5 -2zM286 726l-14 6q8 1 21 -1t32 0l23 6l-11 -9l-21 -4zM382 756l-6 7l16 -2q17 -3 27.5 -5.5t22.5 -6.5q-6 -1 -22 0q-10 2 -20 3zM331 664q14 0 35 10q60 38 70 61l-16 -28
l-44 -33q-24 -12 -45 -19v9z" />
    <glyph glyph-name="uacute" unicode="&#xfa;" horiz-adv-x="472" 
d="M269 59h-58q-89 0 -124 49q-29 41 -29 135v333h99q0 -27 -2 -91t-2 -68q0 -98 2.5 -159.5t15.5 -77.5q10 -11 28 -14t42 -3t39 3t25 15q6 8 8.5 32.5t2.5 65.5q0 42 -1 73.5t-2 59.5q0 32 2 106t2 79h100v-354q0 -99 -24 -136q-31 -48 -124 -48zM345 604l55 3zM404 76
q4 10 -4 22q9 37 19 77t10 72q0 19 -9 194q-3 58 -3 116l3 64l12 -36q0 -24 -3.5 -109t-3.5 -133q0 -109 -1.5 -162t-11.5 -118zM22 574q0 8 19.5 12t35.5 4q14 0 47 -4t46 -4q-22 6 -44.5 7.5t-55.5 1.5l-30 -29h-5q-13 -2 -13 12zM295 192l-7 -7l14 261l-2 -261zM194 181
l-23 22q0 30 -2.5 65t-3.5 59v241q0 -151 7.5 -258.5t21.5 -128.5zM384 56q-8 10 -11 20l18 -1zM415 69l6 43v-44zM370 67l-9 -22l-98 6q25 0 54 5q36 8 53 11zM33 406q0 20 3 61t3 62q4 -44 4.5 -60.5t0.5 -34.5q0 -34 -3.5 -93.5t-3.5 -77.5q0 24 -2 81t-2 62zM108 71
q-13 13 -30.5 41t-24.5 40q1 9 -3.5 24.5t-4.5 19.5q0 82 2.5 209.5t2.5 146.5l5 3q0 -65 -2 -118q-7 -184 -7 -197q0 -55 2 -71t17 -50q7 -17 14 -33q12 -27 16 -30zM142 57q13 0 39 -1t39 -1l80 -10q-6 3 -18.5 3.5t-25.5 0.5h-39q-12 0 -29.5 0.5t-23.5 2.5zM106 55l-1 4
l21 -6zM215 171l61 12l4 -12h-65zM251 653l-68 17l87 131q19 -7 44 -14q28 -7 44.5 -9.5t25.5 -4.5q-34 -25 -69.5 -56.5t-63.5 -63.5zM208 757q-6 -7 -15.5 -23t-15.5 -23q-8 -8 -24.5 -22.5t-23.5 -22.5l33 11l52 55q11 14 24 36q2 7 17 38zM401 783l-17 -6l-68 15l-55 14
l5 14q34 -9 68 -18.5t67 -18.5zM263 657l10 -15l105 125q-25 -29 -45.5 -48.5t-69.5 -61.5zM229 650l33 -8l-61 8l-44 19z" />
    <glyph glyph-name="ugrave" unicode="&#xf9;" horiz-adv-x="474" 
d="M274 59h-58q-89 0 -124 49q-29 41 -29 135v333h99q0 -27 -2 -91t-2 -68q0 -98 2.5 -159.5t15.5 -77.5q10 -11 28 -14t42 -3t39 3t25 15q6 8 8.5 32.5t2.5 65.5q0 42 -1 73.5t-2 59.5q0 32 2 106t2 79h100v-354q0 -99 -24 -136q-31 -48 -124 -48zM350 604l55 3zM409 76
q4 10 -4 22q9 37 19 77t10 72q0 19 -9 194q-3 58 -3 116l3 64l12 -36q0 -24 -3.5 -109t-3.5 -133q0 -109 -1.5 -162t-11.5 -118l-8 13v0zM27 574q0 8 19.5 12t35.5 4q14 0 47 -4t46 -4q-22 6 -44.5 7.5t-55.5 1.5l-30 -29h-5q-13 -2 -13 12zM300 192l-7 -7l14 261l-2 -261z
M199 181l-23 22q0 30 -2.5 65t-3.5 59v241q0 -151 7.5 -258.5t21.5 -128.5zM389 56q-8 10 -11 20l18 -1l-7 -19v0zM420 69l6 43v-44zM375 67l-9 -22l-98 6q25 0 54 5q36 8 53 11zM38 406q0 20 3 61t3 62q4 -44 4.5 -60.5t0.5 -34.5q0 -34 -3.5 -93.5t-3.5 -77.5q0 24 -2 81
t-2 62zM113 71q-13 13 -30.5 41t-24.5 40q1 9 -3.5 24.5t-4.5 19.5q0 82 2.5 209.5t2.5 146.5l5 3q0 -65 -2 -118q-7 -184 -7 -197q0 -55 2 -71t17 -50q7 -17 14 -33q12 -27 16 -30zM147 57q13 0 39 -1t39 -1l80 -10q-6 3 -18.5 3.5t-25.5 0.5h-39q-12 0 -29.5 0.5
t-23.5 2.5zM111 55l-1 4l21 -6zM220 171l61 12l4 -12h-65zM242 653q-28 32 -63.5 63.5t-69.5 56.5q9 2 25.5 4.5t44.5 9.5q25 7 44 14l87 -131l-68 -17v0zM285 757q6 -7 15.5 -23t15.5 -23q8 -8 24.5 -22.5t23.5 -22.5l-33 11l-52 55q-11 14 -24 36q-2 7 -17 38zM92 783
q33 9 67 18.5t68 18.5l5 -14l-55 -14l-68 -15l-17 6v0zM230 657l-10 -15l-105 125q25 -29 45.5 -48.5t69.5 -61.5zM336 669l-44 -19l-61 -8l33 8z" />
    <glyph glyph-name="ucircumflex" unicode="&#xfb;" horiz-adv-x="472" 
d="M271 59h-58q-89 0 -124 49q-29 41 -29 135v333h99q0 -27 -2 -91t-2 -68q0 -98 2.5 -159.5t15.5 -77.5q10 -11 28 -14t42 -3t39 3t25 15q6 8 8.5 32.5t2.5 65.5q0 42 -1 73.5t-2 59.5q0 32 2 106t2 79h100v-354q0 -99 -24 -136q-31 -48 -124 -48zM402 607l-55 -3zM406 76
l8 -13q10 65 11.5 118t1.5 162q0 48 3.5 133t3.5 109l-12 36l-3 -64q0 -58 3 -116q9 -175 9 -194q0 -32 -10 -72t-19 -77q8 -12 4 -22zM24 574q0 -14 13 -12h5l30 29q33 0 55.5 -1.5t44.5 -7.5q-13 0 -46 4t-47 4q-16 0 -35.5 -4t-19.5 -12zM302 185l2 261l-14 -261l7 7z
M196 181l-23 22q0 30 -2.5 65t-3.5 59v241q0 -151 7.5 -258.5t21.5 -128.5zM386 56l7 19l-18 1q3 -10 11 -20zM417 69l6 43v-44zM372 67l-9 -22l-98 6q25 0 54 5q36 8 53 11zM35 406q0 20 3 61t3 62q4 -44 4.5 -60.5t0.5 -34.5q0 -34 -3.5 -93.5t-3.5 -77.5q0 24 -2 81
t-2 62zM110 71q-13 13 -30.5 41t-24.5 40q1 9 -3.5 24.5t-4.5 19.5q0 82 2.5 209.5t2.5 146.5l5 3q0 -65 -2 -118q-7 -184 -7 -197q0 -55 2 -71t17 -50q7 -17 14 -33q12 -27 16 -30zM166 52q6 -2 23.5 -2.5t29.5 -0.5h39q13 0 25.5 -0.5t18.5 -3.5l-80 10q-13 0 -39 1t-39 1
zM108 55l-1 4l21 -6zM282 171l-4 12l-61 -12h65zM145 761l170 2l95 -95l-124 -2l-58 54l-54 -53l-118 -1zM140 768l66 2l-81 5l-74 -98zM175 657l49 46q-14 -19 -37 -55l-74 -4l-52 13h114zM284 657q-15 9 -24 15q-17 11 -21 15l-8 20zM411 655l-89 3l-23 -10zM317 775
l-60 -4l-38 6zM404 683l-55 74l-21 10z" />
    </font>
</defs>
</svg>
